<?xml version="1.0" encoding="us-ascii" standalone="no"?><svg xmlns="http://www.w3.org/2000/svg" xmlns:xlink="http://www.w3.org/1999/xlink" contentStyleType="text/css" height="1573px" preserveAspectRatio="none" style="width:3694px;height:1573px;background:#FFFFFF;" version="1.1" viewBox="0 0 3694 1573" width="3694px" zoomAndPan="magnify"><defs/><g><!--class Controller--><g id="elem_Controller"><rect codeLine="1" fill="#F1F1F1" height="129.4844" id="Controller" rx="2.5" ry="2.5" style="stroke:#181818;stroke-width:0.5;" width="294" x="2034" y="80.5"/><ellipse cx="2140.25" cy="96.5" fill="#ADD1B2" rx="11" ry="11" style="stroke:#181818;stroke-width:1.0;"/><path d="M2142.5938,92.1719 C2141.6563,91.7344 2141.0625,91.5938 2140.1875,91.5938 C2137.5625,91.5938 2135.5625,93.6719 2135.5625,96.3906 L2135.5625,97.5156 C2135.5625,100.0938 2137.6719,101.9844 2140.5625,101.9844 C2141.7813,101.9844 2142.9375,101.6875 2143.6875,101.1406 C2144.2656,100.7344 2144.5938,100.2813 2144.5938,99.8906 C2144.5938,99.4375 2144.2031,99.0469 2143.7344,99.0469 C2143.5156,99.0469 2143.3125,99.125 2143.125,99.3125 C2142.6719,99.7969 2142.6719,99.7969 2142.4844,99.8906 C2142.0625,100.1563 2141.375,100.2813 2140.6094,100.2813 C2138.5625,100.2813 2137.2656,99.1875 2137.2656,97.4844 L2137.2656,96.3906 C2137.2656,94.6094 2138.5156,93.2969 2140.25,93.2969 C2140.8281,93.2969 2141.4375,93.4531 2141.9063,93.7031 C2142.3906,93.9844 2142.5625,94.2031 2142.6563,94.6094 C2142.7188,95.0156 2142.75,95.1406 2142.8906,95.2656 C2143.0313,95.4063 2143.2656,95.5156 2143.4844,95.5156 C2143.75,95.5156 2144.0156,95.375 2144.1875,95.1563 C2144.2969,95 2144.3281,94.8125 2144.3281,94.3906 L2144.3281,92.9688 C2144.3281,92.5313 2144.3125,92.4063 2144.2188,92.25 C2144.0625,91.9844 2143.7813,91.8438 2143.4844,91.8438 C2143.1875,91.8438 2142.9844,91.9375 2142.7656,92.25 L2142.5938,92.1719 Z " fill="#000000"/><text fill="#000000" font-family="sans-serif" font-size="14" lengthAdjust="spacing" textLength="73" x="2160.75" y="101.3467">Controller</text><line style="stroke:#181818;stroke-width:0.5;" x1="2035" x2="2327" y1="112.5" y2="112.5"/><line style="stroke:#181818;stroke-width:0.5;" x1="2035" x2="2327" y1="120.5" y2="120.5"/><text fill="#000000" font-family="sans-serif" font-size="14" lengthAdjust="spacing" textLength="83" x="2040" y="137.4951">Controller()</text><text fill="#000000" font-family="sans-serif" font-size="14" lengthAdjust="spacing" textLength="67" x="2040" y="153.792">void run()</text><text fill="#000000" font-family="sans-serif" font-size="14" lengthAdjust="spacing" textLength="161" x="2040" y="170.0889">void handleKeyboard()</text><text fill="#000000" font-family="sans-serif" font-size="14" lengthAdjust="spacing" textLength="282" x="2040" y="186.3857">sf::RenderWindow* getWindow() const;</text><text fill="#000000" font-family="sans-serif" font-size="14" lengthAdjust="spacing" textLength="126" x="2040" y="202.6826">void startGame();</text></g><!--class Board--><g id="elem_Board"><rect codeLine="10" fill="#F1F1F1" height="162.0781" id="Board" rx="2.5" ry="2.5" style="stroke:#181818;stroke-width:0.5;" width="532" x="1654" y="343"/><ellipse cx="1894.75" cy="359" fill="#ADD1B2" rx="11" ry="11" style="stroke:#181818;stroke-width:1.0;"/><path d="M1897.0938,354.6719 C1896.1563,354.2344 1895.5625,354.0938 1894.6875,354.0938 C1892.0625,354.0938 1890.0625,356.1719 1890.0625,358.8906 L1890.0625,360.0156 C1890.0625,362.5938 1892.1719,364.4844 1895.0625,364.4844 C1896.2813,364.4844 1897.4375,364.1875 1898.1875,363.6406 C1898.7656,363.2344 1899.0938,362.7813 1899.0938,362.3906 C1899.0938,361.9375 1898.7031,361.5469 1898.2344,361.5469 C1898.0156,361.5469 1897.8125,361.625 1897.625,361.8125 C1897.1719,362.2969 1897.1719,362.2969 1896.9844,362.3906 C1896.5625,362.6563 1895.875,362.7813 1895.1094,362.7813 C1893.0625,362.7813 1891.7656,361.6875 1891.7656,359.9844 L1891.7656,358.8906 C1891.7656,357.1094 1893.0156,355.7969 1894.75,355.7969 C1895.3281,355.7969 1895.9375,355.9531 1896.4063,356.2031 C1896.8906,356.4844 1897.0625,356.7031 1897.1563,357.1094 C1897.2188,357.5156 1897.25,357.6406 1897.3906,357.7656 C1897.5313,357.9063 1897.7656,358.0156 1897.9844,358.0156 C1898.25,358.0156 1898.5156,357.875 1898.6875,357.6563 C1898.7969,357.5 1898.8281,357.3125 1898.8281,356.8906 L1898.8281,355.4688 C1898.8281,355.0313 1898.8125,354.9063 1898.7188,354.75 C1898.5625,354.4844 1898.2813,354.3438 1897.9844,354.3438 C1897.6875,354.3438 1897.4844,354.4375 1897.2656,354.75 L1897.0938,354.6719 Z " fill="#000000"/><text fill="#000000" font-family="sans-serif" font-size="14" lengthAdjust="spacing" textLength="42" x="1915.25" y="363.8467">Board</text><line style="stroke:#181818;stroke-width:0.5;" x1="1655" x2="2185" y1="375" y2="375"/><line style="stroke:#181818;stroke-width:0.5;" x1="1655" x2="2185" y1="383" y2="383"/><text fill="#000000" font-family="sans-serif" font-size="14" lengthAdjust="spacing" textLength="311" x="1660" y="399.9951">Board(const sf::RenderWindow*, const int);</text><text fill="#000000" font-family="sans-serif" font-size="14" lengthAdjust="spacing" textLength="434" x="1660" y="416.292">void makeObject(const ObjectTypes&amp;, const sf::Vector2f&amp;);</text><text fill="#000000" font-family="sans-serif" font-size="14" lengthAdjust="spacing" textLength="167" x="1660" y="432.5889">void draw(Controller&amp;);</text><text fill="#000000" font-family="sans-serif" font-size="14" lengthAdjust="spacing" textLength="210" x="1660" y="448.8857">void updatePlayers(sf::Time);</text><text fill="#000000" font-family="sans-serif" font-size="14" lengthAdjust="spacing" textLength="520" x="1660" y="465.1826">void directionPlayers(sf::Keyboard::Key first, sf::Keyboard::Key second);</text><text fill="#000000" font-family="sans-serif" font-size="14" lengthAdjust="spacing" textLength="336" x="1660" y="481.4795">bool collide(GameObject&amp; a, GameObject&amp; b);</text><text fill="#000000" font-family="sans-serif" font-size="14" lengthAdjust="spacing" textLength="107" x="1660" y="497.7764">void collision();</text></g><!--class ToolBar--><g id="elem_ToolBar"><rect codeLine="20" fill="#F1F1F1" height="96.8906" id="ToolBar" rx="2.5" ry="2.5" style="stroke:#181818;stroke-width:0.5;" width="243" x="3099.5" y="96.5"/><ellipse cx="3189.25" cy="112.5" fill="#ADD1B2" rx="11" ry="11" style="stroke:#181818;stroke-width:1.0;"/><path d="M3191.5938,108.1719 C3190.6563,107.7344 3190.0625,107.5938 3189.1875,107.5938 C3186.5625,107.5938 3184.5625,109.6719 3184.5625,112.3906 L3184.5625,113.5156 C3184.5625,116.0938 3186.6719,117.9844 3189.5625,117.9844 C3190.7813,117.9844 3191.9375,117.6875 3192.6875,117.1406 C3193.2656,116.7344 3193.5938,116.2813 3193.5938,115.8906 C3193.5938,115.4375 3193.2031,115.0469 3192.7344,115.0469 C3192.5156,115.0469 3192.3125,115.125 3192.125,115.3125 C3191.6719,115.7969 3191.6719,115.7969 3191.4844,115.8906 C3191.0625,116.1563 3190.375,116.2813 3189.6094,116.2813 C3187.5625,116.2813 3186.2656,115.1875 3186.2656,113.4844 L3186.2656,112.3906 C3186.2656,110.6094 3187.5156,109.2969 3189.25,109.2969 C3189.8281,109.2969 3190.4375,109.4531 3190.9063,109.7031 C3191.3906,109.9844 3191.5625,110.2031 3191.6563,110.6094 C3191.7188,111.0156 3191.75,111.1406 3191.8906,111.2656 C3192.0313,111.4063 3192.2656,111.5156 3192.4844,111.5156 C3192.75,111.5156 3193.0156,111.375 3193.1875,111.1563 C3193.2969,111 3193.3281,110.8125 3193.3281,110.3906 L3193.3281,108.9688 C3193.3281,108.5313 3193.3125,108.4063 3193.2188,108.25 C3193.0625,107.9844 3192.7813,107.8438 3192.4844,107.8438 C3192.1875,107.8438 3191.9844,107.9375 3191.7656,108.25 L3191.5938,108.1719 Z " fill="#000000"/><text fill="#000000" font-family="sans-serif" font-size="14" lengthAdjust="spacing" textLength="55" x="3209.75" y="117.3467">ToolBar</text><line style="stroke:#181818;stroke-width:0.5;" x1="3100.5" x2="3341.5" y1="128.5" y2="128.5"/><line style="stroke:#181818;stroke-width:0.5;" x1="3100.5" x2="3341.5" y1="136.5" y2="136.5"/><text fill="#000000" font-family="sans-serif" font-size="14" lengthAdjust="spacing" textLength="219" x="3105.5" y="153.4951">virtual void updateHealth() = 0</text><text fill="#000000" font-family="sans-serif" font-size="14" lengthAdjust="spacing" textLength="231" x="3105.5" y="169.792">virtual void updateWeapon() = 0</text><text fill="#000000" font-family="sans-serif" font-size="14" lengthAdjust="spacing" textLength="211" x="3105.5" y="186.0889">virtual void updateCoins() = 0</text></g><!--class Menu--><g id="elem_Menu"><rect codeLine="26" fill="#F1F1F1" height="96.8906" id="Menu" rx="2.5" ry="2.5" style="stroke:#181818;stroke-width:0.5;" width="810" x="2221" y="375.5"/><ellipse cx="2602.75" cy="391.5" fill="#ADD1B2" rx="11" ry="11" style="stroke:#181818;stroke-width:1.0;"/><path d="M2605.0938,387.1719 C2604.1563,386.7344 2603.5625,386.5938 2602.6875,386.5938 C2600.0625,386.5938 2598.0625,388.6719 2598.0625,391.3906 L2598.0625,392.5156 C2598.0625,395.0938 2600.1719,396.9844 2603.0625,396.9844 C2604.2813,396.9844 2605.4375,396.6875 2606.1875,396.1406 C2606.7656,395.7344 2607.0938,395.2813 2607.0938,394.8906 C2607.0938,394.4375 2606.7031,394.0469 2606.2344,394.0469 C2606.0156,394.0469 2605.8125,394.125 2605.625,394.3125 C2605.1719,394.7969 2605.1719,394.7969 2604.9844,394.8906 C2604.5625,395.1563 2603.875,395.2813 2603.1094,395.2813 C2601.0625,395.2813 2599.7656,394.1875 2599.7656,392.4844 L2599.7656,391.3906 C2599.7656,389.6094 2601.0156,388.2969 2602.75,388.2969 C2603.3281,388.2969 2603.9375,388.4531 2604.4063,388.7031 C2604.8906,388.9844 2605.0625,389.2031 2605.1563,389.6094 C2605.2188,390.0156 2605.25,390.1406 2605.3906,390.2656 C2605.5313,390.4063 2605.7656,390.5156 2605.9844,390.5156 C2606.25,390.5156 2606.5156,390.375 2606.6875,390.1563 C2606.7969,390 2606.8281,389.8125 2606.8281,389.3906 L2606.8281,387.9688 C2606.8281,387.5313 2606.8125,387.4063 2606.7188,387.25 C2606.5625,386.9844 2606.2813,386.8438 2605.9844,386.8438 C2605.6875,386.8438 2605.4844,386.9375 2605.2656,387.25 L2605.0938,387.1719 Z " fill="#000000"/><text fill="#000000" font-family="sans-serif" font-size="14" lengthAdjust="spacing" textLength="38" x="2623.25" y="396.3467">Menu</text><line style="stroke:#181818;stroke-width:0.5;" x1="2222" x2="3030" y1="407.5" y2="407.5"/><line style="stroke:#181818;stroke-width:0.5;" x1="2222" x2="3030" y1="415.5" y2="415.5"/><text fill="#000000" font-family="sans-serif" font-size="14" lengthAdjust="spacing" textLength="798" x="2227" y="432.4951">virtual ClickedButton handleClick(const sf::Event::MouseButtonEvent&amp; event, sf::RenderWindow* window) = 0;</text><text fill="#000000" font-family="sans-serif" font-size="14" lengthAdjust="spacing" textLength="445" x="2227" y="448.792">virtual void handleHoverOver(sf::RenderWindow* window) = 0;</text><text fill="#000000" font-family="sans-serif" font-size="14" lengthAdjust="spacing" textLength="482" x="2227" y="465.0889">virtual ClickedButton displayMenu(sf::RenderWindow* window) = 0;</text></g><!--class StartMenu--><g id="elem_StartMenu"><rect codeLine="33" fill="#F1F1F1" height="96.8906" id="StartMenu" rx="2.5" ry="2.5" style="stroke:#181818;stroke-width:0.5;" width="737" x="2178.5" y="671"/><ellipse cx="2505.25" cy="687" fill="#ADD1B2" rx="11" ry="11" style="stroke:#181818;stroke-width:1.0;"/><path d="M2507.5938,682.6719 C2506.6563,682.2344 2506.0625,682.0938 2505.1875,682.0938 C2502.5625,682.0938 2500.5625,684.1719 2500.5625,686.8906 L2500.5625,688.0156 C2500.5625,690.5938 2502.6719,692.4844 2505.5625,692.4844 C2506.7813,692.4844 2507.9375,692.1875 2508.6875,691.6406 C2509.2656,691.2344 2509.5938,690.7813 2509.5938,690.3906 C2509.5938,689.9375 2509.2031,689.5469 2508.7344,689.5469 C2508.5156,689.5469 2508.3125,689.625 2508.125,689.8125 C2507.6719,690.2969 2507.6719,690.2969 2507.4844,690.3906 C2507.0625,690.6563 2506.375,690.7813 2505.6094,690.7813 C2503.5625,690.7813 2502.2656,689.6875 2502.2656,687.9844 L2502.2656,686.8906 C2502.2656,685.1094 2503.5156,683.7969 2505.25,683.7969 C2505.8281,683.7969 2506.4375,683.9531 2506.9063,684.2031 C2507.3906,684.4844 2507.5625,684.7031 2507.6563,685.1094 C2507.7188,685.5156 2507.75,685.6406 2507.8906,685.7656 C2508.0313,685.9063 2508.2656,686.0156 2508.4844,686.0156 C2508.75,686.0156 2509.0156,685.875 2509.1875,685.6563 C2509.2969,685.5 2509.3281,685.3125 2509.3281,684.8906 L2509.3281,683.4688 C2509.3281,683.0313 2509.3125,682.9063 2509.2188,682.75 C2509.0625,682.4844 2508.7813,682.3438 2508.4844,682.3438 C2508.1875,682.3438 2507.9844,682.4375 2507.7656,682.75 L2507.5938,682.6719 Z " fill="#000000"/><text fill="#000000" font-family="sans-serif" font-size="14" lengthAdjust="spacing" textLength="75" x="2525.75" y="691.8467">StartMenu</text><line style="stroke:#181818;stroke-width:0.5;" x1="2179.5" x2="2914.5" y1="703" y2="703"/><line style="stroke:#181818;stroke-width:0.5;" x1="2179.5" x2="2914.5" y1="711" y2="711"/><text fill="#000000" font-family="sans-serif" font-size="14" lengthAdjust="spacing" textLength="725" x="2184.5" y="727.9951">ClickedButton handleClick(const sf::Event::MouseButtonEvent&amp; event, sf::RenderWindow* window) ;</text><text fill="#000000" font-family="sans-serif" font-size="14" lengthAdjust="spacing" textLength="368" x="2184.5" y="744.292">void handleHoverOver(sf::RenderWindow* window);</text><text fill="#000000" font-family="sans-serif" font-size="14" lengthAdjust="spacing" textLength="405" x="2184.5" y="760.5889">ClickedButton displayMenu(sf::RenderWindow* window);</text></g><!--class MainMenu--><g id="elem_MainMenu"><rect codeLine="39" fill="#F1F1F1" height="96.8906" id="MainMenu" rx="2.5" ry="2.5" style="stroke:#181818;stroke-width:0.5;" width="737" x="2950.5" y="671"/><ellipse cx="3279.25" cy="687" fill="#ADD1B2" rx="11" ry="11" style="stroke:#181818;stroke-width:1.0;"/><path d="M3281.5938,682.6719 C3280.6563,682.2344 3280.0625,682.0938 3279.1875,682.0938 C3276.5625,682.0938 3274.5625,684.1719 3274.5625,686.8906 L3274.5625,688.0156 C3274.5625,690.5938 3276.6719,692.4844 3279.5625,692.4844 C3280.7813,692.4844 3281.9375,692.1875 3282.6875,691.6406 C3283.2656,691.2344 3283.5938,690.7813 3283.5938,690.3906 C3283.5938,689.9375 3283.2031,689.5469 3282.7344,689.5469 C3282.5156,689.5469 3282.3125,689.625 3282.125,689.8125 C3281.6719,690.2969 3281.6719,690.2969 3281.4844,690.3906 C3281.0625,690.6563 3280.375,690.7813 3279.6094,690.7813 C3277.5625,690.7813 3276.2656,689.6875 3276.2656,687.9844 L3276.2656,686.8906 C3276.2656,685.1094 3277.5156,683.7969 3279.25,683.7969 C3279.8281,683.7969 3280.4375,683.9531 3280.9063,684.2031 C3281.3906,684.4844 3281.5625,684.7031 3281.6563,685.1094 C3281.7188,685.5156 3281.75,685.6406 3281.8906,685.7656 C3282.0313,685.9063 3282.2656,686.0156 3282.4844,686.0156 C3282.75,686.0156 3283.0156,685.875 3283.1875,685.6563 C3283.2969,685.5 3283.3281,685.3125 3283.3281,684.8906 L3283.3281,683.4688 C3283.3281,683.0313 3283.3125,682.9063 3283.2188,682.75 C3283.0625,682.4844 3282.7813,682.3438 3282.4844,682.3438 C3282.1875,682.3438 3281.9844,682.4375 3281.7656,682.75 L3281.5938,682.6719 Z " fill="#000000"/><text fill="#000000" font-family="sans-serif" font-size="14" lengthAdjust="spacing" textLength="71" x="3299.75" y="691.8467">MainMenu</text><line style="stroke:#181818;stroke-width:0.5;" x1="2951.5" x2="3686.5" y1="703" y2="703"/><line style="stroke:#181818;stroke-width:0.5;" x1="2951.5" x2="3686.5" y1="711" y2="711"/><text fill="#000000" font-family="sans-serif" font-size="14" lengthAdjust="spacing" textLength="725" x="2956.5" y="727.9951">ClickedButton handleClick(const sf::Event::MouseButtonEvent&amp; event, sf::RenderWindow* window) ;</text><text fill="#000000" font-family="sans-serif" font-size="14" lengthAdjust="spacing" textLength="368" x="2956.5" y="744.292">void handleHoverOver(sf::RenderWindow* window);</text><text fill="#000000" font-family="sans-serif" font-size="14" lengthAdjust="spacing" textLength="405" x="2956.5" y="760.5889">ClickedButton displayMenu(sf::RenderWindow* window);</text></g><!--class GameObject--><g id="elem_GameObject"><rect codeLine="45" fill="#F1F1F1" height="308.75" id="GameObject" rx="2.5" ry="2.5" style="stroke:#181818;stroke-width:0.5;" width="290" x="1775" y="565"/><ellipse cx="1870.25" cy="581" fill="#ADD1B2" rx="11" ry="11" style="stroke:#181818;stroke-width:1.0;"/><path d="M1872.5938,576.6719 C1871.6563,576.2344 1871.0625,576.0938 1870.1875,576.0938 C1867.5625,576.0938 1865.5625,578.1719 1865.5625,580.8906 L1865.5625,582.0156 C1865.5625,584.5938 1867.6719,586.4844 1870.5625,586.4844 C1871.7813,586.4844 1872.9375,586.1875 1873.6875,585.6406 C1874.2656,585.2344 1874.5938,584.7813 1874.5938,584.3906 C1874.5938,583.9375 1874.2031,583.5469 1873.7344,583.5469 C1873.5156,583.5469 1873.3125,583.625 1873.125,583.8125 C1872.6719,584.2969 1872.6719,584.2969 1872.4844,584.3906 C1872.0625,584.6563 1871.375,584.7813 1870.6094,584.7813 C1868.5625,584.7813 1867.2656,583.6875 1867.2656,581.9844 L1867.2656,580.8906 C1867.2656,579.1094 1868.5156,577.7969 1870.25,577.7969 C1870.8281,577.7969 1871.4375,577.9531 1871.9063,578.2031 C1872.3906,578.4844 1872.5625,578.7031 1872.6563,579.1094 C1872.7188,579.5156 1872.75,579.6406 1872.8906,579.7656 C1873.0313,579.9063 1873.2656,580.0156 1873.4844,580.0156 C1873.75,580.0156 1874.0156,579.875 1874.1875,579.6563 C1874.2969,579.5 1874.3281,579.3125 1874.3281,578.8906 L1874.3281,577.4688 C1874.3281,577.0313 1874.3125,576.9063 1874.2188,576.75 C1874.0625,576.4844 1873.7813,576.3438 1873.4844,576.3438 C1873.1875,576.3438 1872.9844,576.4375 1872.7656,576.75 L1872.5938,576.6719 Z " fill="#000000"/><text fill="#000000" font-family="sans-serif" font-size="14" lengthAdjust="spacing" textLength="91" x="1890.75" y="585.8467">GameObject</text><line style="stroke:#181818;stroke-width:0.5;" x1="1776" x2="2064" y1="597" y2="597"/><text fill="#000000" font-family="sans-serif" font-size="14" lengthAdjust="spacing" textLength="57" x="1781" y="613.9951">private:</text><text fill="#000000" font-family="sans-serif" font-size="14" lengthAdjust="spacing" textLength="141" x="1781" y="630.292">sf::Sprite m_sprite;</text><text fill="#000000" font-family="sans-serif" font-size="14" lengthAdjust="spacing" textLength="207" x="1781" y="646.5889">sf::Vector2f m_prevPosition;</text><line style="stroke:#181818;stroke-width:0.5;" x1="1776" x2="2064" y1="653.8906" y2="653.8906"/><text fill="#000000" font-family="sans-serif" font-size="14" lengthAdjust="spacing" textLength="229" x="1781" y="670.8857">GameObject(const sf::Sprite&amp;);</text><text fill="#000000" font-family="sans-serif" font-size="14" lengthAdjust="spacing" textLength="240" x="1781" y="687.1826">virtual ~GameObject() = default ;</text><text fill="#000000" font-family="sans-serif" font-size="14" lengthAdjust="spacing" textLength="4" x="1781" y="703.4795">&#160;</text><text fill="#000000" font-family="sans-serif" font-size="14" lengthAdjust="spacing" textLength="168" x="1781" y="719.7764">sf::Sprite&amp; getSprite();</text><text fill="#000000" font-family="sans-serif" font-size="14" lengthAdjust="spacing" textLength="185" x="1781" y="736.0732">void setSprite(sf::Sprite);</text><text fill="#000000" font-family="sans-serif" font-size="14" lengthAdjust="spacing" textLength="4" x="1781" y="752.3701">&#160;</text><text fill="#000000" font-family="sans-serif" font-size="14" lengthAdjust="spacing" textLength="232" x="1781" y="768.667">sf::Vector2f getPosition() const;</text><text fill="#000000" font-family="sans-serif" font-size="14" lengthAdjust="spacing" textLength="216" x="1781" y="784.9639">void setPosition(sf::Vector2f);</text><text fill="#000000" font-family="sans-serif" font-size="14" lengthAdjust="spacing" textLength="4" x="1781" y="801.2607">&#160;</text><text fill="#000000" font-family="sans-serif" font-size="14" lengthAdjust="spacing" textLength="278" x="1781" y="817.5576">void setPrevPosition(sf::Vector2f pos);</text><text fill="#000000" font-family="sans-serif" font-size="14" lengthAdjust="spacing" textLength="264" x="1781" y="833.8545">sf::Vector2f getPrevPosition() const;</text><text fill="#000000" font-family="sans-serif" font-size="14" lengthAdjust="spacing" textLength="4" x="1781" y="850.1514">&#160;</text><text fill="#000000" font-family="sans-serif" font-size="14" lengthAdjust="spacing" textLength="278" x="1781" y="866.4482">void draw(sf::RenderWindow* window);</text></g><!--class MovingObject--><g id="elem_MovingObject"><rect codeLine="66" fill="#F1F1F1" height="178.375" id="MovingObject" rx="2.5" ry="2.5" style="stroke:#181818;stroke-width:0.5;" width="362" x="1341" y="934"/><ellipse cx="1467.75" cy="950" fill="#ADD1B2" rx="11" ry="11" style="stroke:#181818;stroke-width:1.0;"/><path d="M1470.0938,945.6719 C1469.1563,945.2344 1468.5625,945.0938 1467.6875,945.0938 C1465.0625,945.0938 1463.0625,947.1719 1463.0625,949.8906 L1463.0625,951.0156 C1463.0625,953.5938 1465.1719,955.4844 1468.0625,955.4844 C1469.2813,955.4844 1470.4375,955.1875 1471.1875,954.6406 C1471.7656,954.2344 1472.0938,953.7813 1472.0938,953.3906 C1472.0938,952.9375 1471.7031,952.5469 1471.2344,952.5469 C1471.0156,952.5469 1470.8125,952.625 1470.625,952.8125 C1470.1719,953.2969 1470.1719,953.2969 1469.9844,953.3906 C1469.5625,953.6563 1468.875,953.7813 1468.1094,953.7813 C1466.0625,953.7813 1464.7656,952.6875 1464.7656,950.9844 L1464.7656,949.8906 C1464.7656,948.1094 1466.0156,946.7969 1467.75,946.7969 C1468.3281,946.7969 1468.9375,946.9531 1469.4063,947.2031 C1469.8906,947.4844 1470.0625,947.7031 1470.1563,948.1094 C1470.2188,948.5156 1470.25,948.6406 1470.3906,948.7656 C1470.5313,948.9063 1470.7656,949.0156 1470.9844,949.0156 C1471.25,949.0156 1471.5156,948.875 1471.6875,948.6563 C1471.7969,948.5 1471.8281,948.3125 1471.8281,947.8906 L1471.8281,946.4688 C1471.8281,946.0313 1471.8125,945.9063 1471.7188,945.75 C1471.5625,945.4844 1471.2813,945.3438 1470.9844,945.3438 C1470.6875,945.3438 1470.4844,945.4375 1470.2656,945.75 L1470.0938,945.6719 Z " fill="#000000"/><text fill="#000000" font-family="sans-serif" font-size="14" lengthAdjust="spacing" textLength="100" x="1488.25" y="954.8467">MovingObject</text><line style="stroke:#181818;stroke-width:0.5;" x1="1342" x2="1702" y1="966" y2="966"/><text fill="#000000" font-family="sans-serif" font-size="14" lengthAdjust="spacing" textLength="49" x="1347" y="982.9951">public:</text><text fill="#000000" font-family="sans-serif" font-size="14" lengthAdjust="spacing" textLength="4" x="1347" y="999.292">&#160;</text><text fill="#000000" font-family="sans-serif" font-size="14" lengthAdjust="spacing" textLength="57" x="1347" y="1015.5889">private:</text><text fill="#000000" font-family="sans-serif" font-size="14" lengthAdjust="spacing" textLength="207" x="1347" y="1031.8857">sf::Vector2f m_prevPosition;</text><line style="stroke:#181818;stroke-width:0.5;" x1="1342" x2="1702" y1="1039.1875" y2="1039.1875"/><text fill="#000000" font-family="sans-serif" font-size="14" lengthAdjust="spacing" textLength="238" x="1347" y="1056.1826">MovingObject(const sf::Sprite&amp;);</text><text fill="#000000" font-family="sans-serif" font-size="14" lengthAdjust="spacing" textLength="245" x="1347" y="1072.4795">virtual ~MovingObject() = default;</text><text fill="#000000" font-family="sans-serif" font-size="14" lengthAdjust="spacing" textLength="236" x="1347" y="1088.7764">virtual void update(sf::Time) = 0;</text><text fill="#000000" font-family="sans-serif" font-size="14" lengthAdjust="spacing" textLength="350" x="1347" y="1105.0732">virtual void direction(sf::Keyboard::Key key) = 0;</text></g><!--class StaticObject--><g id="elem_StaticObject"><rect codeLine="77" fill="#F1F1F1" height="178.375" id="StaticObject" rx="2.5" ry="2.5" style="stroke:#181818;stroke-width:0.5;" width="242" x="2197" y="934"/><ellipse cx="2267.75" cy="950" fill="#ADD1B2" rx="11" ry="11" style="stroke:#181818;stroke-width:1.0;"/><path d="M2270.0938,945.6719 C2269.1563,945.2344 2268.5625,945.0938 2267.6875,945.0938 C2265.0625,945.0938 2263.0625,947.1719 2263.0625,949.8906 L2263.0625,951.0156 C2263.0625,953.5938 2265.1719,955.4844 2268.0625,955.4844 C2269.2813,955.4844 2270.4375,955.1875 2271.1875,954.6406 C2271.7656,954.2344 2272.0938,953.7813 2272.0938,953.3906 C2272.0938,952.9375 2271.7031,952.5469 2271.2344,952.5469 C2271.0156,952.5469 2270.8125,952.625 2270.625,952.8125 C2270.1719,953.2969 2270.1719,953.2969 2269.9844,953.3906 C2269.5625,953.6563 2268.875,953.7813 2268.1094,953.7813 C2266.0625,953.7813 2264.7656,952.6875 2264.7656,950.9844 L2264.7656,949.8906 C2264.7656,948.1094 2266.0156,946.7969 2267.75,946.7969 C2268.3281,946.7969 2268.9375,946.9531 2269.4063,947.2031 C2269.8906,947.4844 2270.0625,947.7031 2270.1563,948.1094 C2270.2188,948.5156 2270.25,948.6406 2270.3906,948.7656 C2270.5313,948.9063 2270.7656,949.0156 2270.9844,949.0156 C2271.25,949.0156 2271.5156,948.875 2271.6875,948.6563 C2271.7969,948.5 2271.8281,948.3125 2271.8281,947.8906 L2271.8281,946.4688 C2271.8281,946.0313 2271.8125,945.9063 2271.7188,945.75 C2271.5625,945.4844 2271.2813,945.3438 2270.9844,945.3438 C2270.6875,945.3438 2270.4844,945.4375 2270.2656,945.75 L2270.0938,945.6719 Z " fill="#000000"/><text fill="#000000" font-family="sans-serif" font-size="14" lengthAdjust="spacing" textLength="92" x="2288.25" y="954.8467">StaticObject</text><line style="stroke:#181818;stroke-width:0.5;" x1="2198" x2="2438" y1="966" y2="966"/><text fill="#000000" font-family="sans-serif" font-size="14" lengthAdjust="spacing" textLength="57" x="2203" y="982.9951">private:</text><text fill="#000000" font-family="sans-serif" font-size="14" lengthAdjust="spacing" textLength="109" x="2203" y="999.292">bool m_delete;</text><text fill="#000000" font-family="sans-serif" font-size="14" lengthAdjust="spacing" textLength="4" x="2203" y="1015.5889">&#160;</text><text fill="#000000" font-family="sans-serif" font-size="14" lengthAdjust="spacing" textLength="49" x="2203" y="1031.8857">public:</text><line style="stroke:#181818;stroke-width:0.5;" x1="2198" x2="2438" y1="1039.1875" y2="1039.1875"/><text fill="#000000" font-family="sans-serif" font-size="14" lengthAdjust="spacing" textLength="230" x="2203" y="1056.1826">StaticObject(const sf::Sprite&amp;);</text><text fill="#000000" font-family="sans-serif" font-size="14" lengthAdjust="spacing" textLength="4" x="2203" y="1072.4795">&#160;</text><text fill="#000000" font-family="sans-serif" font-size="14" lengthAdjust="spacing" textLength="145" x="2203" y="1088.7764">void deleteObject();</text><text fill="#000000" font-family="sans-serif" font-size="14" lengthAdjust="spacing" textLength="125" x="2203" y="1105.0732">bool getDelete();</text></g><!--class Character--><g id="elem_Character"><rect codeLine="88" fill="#F1F1F1" height="129.4844" id="Character" rx="2.5" ry="2.5" style="stroke:#181818;stroke-width:0.5;" width="181" x="59.5" y="1329"/><ellipse cx="110.25" cy="1345" fill="#ADD1B2" rx="11" ry="11" style="stroke:#181818;stroke-width:1.0;"/><path d="M112.5938,1340.6719 C111.6563,1340.2344 111.0625,1340.0938 110.1875,1340.0938 C107.5625,1340.0938 105.5625,1342.1719 105.5625,1344.8906 L105.5625,1346.0156 C105.5625,1348.5938 107.6719,1350.4844 110.5625,1350.4844 C111.7813,1350.4844 112.9375,1350.1875 113.6875,1349.6406 C114.2656,1349.2344 114.5938,1348.7813 114.5938,1348.3906 C114.5938,1347.9375 114.2031,1347.5469 113.7344,1347.5469 C113.5156,1347.5469 113.3125,1347.625 113.125,1347.8125 C112.6719,1348.2969 112.6719,1348.2969 112.4844,1348.3906 C112.0625,1348.6563 111.375,1348.7813 110.6094,1348.7813 C108.5625,1348.7813 107.2656,1347.6875 107.2656,1345.9844 L107.2656,1344.8906 C107.2656,1343.1094 108.5156,1341.7969 110.25,1341.7969 C110.8281,1341.7969 111.4375,1341.9531 111.9063,1342.2031 C112.3906,1342.4844 112.5625,1342.7031 112.6563,1343.1094 C112.7188,1343.5156 112.75,1343.6406 112.8906,1343.7656 C113.0313,1343.9063 113.2656,1344.0156 113.4844,1344.0156 C113.75,1344.0156 114.0156,1343.875 114.1875,1343.6563 C114.2969,1343.5 114.3281,1343.3125 114.3281,1342.8906 L114.3281,1341.4688 C114.3281,1341.0313 114.3125,1340.9063 114.2188,1340.75 C114.0625,1340.4844 113.7813,1340.3438 113.4844,1340.3438 C113.1875,1340.3438 112.9844,1340.4375 112.7656,1340.75 L112.5938,1340.6719 Z " fill="#000000"/><text fill="#000000" font-family="sans-serif" font-size="14" lengthAdjust="spacing" textLength="71" x="130.75" y="1349.8467">Character</text><line style="stroke:#181818;stroke-width:0.5;" x1="60.5" x2="239.5" y1="1361" y2="1361"/><text fill="#000000" font-family="sans-serif" font-size="14" lengthAdjust="spacing" textLength="101" x="65.5" y="1377.9951">sf::sprite char</text><text fill="#000000" font-family="sans-serif" font-size="14" lengthAdjust="spacing" textLength="61" x="65.5" y="1394.292">int price</text><text fill="#000000" font-family="sans-serif" font-size="14" lengthAdjust="spacing" textLength="101" x="65.5" y="1410.5889">bool unlocked</text><line style="stroke:#181818;stroke-width:0.5;" x1="60.5" x2="239.5" y1="1417.8906" y2="1417.8906"/><text fill="#000000" font-family="sans-serif" font-size="14" lengthAdjust="spacing" textLength="165" x="65.5" y="1434.8857">void setUnlocked(bool)</text><text fill="#000000" font-family="sans-serif" font-size="14" lengthAdjust="spacing" textLength="169" x="65.5" y="1451.1826">bool getUnlocked(bool)</text></g><!--class Player--><g id="elem_Player"><rect codeLine="96" fill="#F1F1F1" height="96.8906" id="Player" rx="2.5" ry="2.5" style="stroke:#181818;stroke-width:0.5;" width="362" x="511" y="1172"/><ellipse cx="665.75" cy="1188" fill="#ADD1B2" rx="11" ry="11" style="stroke:#181818;stroke-width:1.0;"/><path d="M668.0938,1183.6719 C667.1563,1183.2344 666.5625,1183.0938 665.6875,1183.0938 C663.0625,1183.0938 661.0625,1185.1719 661.0625,1187.8906 L661.0625,1189.0156 C661.0625,1191.5938 663.1719,1193.4844 666.0625,1193.4844 C667.2813,1193.4844 668.4375,1193.1875 669.1875,1192.6406 C669.7656,1192.2344 670.0938,1191.7813 670.0938,1191.3906 C670.0938,1190.9375 669.7031,1190.5469 669.2344,1190.5469 C669.0156,1190.5469 668.8125,1190.625 668.625,1190.8125 C668.1719,1191.2969 668.1719,1191.2969 667.9844,1191.3906 C667.5625,1191.6563 666.875,1191.7813 666.1094,1191.7813 C664.0625,1191.7813 662.7656,1190.6875 662.7656,1188.9844 L662.7656,1187.8906 C662.7656,1186.1094 664.0156,1184.7969 665.75,1184.7969 C666.3281,1184.7969 666.9375,1184.9531 667.4063,1185.2031 C667.8906,1185.4844 668.0625,1185.7031 668.1563,1186.1094 C668.2188,1186.5156 668.25,1186.6406 668.3906,1186.7656 C668.5313,1186.9063 668.7656,1187.0156 668.9844,1187.0156 C669.25,1187.0156 669.5156,1186.875 669.6875,1186.6563 C669.7969,1186.5 669.8281,1186.3125 669.8281,1185.8906 L669.8281,1184.4688 C669.8281,1184.0313 669.8125,1183.9063 669.7188,1183.75 C669.5625,1183.4844 669.2813,1183.3438 668.9844,1183.3438 C668.6875,1183.3438 668.4844,1183.4375 668.2656,1183.75 L668.0938,1183.6719 Z " fill="#000000"/><text fill="#000000" font-family="sans-serif" font-size="14" lengthAdjust="spacing" textLength="44" x="686.25" y="1192.8467">Player</text><line style="stroke:#181818;stroke-width:0.5;" x1="512" x2="872" y1="1204" y2="1204"/><line style="stroke:#181818;stroke-width:0.5;" x1="512" x2="872" y1="1212" y2="1212"/><text fill="#000000" font-family="sans-serif" font-size="14" lengthAdjust="spacing" textLength="182" x="517" y="1228.9951">Player(const sf::Sprite&amp;);</text><text fill="#000000" font-family="sans-serif" font-size="14" lengthAdjust="spacing" textLength="236" x="517" y="1245.292">virtual void update(sf::Time) = 0;</text><text fill="#000000" font-family="sans-serif" font-size="14" lengthAdjust="spacing" textLength="350" x="517" y="1261.5889">virtual void direction(sf::Keyboard::Key key) = 0;</text></g><!--class Enemy--><g id="elem_Enemy"><rect codeLine="102" fill="#F1F1F1" height="80.5938" id="Enemy" rx="2.5" ry="2.5" style="stroke:#181818;stroke-width:0.5;" width="249" x="1397.5" y="1180"/><ellipse cx="1493.25" cy="1196" fill="#ADD1B2" rx="11" ry="11" style="stroke:#181818;stroke-width:1.0;"/><path d="M1495.5938,1191.6719 C1494.6563,1191.2344 1494.0625,1191.0938 1493.1875,1191.0938 C1490.5625,1191.0938 1488.5625,1193.1719 1488.5625,1195.8906 L1488.5625,1197.0156 C1488.5625,1199.5938 1490.6719,1201.4844 1493.5625,1201.4844 C1494.7813,1201.4844 1495.9375,1201.1875 1496.6875,1200.6406 C1497.2656,1200.2344 1497.5938,1199.7813 1497.5938,1199.3906 C1497.5938,1198.9375 1497.2031,1198.5469 1496.7344,1198.5469 C1496.5156,1198.5469 1496.3125,1198.625 1496.125,1198.8125 C1495.6719,1199.2969 1495.6719,1199.2969 1495.4844,1199.3906 C1495.0625,1199.6563 1494.375,1199.7813 1493.6094,1199.7813 C1491.5625,1199.7813 1490.2656,1198.6875 1490.2656,1196.9844 L1490.2656,1195.8906 C1490.2656,1194.1094 1491.5156,1192.7969 1493.25,1192.7969 C1493.8281,1192.7969 1494.4375,1192.9531 1494.9063,1193.2031 C1495.3906,1193.4844 1495.5625,1193.7031 1495.6563,1194.1094 C1495.7188,1194.5156 1495.75,1194.6406 1495.8906,1194.7656 C1496.0313,1194.9063 1496.2656,1195.0156 1496.4844,1195.0156 C1496.75,1195.0156 1497.0156,1194.875 1497.1875,1194.6563 C1497.2969,1194.5 1497.3281,1194.3125 1497.3281,1193.8906 L1497.3281,1192.4688 C1497.3281,1192.0313 1497.3125,1191.9063 1497.2188,1191.75 C1497.0625,1191.4844 1496.7813,1191.3438 1496.4844,1191.3438 C1496.1875,1191.3438 1495.9844,1191.4375 1495.7656,1191.75 L1495.5938,1191.6719 Z " fill="#000000"/><text fill="#000000" font-family="sans-serif" font-size="14" lengthAdjust="spacing" textLength="49" x="1513.75" y="1200.8467">Enemy</text><line style="stroke:#181818;stroke-width:0.5;" x1="1398.5" x2="1645.5" y1="1212" y2="1212"/><line style="stroke:#181818;stroke-width:0.5;" x1="1398.5" x2="1645.5" y1="1220" y2="1220"/><text fill="#000000" font-family="sans-serif" font-size="14" lengthAdjust="spacing" textLength="161" x="1403.5" y="1236.9951">virtual void move() = 0</text><text fill="#000000" font-family="sans-serif" font-size="14" lengthAdjust="spacing" textLength="237" x="1403.5" y="1253.292">virtual void handleCollision()v=v0</text></g><!--class char1--><g id="elem_char1"><rect codeLine="107" fill="#F1F1F1" height="48" id="char1" rx="2.5" ry="2.5" style="stroke:#181818;stroke-width:0.5;" width="72" x="7" y="1518"/><ellipse cx="22" cy="1534" fill="#ADD1B2" rx="11" ry="11" style="stroke:#181818;stroke-width:1.0;"/><path d="M24.3438,1529.6719 C23.4063,1529.2344 22.8125,1529.0938 21.9375,1529.0938 C19.3125,1529.0938 17.3125,1531.1719 17.3125,1533.8906 L17.3125,1535.0156 C17.3125,1537.5938 19.4219,1539.4844 22.3125,1539.4844 C23.5313,1539.4844 24.6875,1539.1875 25.4375,1538.6406 C26.0156,1538.2344 26.3438,1537.7813 26.3438,1537.3906 C26.3438,1536.9375 25.9531,1536.5469 25.4844,1536.5469 C25.2656,1536.5469 25.0625,1536.625 24.875,1536.8125 C24.4219,1537.2969 24.4219,1537.2969 24.2344,1537.3906 C23.8125,1537.6563 23.125,1537.7813 22.3594,1537.7813 C20.3125,1537.7813 19.0156,1536.6875 19.0156,1534.9844 L19.0156,1533.8906 C19.0156,1532.1094 20.2656,1530.7969 22,1530.7969 C22.5781,1530.7969 23.1875,1530.9531 23.6563,1531.2031 C24.1406,1531.4844 24.3125,1531.7031 24.4063,1532.1094 C24.4688,1532.5156 24.5,1532.6406 24.6406,1532.7656 C24.7813,1532.9063 25.0156,1533.0156 25.2344,1533.0156 C25.5,1533.0156 25.7656,1532.875 25.9375,1532.6563 C26.0469,1532.5 26.0781,1532.3125 26.0781,1531.8906 L26.0781,1530.4688 C26.0781,1530.0313 26.0625,1529.9063 25.9688,1529.75 C25.8125,1529.4844 25.5313,1529.3438 25.2344,1529.3438 C24.9375,1529.3438 24.7344,1529.4375 24.5156,1529.75 L24.3438,1529.6719 Z " fill="#000000"/><text fill="#000000" font-family="sans-serif" font-size="14" lengthAdjust="spacing" textLength="40" x="36" y="1538.8467">char1</text><line style="stroke:#181818;stroke-width:0.5;" x1="8" x2="78" y1="1550" y2="1550"/><line style="stroke:#181818;stroke-width:0.5;" x1="8" x2="78" y1="1558" y2="1558"/></g><!--class char2--><g id="elem_char2"><rect codeLine="111" fill="#F1F1F1" height="48" id="char2" rx="2.5" ry="2.5" style="stroke:#181818;stroke-width:0.5;" width="71" x="114.5" y="1518"/><ellipse cx="129.5" cy="1534" fill="#ADD1B2" rx="11" ry="11" style="stroke:#181818;stroke-width:1.0;"/><path d="M131.8438,1529.6719 C130.9063,1529.2344 130.3125,1529.0938 129.4375,1529.0938 C126.8125,1529.0938 124.8125,1531.1719 124.8125,1533.8906 L124.8125,1535.0156 C124.8125,1537.5938 126.9219,1539.4844 129.8125,1539.4844 C131.0313,1539.4844 132.1875,1539.1875 132.9375,1538.6406 C133.5156,1538.2344 133.8438,1537.7813 133.8438,1537.3906 C133.8438,1536.9375 133.4531,1536.5469 132.9844,1536.5469 C132.7656,1536.5469 132.5625,1536.625 132.375,1536.8125 C131.9219,1537.2969 131.9219,1537.2969 131.7344,1537.3906 C131.3125,1537.6563 130.625,1537.7813 129.8594,1537.7813 C127.8125,1537.7813 126.5156,1536.6875 126.5156,1534.9844 L126.5156,1533.8906 C126.5156,1532.1094 127.7656,1530.7969 129.5,1530.7969 C130.0781,1530.7969 130.6875,1530.9531 131.1563,1531.2031 C131.6406,1531.4844 131.8125,1531.7031 131.9063,1532.1094 C131.9688,1532.5156 132,1532.6406 132.1406,1532.7656 C132.2813,1532.9063 132.5156,1533.0156 132.7344,1533.0156 C133,1533.0156 133.2656,1532.875 133.4375,1532.6563 C133.5469,1532.5 133.5781,1532.3125 133.5781,1531.8906 L133.5781,1530.4688 C133.5781,1530.0313 133.5625,1529.9063 133.4688,1529.75 C133.3125,1529.4844 133.0313,1529.3438 132.7344,1529.3438 C132.4375,1529.3438 132.2344,1529.4375 132.0156,1529.75 L131.8438,1529.6719 Z " fill="#000000"/><text fill="#000000" font-family="sans-serif" font-size="14" lengthAdjust="spacing" textLength="39" x="143.5" y="1538.8467">char2</text><line style="stroke:#181818;stroke-width:0.5;" x1="115.5" x2="184.5" y1="1550" y2="1550"/><line style="stroke:#181818;stroke-width:0.5;" x1="115.5" x2="184.5" y1="1558" y2="1558"/></g><!--class char3--><g id="elem_char3"><rect codeLine="115" fill="#F1F1F1" height="48" id="char3" rx="2.5" ry="2.5" style="stroke:#181818;stroke-width:0.5;" width="72" x="221" y="1518"/><ellipse cx="236" cy="1534" fill="#ADD1B2" rx="11" ry="11" style="stroke:#181818;stroke-width:1.0;"/><path d="M238.3438,1529.6719 C237.4063,1529.2344 236.8125,1529.0938 235.9375,1529.0938 C233.3125,1529.0938 231.3125,1531.1719 231.3125,1533.8906 L231.3125,1535.0156 C231.3125,1537.5938 233.4219,1539.4844 236.3125,1539.4844 C237.5313,1539.4844 238.6875,1539.1875 239.4375,1538.6406 C240.0156,1538.2344 240.3438,1537.7813 240.3438,1537.3906 C240.3438,1536.9375 239.9531,1536.5469 239.4844,1536.5469 C239.2656,1536.5469 239.0625,1536.625 238.875,1536.8125 C238.4219,1537.2969 238.4219,1537.2969 238.2344,1537.3906 C237.8125,1537.6563 237.125,1537.7813 236.3594,1537.7813 C234.3125,1537.7813 233.0156,1536.6875 233.0156,1534.9844 L233.0156,1533.8906 C233.0156,1532.1094 234.2656,1530.7969 236,1530.7969 C236.5781,1530.7969 237.1875,1530.9531 237.6563,1531.2031 C238.1406,1531.4844 238.3125,1531.7031 238.4063,1532.1094 C238.4688,1532.5156 238.5,1532.6406 238.6406,1532.7656 C238.7813,1532.9063 239.0156,1533.0156 239.2344,1533.0156 C239.5,1533.0156 239.7656,1532.875 239.9375,1532.6563 C240.0469,1532.5 240.0781,1532.3125 240.0781,1531.8906 L240.0781,1530.4688 C240.0781,1530.0313 240.0625,1529.9063 239.9688,1529.75 C239.8125,1529.4844 239.5313,1529.3438 239.2344,1529.3438 C238.9375,1529.3438 238.7344,1529.4375 238.5156,1529.75 L238.3438,1529.6719 Z " fill="#000000"/><text fill="#000000" font-family="sans-serif" font-size="14" lengthAdjust="spacing" textLength="40" x="250" y="1538.8467">char3</text><line style="stroke:#181818;stroke-width:0.5;" x1="222" x2="292" y1="1550" y2="1550"/><line style="stroke:#181818;stroke-width:0.5;" x1="222" x2="292" y1="1558" y2="1558"/></g><!--class easyEnemy--><g id="elem_easyEnemy"><rect codeLine="119" fill="#F1F1F1" height="80.5938" id="easyEnemy" rx="2.5" ry="2.5" style="stroke:#181818;stroke-width:0.5;" width="164" x="1142" y="1353"/><ellipse cx="1179.95" cy="1369" fill="#ADD1B2" rx="11" ry="11" style="stroke:#181818;stroke-width:1.0;"/><path d="M1182.2938,1364.6719 C1181.3563,1364.2344 1180.7625,1364.0938 1179.8875,1364.0938 C1177.2625,1364.0938 1175.2625,1366.1719 1175.2625,1368.8906 L1175.2625,1370.0156 C1175.2625,1372.5938 1177.3719,1374.4844 1180.2625,1374.4844 C1181.4813,1374.4844 1182.6375,1374.1875 1183.3875,1373.6406 C1183.9656,1373.2344 1184.2938,1372.7813 1184.2938,1372.3906 C1184.2938,1371.9375 1183.9031,1371.5469 1183.4344,1371.5469 C1183.2156,1371.5469 1183.0125,1371.625 1182.825,1371.8125 C1182.3719,1372.2969 1182.3719,1372.2969 1182.1844,1372.3906 C1181.7625,1372.6563 1181.075,1372.7813 1180.3094,1372.7813 C1178.2625,1372.7813 1176.9656,1371.6875 1176.9656,1369.9844 L1176.9656,1368.8906 C1176.9656,1367.1094 1178.2156,1365.7969 1179.95,1365.7969 C1180.5281,1365.7969 1181.1375,1365.9531 1181.6063,1366.2031 C1182.0906,1366.4844 1182.2625,1366.7031 1182.3563,1367.1094 C1182.4188,1367.5156 1182.45,1367.6406 1182.5906,1367.7656 C1182.7313,1367.9063 1182.9656,1368.0156 1183.1844,1368.0156 C1183.45,1368.0156 1183.7156,1367.875 1183.8875,1367.6563 C1183.9969,1367.5 1184.0281,1367.3125 1184.0281,1366.8906 L1184.0281,1365.4688 C1184.0281,1365.0313 1184.0125,1364.9063 1183.9188,1364.75 C1183.7625,1364.4844 1183.4813,1364.3438 1183.1844,1364.3438 C1182.8875,1364.3438 1182.6844,1364.4375 1182.4656,1364.75 L1182.2938,1364.6719 Z " fill="#000000"/><text fill="#000000" font-family="sans-serif" font-size="14" lengthAdjust="spacing" textLength="81" x="1199.05" y="1373.8467">easyEnemy</text><line style="stroke:#181818;stroke-width:0.5;" x1="1143" x2="1305" y1="1385" y2="1385"/><line style="stroke:#181818;stroke-width:0.5;" x1="1143" x2="1305" y1="1393" y2="1393"/><text fill="#000000" font-family="sans-serif" font-size="14" lengthAdjust="spacing" textLength="84" x="1148" y="1409.9951">void move()</text><text fill="#000000" font-family="sans-serif" font-size="14" lengthAdjust="spacing" textLength="152" x="1148" y="1426.292">void handleCollision()</text></g><!--class mediumEnemy--><g id="elem_mediumEnemy"><rect codeLine="125" fill="#F1F1F1" height="80.5938" id="mediumEnemy" rx="2.5" ry="2.5" style="stroke:#181818;stroke-width:0.5;" width="164" x="1341" y="1353"/><ellipse cx="1367.25" cy="1369" fill="#ADD1B2" rx="11" ry="11" style="stroke:#181818;stroke-width:1.0;"/><path d="M1369.5938,1364.6719 C1368.6563,1364.2344 1368.0625,1364.0938 1367.1875,1364.0938 C1364.5625,1364.0938 1362.5625,1366.1719 1362.5625,1368.8906 L1362.5625,1370.0156 C1362.5625,1372.5938 1364.6719,1374.4844 1367.5625,1374.4844 C1368.7813,1374.4844 1369.9375,1374.1875 1370.6875,1373.6406 C1371.2656,1373.2344 1371.5938,1372.7813 1371.5938,1372.3906 C1371.5938,1371.9375 1371.2031,1371.5469 1370.7344,1371.5469 C1370.5156,1371.5469 1370.3125,1371.625 1370.125,1371.8125 C1369.6719,1372.2969 1369.6719,1372.2969 1369.4844,1372.3906 C1369.0625,1372.6563 1368.375,1372.7813 1367.6094,1372.7813 C1365.5625,1372.7813 1364.2656,1371.6875 1364.2656,1369.9844 L1364.2656,1368.8906 C1364.2656,1367.1094 1365.5156,1365.7969 1367.25,1365.7969 C1367.8281,1365.7969 1368.4375,1365.9531 1368.9063,1366.2031 C1369.3906,1366.4844 1369.5625,1366.7031 1369.6563,1367.1094 C1369.7188,1367.5156 1369.75,1367.6406 1369.8906,1367.7656 C1370.0313,1367.9063 1370.2656,1368.0156 1370.4844,1368.0156 C1370.75,1368.0156 1371.0156,1367.875 1371.1875,1367.6563 C1371.2969,1367.5 1371.3281,1367.3125 1371.3281,1366.8906 L1371.3281,1365.4688 C1371.3281,1365.0313 1371.3125,1364.9063 1371.2188,1364.75 C1371.0625,1364.4844 1370.7813,1364.3438 1370.4844,1364.3438 C1370.1875,1364.3438 1369.9844,1364.4375 1369.7656,1364.75 L1369.5938,1364.6719 Z " fill="#000000"/><text fill="#000000" font-family="sans-serif" font-size="14" lengthAdjust="spacing" textLength="107" x="1383.75" y="1373.8467">mediumEnemy</text><line style="stroke:#181818;stroke-width:0.5;" x1="1342" x2="1504" y1="1385" y2="1385"/><line style="stroke:#181818;stroke-width:0.5;" x1="1342" x2="1504" y1="1393" y2="1393"/><text fill="#000000" font-family="sans-serif" font-size="14" lengthAdjust="spacing" textLength="84" x="1347" y="1409.9951">void move()</text><text fill="#000000" font-family="sans-serif" font-size="14" lengthAdjust="spacing" textLength="152" x="1347" y="1426.292">void handleCollision()</text></g><!--class HardEnemy--><g id="elem_HardEnemy"><rect codeLine="131" fill="#F1F1F1" height="80.5938" id="HardEnemy" rx="2.5" ry="2.5" style="stroke:#181818;stroke-width:0.5;" width="164" x="1540" y="1353"/><ellipse cx="1577.5" cy="1369" fill="#ADD1B2" rx="11" ry="11" style="stroke:#181818;stroke-width:1.0;"/><path d="M1579.8438,1364.6719 C1578.9063,1364.2344 1578.3125,1364.0938 1577.4375,1364.0938 C1574.8125,1364.0938 1572.8125,1366.1719 1572.8125,1368.8906 L1572.8125,1370.0156 C1572.8125,1372.5938 1574.9219,1374.4844 1577.8125,1374.4844 C1579.0313,1374.4844 1580.1875,1374.1875 1580.9375,1373.6406 C1581.5156,1373.2344 1581.8438,1372.7813 1581.8438,1372.3906 C1581.8438,1371.9375 1581.4531,1371.5469 1580.9844,1371.5469 C1580.7656,1371.5469 1580.5625,1371.625 1580.375,1371.8125 C1579.9219,1372.2969 1579.9219,1372.2969 1579.7344,1372.3906 C1579.3125,1372.6563 1578.625,1372.7813 1577.8594,1372.7813 C1575.8125,1372.7813 1574.5156,1371.6875 1574.5156,1369.9844 L1574.5156,1368.8906 C1574.5156,1367.1094 1575.7656,1365.7969 1577.5,1365.7969 C1578.0781,1365.7969 1578.6875,1365.9531 1579.1563,1366.2031 C1579.6406,1366.4844 1579.8125,1366.7031 1579.9063,1367.1094 C1579.9688,1367.5156 1580,1367.6406 1580.1406,1367.7656 C1580.2813,1367.9063 1580.5156,1368.0156 1580.7344,1368.0156 C1581,1368.0156 1581.2656,1367.875 1581.4375,1367.6563 C1581.5469,1367.5 1581.5781,1367.3125 1581.5781,1366.8906 L1581.5781,1365.4688 C1581.5781,1365.0313 1581.5625,1364.9063 1581.4688,1364.75 C1581.3125,1364.4844 1581.0313,1364.3438 1580.7344,1364.3438 C1580.4375,1364.3438 1580.2344,1364.4375 1580.0156,1364.75 L1579.8438,1364.6719 Z " fill="#000000"/><text fill="#000000" font-family="sans-serif" font-size="14" lengthAdjust="spacing" textLength="82" x="1596.5" y="1373.8467">HardEnemy</text><line style="stroke:#181818;stroke-width:0.5;" x1="1541" x2="1703" y1="1385" y2="1385"/><line style="stroke:#181818;stroke-width:0.5;" x1="1541" x2="1703" y1="1393" y2="1393"/><text fill="#000000" font-family="sans-serif" font-size="14" lengthAdjust="spacing" textLength="84" x="1546" y="1409.9951">void move()</text><text fill="#000000" font-family="sans-serif" font-size="14" lengthAdjust="spacing" textLength="152" x="1546" y="1426.292">void handleCollision()</text></g><!--class BossEnemy--><g id="elem_BossEnemy"><rect codeLine="137" fill="#F1F1F1" height="80.5938" id="BossEnemy" rx="2.5" ry="2.5" style="stroke:#181818;stroke-width:0.5;" width="164" x="1739" y="1353"/><ellipse cx="1776.5" cy="1369" fill="#ADD1B2" rx="11" ry="11" style="stroke:#181818;stroke-width:1.0;"/><path d="M1778.8438,1364.6719 C1777.9063,1364.2344 1777.3125,1364.0938 1776.4375,1364.0938 C1773.8125,1364.0938 1771.8125,1366.1719 1771.8125,1368.8906 L1771.8125,1370.0156 C1771.8125,1372.5938 1773.9219,1374.4844 1776.8125,1374.4844 C1778.0313,1374.4844 1779.1875,1374.1875 1779.9375,1373.6406 C1780.5156,1373.2344 1780.8438,1372.7813 1780.8438,1372.3906 C1780.8438,1371.9375 1780.4531,1371.5469 1779.9844,1371.5469 C1779.7656,1371.5469 1779.5625,1371.625 1779.375,1371.8125 C1778.9219,1372.2969 1778.9219,1372.2969 1778.7344,1372.3906 C1778.3125,1372.6563 1777.625,1372.7813 1776.8594,1372.7813 C1774.8125,1372.7813 1773.5156,1371.6875 1773.5156,1369.9844 L1773.5156,1368.8906 C1773.5156,1367.1094 1774.7656,1365.7969 1776.5,1365.7969 C1777.0781,1365.7969 1777.6875,1365.9531 1778.1563,1366.2031 C1778.6406,1366.4844 1778.8125,1366.7031 1778.9063,1367.1094 C1778.9688,1367.5156 1779,1367.6406 1779.1406,1367.7656 C1779.2813,1367.9063 1779.5156,1368.0156 1779.7344,1368.0156 C1780,1368.0156 1780.2656,1367.875 1780.4375,1367.6563 C1780.5469,1367.5 1780.5781,1367.3125 1780.5781,1366.8906 L1780.5781,1365.4688 C1780.5781,1365.0313 1780.5625,1364.9063 1780.4688,1364.75 C1780.3125,1364.4844 1780.0313,1364.3438 1779.7344,1364.3438 C1779.4375,1364.3438 1779.2344,1364.4375 1779.0156,1364.75 L1778.8438,1364.6719 Z " fill="#000000"/><text fill="#000000" font-family="sans-serif" font-size="14" lengthAdjust="spacing" textLength="82" x="1795.5" y="1373.8467">BossEnemy</text><line style="stroke:#181818;stroke-width:0.5;" x1="1740" x2="1902" y1="1385" y2="1385"/><line style="stroke:#181818;stroke-width:0.5;" x1="1740" x2="1902" y1="1393" y2="1393"/><text fill="#000000" font-family="sans-serif" font-size="14" lengthAdjust="spacing" textLength="84" x="1745" y="1409.9951">void move()</text><text fill="#000000" font-family="sans-serif" font-size="14" lengthAdjust="spacing" textLength="152" x="1745" y="1426.292">void handleCollision()</text></g><!--class Gift--><g id="elem_Gift"><rect codeLine="143" fill="#F1F1F1" height="96.8906" id="Gift" rx="2.5" ry="2.5" style="stroke:#181818;stroke-width:0.5;" width="143" x="2246.5" y="1172"/><ellipse cx="2299.75" cy="1188" fill="#ADD1B2" rx="11" ry="11" style="stroke:#181818;stroke-width:1.0;"/><path d="M2302.0938,1183.6719 C2301.1563,1183.2344 2300.5625,1183.0938 2299.6875,1183.0938 C2297.0625,1183.0938 2295.0625,1185.1719 2295.0625,1187.8906 L2295.0625,1189.0156 C2295.0625,1191.5938 2297.1719,1193.4844 2300.0625,1193.4844 C2301.2813,1193.4844 2302.4375,1193.1875 2303.1875,1192.6406 C2303.7656,1192.2344 2304.0938,1191.7813 2304.0938,1191.3906 C2304.0938,1190.9375 2303.7031,1190.5469 2303.2344,1190.5469 C2303.0156,1190.5469 2302.8125,1190.625 2302.625,1190.8125 C2302.1719,1191.2969 2302.1719,1191.2969 2301.9844,1191.3906 C2301.5625,1191.6563 2300.875,1191.7813 2300.1094,1191.7813 C2298.0625,1191.7813 2296.7656,1190.6875 2296.7656,1188.9844 L2296.7656,1187.8906 C2296.7656,1186.1094 2298.0156,1184.7969 2299.75,1184.7969 C2300.3281,1184.7969 2300.9375,1184.9531 2301.4063,1185.2031 C2301.8906,1185.4844 2302.0625,1185.7031 2302.1563,1186.1094 C2302.2188,1186.5156 2302.25,1186.6406 2302.3906,1186.7656 C2302.5313,1186.9063 2302.7656,1187.0156 2302.9844,1187.0156 C2303.25,1187.0156 2303.5156,1186.875 2303.6875,1186.6563 C2303.7969,1186.5 2303.8281,1186.3125 2303.8281,1185.8906 L2303.8281,1184.4688 C2303.8281,1184.0313 2303.8125,1183.9063 2303.7188,1183.75 C2303.5625,1183.4844 2303.2813,1183.3438 2302.9844,1183.3438 C2302.6875,1183.3438 2302.4844,1183.4375 2302.2656,1183.75 L2302.0938,1183.6719 Z " fill="#000000"/><text fill="#000000" font-family="sans-serif" font-size="14" lengthAdjust="spacing" textLength="28" x="2320.25" y="1192.8467">Gift</text><line style="stroke:#181818;stroke-width:0.5;" x1="2247.5" x2="2388.5" y1="1204" y2="1204"/><text fill="#000000" font-family="sans-serif" font-size="14" lengthAdjust="spacing" textLength="104" x="2252.5" y="1220.9951">bool activated</text><text fill="#000000" font-family="sans-serif" font-size="14" lengthAdjust="spacing" textLength="127" x="2252.5" y="1237.292">void setActivated</text><text fill="#000000" font-family="sans-serif" font-size="14" lengthAdjust="spacing" textLength="131" x="2252.5" y="1253.5889">bool getActivated</text><line style="stroke:#181818;stroke-width:0.5;" x1="2247.5" x2="2388.5" y1="1260.8906" y2="1260.8906"/></g><!--class coin--><g id="elem_coin"><rect codeLine="150" fill="#F1F1F1" height="64.2969" id="coin" rx="2.5" ry="2.5" style="stroke:#181818;stroke-width:0.5;" width="164" x="1938" y="1361.5"/><ellipse cx="2000.75" cy="1377.5" fill="#ADD1B2" rx="11" ry="11" style="stroke:#181818;stroke-width:1.0;"/><path d="M2003.0938,1373.1719 C2002.1563,1372.7344 2001.5625,1372.5938 2000.6875,1372.5938 C1998.0625,1372.5938 1996.0625,1374.6719 1996.0625,1377.3906 L1996.0625,1378.5156 C1996.0625,1381.0938 1998.1719,1382.9844 2001.0625,1382.9844 C2002.2813,1382.9844 2003.4375,1382.6875 2004.1875,1382.1406 C2004.7656,1381.7344 2005.0938,1381.2813 2005.0938,1380.8906 C2005.0938,1380.4375 2004.7031,1380.0469 2004.2344,1380.0469 C2004.0156,1380.0469 2003.8125,1380.125 2003.625,1380.3125 C2003.1719,1380.7969 2003.1719,1380.7969 2002.9844,1380.8906 C2002.5625,1381.1563 2001.875,1381.2813 2001.1094,1381.2813 C1999.0625,1381.2813 1997.7656,1380.1875 1997.7656,1378.4844 L1997.7656,1377.3906 C1997.7656,1375.6094 1999.0156,1374.2969 2000.75,1374.2969 C2001.3281,1374.2969 2001.9375,1374.4531 2002.4063,1374.7031 C2002.8906,1374.9844 2003.0625,1375.2031 2003.1563,1375.6094 C2003.2188,1376.0156 2003.25,1376.1406 2003.3906,1376.2656 C2003.5313,1376.4063 2003.7656,1376.5156 2003.9844,1376.5156 C2004.25,1376.5156 2004.5156,1376.375 2004.6875,1376.1563 C2004.7969,1376 2004.8281,1375.8125 2004.8281,1375.3906 L2004.8281,1373.9688 C2004.8281,1373.5313 2004.8125,1373.4063 2004.7188,1373.25 C2004.5625,1372.9844 2004.2813,1372.8438 2003.9844,1372.8438 C2003.6875,1372.8438 2003.4844,1372.9375 2003.2656,1373.25 L2003.0938,1373.1719 Z " fill="#000000"/><text fill="#000000" font-family="sans-serif" font-size="14" lengthAdjust="spacing" textLength="30" x="2021.25" y="1382.3467">coin</text><line style="stroke:#181818;stroke-width:0.5;" x1="1939" x2="2101" y1="1393.5" y2="1393.5"/><line style="stroke:#181818;stroke-width:0.5;" x1="1939" x2="2101" y1="1401.5" y2="1401.5"/><text fill="#000000" font-family="sans-serif" font-size="14" lengthAdjust="spacing" textLength="152" x="1944" y="1418.4951">void handleCollision()</text></g><!--class heart--><g id="elem_heart"><rect codeLine="155" fill="#F1F1F1" height="64.2969" id="heart" rx="2.5" ry="2.5" style="stroke:#181818;stroke-width:0.5;" width="164" x="2137" y="1361.5"/><ellipse cx="2195.25" cy="1377.5" fill="#ADD1B2" rx="11" ry="11" style="stroke:#181818;stroke-width:1.0;"/><path d="M2197.5938,1373.1719 C2196.6563,1372.7344 2196.0625,1372.5938 2195.1875,1372.5938 C2192.5625,1372.5938 2190.5625,1374.6719 2190.5625,1377.3906 L2190.5625,1378.5156 C2190.5625,1381.0938 2192.6719,1382.9844 2195.5625,1382.9844 C2196.7813,1382.9844 2197.9375,1382.6875 2198.6875,1382.1406 C2199.2656,1381.7344 2199.5938,1381.2813 2199.5938,1380.8906 C2199.5938,1380.4375 2199.2031,1380.0469 2198.7344,1380.0469 C2198.5156,1380.0469 2198.3125,1380.125 2198.125,1380.3125 C2197.6719,1380.7969 2197.6719,1380.7969 2197.4844,1380.8906 C2197.0625,1381.1563 2196.375,1381.2813 2195.6094,1381.2813 C2193.5625,1381.2813 2192.2656,1380.1875 2192.2656,1378.4844 L2192.2656,1377.3906 C2192.2656,1375.6094 2193.5156,1374.2969 2195.25,1374.2969 C2195.8281,1374.2969 2196.4375,1374.4531 2196.9063,1374.7031 C2197.3906,1374.9844 2197.5625,1375.2031 2197.6563,1375.6094 C2197.7188,1376.0156 2197.75,1376.1406 2197.8906,1376.2656 C2198.0313,1376.4063 2198.2656,1376.5156 2198.4844,1376.5156 C2198.75,1376.5156 2199.0156,1376.375 2199.1875,1376.1563 C2199.2969,1376 2199.3281,1375.8125 2199.3281,1375.3906 L2199.3281,1373.9688 C2199.3281,1373.5313 2199.3125,1373.4063 2199.2188,1373.25 C2199.0625,1372.9844 2198.7813,1372.8438 2198.4844,1372.8438 C2198.1875,1372.8438 2197.9844,1372.9375 2197.7656,1373.25 L2197.5938,1373.1719 Z " fill="#000000"/><text fill="#000000" font-family="sans-serif" font-size="14" lengthAdjust="spacing" textLength="39" x="2215.75" y="1382.3467">heart</text><line style="stroke:#181818;stroke-width:0.5;" x1="2138" x2="2300" y1="1393.5" y2="1393.5"/><line style="stroke:#181818;stroke-width:0.5;" x1="2138" x2="2300" y1="1401.5" y2="1401.5"/><text fill="#000000" font-family="sans-serif" font-size="14" lengthAdjust="spacing" textLength="152" x="2143" y="1418.4951">void handleCollision()</text></g><!--class WeaponBox--><g id="elem_WeaponBox"><rect codeLine="160" fill="#F1F1F1" height="64.2969" id="WeaponBox" rx="2.5" ry="2.5" style="stroke:#181818;stroke-width:0.5;" width="164" x="2336" y="1361.5"/><ellipse cx="2371.7" cy="1377.5" fill="#ADD1B2" rx="11" ry="11" style="stroke:#181818;stroke-width:1.0;"/><path d="M2374.0438,1373.1719 C2373.1063,1372.7344 2372.5125,1372.5938 2371.6375,1372.5938 C2369.0125,1372.5938 2367.0125,1374.6719 2367.0125,1377.3906 L2367.0125,1378.5156 C2367.0125,1381.0938 2369.1219,1382.9844 2372.0125,1382.9844 C2373.2313,1382.9844 2374.3875,1382.6875 2375.1375,1382.1406 C2375.7156,1381.7344 2376.0438,1381.2813 2376.0438,1380.8906 C2376.0438,1380.4375 2375.6531,1380.0469 2375.1844,1380.0469 C2374.9656,1380.0469 2374.7625,1380.125 2374.575,1380.3125 C2374.1219,1380.7969 2374.1219,1380.7969 2373.9344,1380.8906 C2373.5125,1381.1563 2372.825,1381.2813 2372.0594,1381.2813 C2370.0125,1381.2813 2368.7156,1380.1875 2368.7156,1378.4844 L2368.7156,1377.3906 C2368.7156,1375.6094 2369.9656,1374.2969 2371.7,1374.2969 C2372.2781,1374.2969 2372.8875,1374.4531 2373.3563,1374.7031 C2373.8406,1374.9844 2374.0125,1375.2031 2374.1063,1375.6094 C2374.1688,1376.0156 2374.2,1376.1406 2374.3406,1376.2656 C2374.4813,1376.4063 2374.7156,1376.5156 2374.9344,1376.5156 C2375.2,1376.5156 2375.4656,1376.375 2375.6375,1376.1563 C2375.7469,1376 2375.7781,1375.8125 2375.7781,1375.3906 L2375.7781,1373.9688 C2375.7781,1373.5313 2375.7625,1373.4063 2375.6688,1373.25 C2375.5125,1372.9844 2375.2313,1372.8438 2374.9344,1372.8438 C2374.6375,1372.8438 2374.4344,1372.9375 2374.2156,1373.25 L2374.0438,1373.1719 Z " fill="#000000"/><text fill="#000000" font-family="sans-serif" font-size="14" lengthAdjust="spacing" textLength="86" x="2390.3" y="1382.3467">WeaponBox</text><line style="stroke:#181818;stroke-width:0.5;" x1="2337" x2="2499" y1="1393.5" y2="1393.5"/><line style="stroke:#181818;stroke-width:0.5;" x1="2337" x2="2499" y1="1401.5" y2="1401.5"/><text fill="#000000" font-family="sans-serif" font-size="14" lengthAdjust="spacing" textLength="152" x="2342" y="1418.4951">void handleCollision()</text></g><!--class Weapon--><g id="elem_Weapon"><rect codeLine="165" fill="#F1F1F1" height="64.2969" id="Weapon" rx="2.5" ry="2.5" style="stroke:#181818;stroke-width:0.5;" width="164" x="2535" y="1361.5"/><ellipse cx="2583.25" cy="1377.5" fill="#ADD1B2" rx="11" ry="11" style="stroke:#181818;stroke-width:1.0;"/><path d="M2585.5938,1373.1719 C2584.6563,1372.7344 2584.0625,1372.5938 2583.1875,1372.5938 C2580.5625,1372.5938 2578.5625,1374.6719 2578.5625,1377.3906 L2578.5625,1378.5156 C2578.5625,1381.0938 2580.6719,1382.9844 2583.5625,1382.9844 C2584.7813,1382.9844 2585.9375,1382.6875 2586.6875,1382.1406 C2587.2656,1381.7344 2587.5938,1381.2813 2587.5938,1380.8906 C2587.5938,1380.4375 2587.2031,1380.0469 2586.7344,1380.0469 C2586.5156,1380.0469 2586.3125,1380.125 2586.125,1380.3125 C2585.6719,1380.7969 2585.6719,1380.7969 2585.4844,1380.8906 C2585.0625,1381.1563 2584.375,1381.2813 2583.6094,1381.2813 C2581.5625,1381.2813 2580.2656,1380.1875 2580.2656,1378.4844 L2580.2656,1377.3906 C2580.2656,1375.6094 2581.5156,1374.2969 2583.25,1374.2969 C2583.8281,1374.2969 2584.4375,1374.4531 2584.9063,1374.7031 C2585.3906,1374.9844 2585.5625,1375.2031 2585.6563,1375.6094 C2585.7188,1376.0156 2585.75,1376.1406 2585.8906,1376.2656 C2586.0313,1376.4063 2586.2656,1376.5156 2586.4844,1376.5156 C2586.75,1376.5156 2587.0156,1376.375 2587.1875,1376.1563 C2587.2969,1376 2587.3281,1375.8125 2587.3281,1375.3906 L2587.3281,1373.9688 C2587.3281,1373.5313 2587.3125,1373.4063 2587.2188,1373.25 C2587.0625,1372.9844 2586.7813,1372.8438 2586.4844,1372.8438 C2586.1875,1372.8438 2585.9844,1372.9375 2585.7656,1373.25 L2585.5938,1373.1719 Z " fill="#000000"/><text fill="#000000" font-family="sans-serif" font-size="14" lengthAdjust="spacing" textLength="59" x="2603.75" y="1382.3467">Weapon</text><line style="stroke:#181818;stroke-width:0.5;" x1="2536" x2="2698" y1="1393.5" y2="1393.5"/><line style="stroke:#181818;stroke-width:0.5;" x1="2536" x2="2698" y1="1401.5" y2="1401.5"/><text fill="#000000" font-family="sans-serif" font-size="14" lengthAdjust="spacing" textLength="152" x="2541" y="1418.4951">void handleCollision()</text></g><!--class Shield--><g id="elem_Shield"><rect codeLine="170" fill="#F1F1F1" height="64.2969" id="Shield" rx="2.5" ry="2.5" style="stroke:#181818;stroke-width:0.5;" width="164" x="2734" y="1361.5"/><ellipse cx="2789.75" cy="1377.5" fill="#ADD1B2" rx="11" ry="11" style="stroke:#181818;stroke-width:1.0;"/><path d="M2792.0938,1373.1719 C2791.1563,1372.7344 2790.5625,1372.5938 2789.6875,1372.5938 C2787.0625,1372.5938 2785.0625,1374.6719 2785.0625,1377.3906 L2785.0625,1378.5156 C2785.0625,1381.0938 2787.1719,1382.9844 2790.0625,1382.9844 C2791.2813,1382.9844 2792.4375,1382.6875 2793.1875,1382.1406 C2793.7656,1381.7344 2794.0938,1381.2813 2794.0938,1380.8906 C2794.0938,1380.4375 2793.7031,1380.0469 2793.2344,1380.0469 C2793.0156,1380.0469 2792.8125,1380.125 2792.625,1380.3125 C2792.1719,1380.7969 2792.1719,1380.7969 2791.9844,1380.8906 C2791.5625,1381.1563 2790.875,1381.2813 2790.1094,1381.2813 C2788.0625,1381.2813 2786.7656,1380.1875 2786.7656,1378.4844 L2786.7656,1377.3906 C2786.7656,1375.6094 2788.0156,1374.2969 2789.75,1374.2969 C2790.3281,1374.2969 2790.9375,1374.4531 2791.4063,1374.7031 C2791.8906,1374.9844 2792.0625,1375.2031 2792.1563,1375.6094 C2792.2188,1376.0156 2792.25,1376.1406 2792.3906,1376.2656 C2792.5313,1376.4063 2792.7656,1376.5156 2792.9844,1376.5156 C2793.25,1376.5156 2793.5156,1376.375 2793.6875,1376.1563 C2793.7969,1376 2793.8281,1375.8125 2793.8281,1375.3906 L2793.8281,1373.9688 C2793.8281,1373.5313 2793.8125,1373.4063 2793.7188,1373.25 C2793.5625,1372.9844 2793.2813,1372.8438 2792.9844,1372.8438 C2792.6875,1372.8438 2792.4844,1372.9375 2792.2656,1373.25 L2792.0938,1373.1719 Z " fill="#000000"/><text fill="#000000" font-family="sans-serif" font-size="14" lengthAdjust="spacing" textLength="44" x="2810.25" y="1382.3467">Shield</text><line style="stroke:#181818;stroke-width:0.5;" x1="2735" x2="2897" y1="1393.5" y2="1393.5"/><line style="stroke:#181818;stroke-width:0.5;" x1="2735" x2="2897" y1="1401.5" y2="1401.5"/><text fill="#000000" font-family="sans-serif" font-size="14" lengthAdjust="spacing" textLength="152" x="2740" y="1418.4951">void handleCollision()</text></g><!--class Wall--><g id="elem_Wall"><rect codeLine="175" fill="#F1F1F1" height="64.2969" id="Wall" rx="2.5" ry="2.5" style="stroke:#181818;stroke-width:0.5;" width="164" x="2425" y="1188.5"/><ellipse cx="2487.75" cy="1204.5" fill="#ADD1B2" rx="11" ry="11" style="stroke:#181818;stroke-width:1.0;"/><path d="M2490.0938,1200.1719 C2489.1563,1199.7344 2488.5625,1199.5938 2487.6875,1199.5938 C2485.0625,1199.5938 2483.0625,1201.6719 2483.0625,1204.3906 L2483.0625,1205.5156 C2483.0625,1208.0938 2485.1719,1209.9844 2488.0625,1209.9844 C2489.2813,1209.9844 2490.4375,1209.6875 2491.1875,1209.1406 C2491.7656,1208.7344 2492.0938,1208.2813 2492.0938,1207.8906 C2492.0938,1207.4375 2491.7031,1207.0469 2491.2344,1207.0469 C2491.0156,1207.0469 2490.8125,1207.125 2490.625,1207.3125 C2490.1719,1207.7969 2490.1719,1207.7969 2489.9844,1207.8906 C2489.5625,1208.1563 2488.875,1208.2813 2488.1094,1208.2813 C2486.0625,1208.2813 2484.7656,1207.1875 2484.7656,1205.4844 L2484.7656,1204.3906 C2484.7656,1202.6094 2486.0156,1201.2969 2487.75,1201.2969 C2488.3281,1201.2969 2488.9375,1201.4531 2489.4063,1201.7031 C2489.8906,1201.9844 2490.0625,1202.2031 2490.1563,1202.6094 C2490.2188,1203.0156 2490.25,1203.1406 2490.3906,1203.2656 C2490.5313,1203.4063 2490.7656,1203.5156 2490.9844,1203.5156 C2491.25,1203.5156 2491.5156,1203.375 2491.6875,1203.1563 C2491.7969,1203 2491.8281,1202.8125 2491.8281,1202.3906 L2491.8281,1200.9688 C2491.8281,1200.5313 2491.8125,1200.4063 2491.7188,1200.25 C2491.5625,1199.9844 2491.2813,1199.8438 2490.9844,1199.8438 C2490.6875,1199.8438 2490.4844,1199.9375 2490.2656,1200.25 L2490.0938,1200.1719 Z " fill="#000000"/><text fill="#000000" font-family="sans-serif" font-size="14" lengthAdjust="spacing" textLength="30" x="2508.25" y="1209.3467">Wall</text><line style="stroke:#181818;stroke-width:0.5;" x1="2426" x2="2588" y1="1220.5" y2="1220.5"/><line style="stroke:#181818;stroke-width:0.5;" x1="2426" x2="2588" y1="1228.5" y2="1228.5"/><text fill="#000000" font-family="sans-serif" font-size="14" lengthAdjust="spacing" textLength="152" x="2431" y="1245.4951">void handleCollision()</text></g><!--class Recources--><g id="elem_Recources"><rect codeLine="180" fill="#F1F1F1" height="64.2969" id="Recources" rx="2.5" ry="2.5" style="stroke:#181818;stroke-width:0.5;" width="106" x="344" y="113"/><ellipse cx="359" cy="129" fill="#ADD1B2" rx="11" ry="11" style="stroke:#181818;stroke-width:1.0;"/><path d="M361.3438,124.6719 C360.4063,124.2344 359.8125,124.0938 358.9375,124.0938 C356.3125,124.0938 354.3125,126.1719 354.3125,128.8906 L354.3125,130.0156 C354.3125,132.5938 356.4219,134.4844 359.3125,134.4844 C360.5313,134.4844 361.6875,134.1875 362.4375,133.6406 C363.0156,133.2344 363.3438,132.7813 363.3438,132.3906 C363.3438,131.9375 362.9531,131.5469 362.4844,131.5469 C362.2656,131.5469 362.0625,131.625 361.875,131.8125 C361.4219,132.2969 361.4219,132.2969 361.2344,132.3906 C360.8125,132.6563 360.125,132.7813 359.3594,132.7813 C357.3125,132.7813 356.0156,131.6875 356.0156,129.9844 L356.0156,128.8906 C356.0156,127.1094 357.2656,125.7969 359,125.7969 C359.5781,125.7969 360.1875,125.9531 360.6563,126.2031 C361.1406,126.4844 361.3125,126.7031 361.4063,127.1094 C361.4688,127.5156 361.5,127.6406 361.6406,127.7656 C361.7813,127.9063 362.0156,128.0156 362.2344,128.0156 C362.5,128.0156 362.7656,127.875 362.9375,127.6563 C363.0469,127.5 363.0781,127.3125 363.0781,126.8906 L363.0781,125.4688 C363.0781,125.0313 363.0625,124.9063 362.9688,124.75 C362.8125,124.4844 362.5313,124.3438 362.2344,124.3438 C361.9375,124.3438 361.7344,124.4375 361.5156,124.75 L361.3438,124.6719 Z " fill="#000000"/><text fill="#000000" font-family="sans-serif" font-size="14" lengthAdjust="spacing" textLength="74" x="373" y="133.8467">Recources</text><line style="stroke:#181818;stroke-width:0.5;" x1="345" x2="449" y1="145" y2="145"/><text fill="#000000" font-family="sans-serif" font-size="14" lengthAdjust="spacing" textLength="58" x="350" y="161.9951">singlton</text><line style="stroke:#181818;stroke-width:0.5;" x1="345" x2="449" y1="169.2969" y2="169.2969"/></g><!--class Animation--><g id="elem_Animation"><rect codeLine="185" fill="#F1F1F1" height="96.8906" id="Animation" rx="2.5" ry="2.5" style="stroke:#181818;stroke-width:0.5;" width="583" x="485.5" y="96.5"/><ellipse cx="735.75" cy="112.5" fill="#ADD1B2" rx="11" ry="11" style="stroke:#181818;stroke-width:1.0;"/><path d="M738.0938,108.1719 C737.1563,107.7344 736.5625,107.5938 735.6875,107.5938 C733.0625,107.5938 731.0625,109.6719 731.0625,112.3906 L731.0625,113.5156 C731.0625,116.0938 733.1719,117.9844 736.0625,117.9844 C737.2813,117.9844 738.4375,117.6875 739.1875,117.1406 C739.7656,116.7344 740.0938,116.2813 740.0938,115.8906 C740.0938,115.4375 739.7031,115.0469 739.2344,115.0469 C739.0156,115.0469 738.8125,115.125 738.625,115.3125 C738.1719,115.7969 738.1719,115.7969 737.9844,115.8906 C737.5625,116.1563 736.875,116.2813 736.1094,116.2813 C734.0625,116.2813 732.7656,115.1875 732.7656,113.4844 L732.7656,112.3906 C732.7656,110.6094 734.0156,109.2969 735.75,109.2969 C736.3281,109.2969 736.9375,109.4531 737.4063,109.7031 C737.8906,109.9844 738.0625,110.2031 738.1563,110.6094 C738.2188,111.0156 738.25,111.1406 738.3906,111.2656 C738.5313,111.4063 738.7656,111.5156 738.9844,111.5156 C739.25,111.5156 739.5156,111.375 739.6875,111.1563 C739.7969,111 739.8281,110.8125 739.8281,110.3906 L739.8281,108.9688 C739.8281,108.5313 739.8125,108.4063 739.7188,108.25 C739.5625,107.9844 739.2813,107.8438 738.9844,107.8438 C738.6875,107.8438 738.4844,107.9375 738.2656,108.25 L738.0938,108.1719 Z " fill="#000000"/><text fill="#000000" font-family="sans-serif" font-size="14" lengthAdjust="spacing" textLength="74" x="756.25" y="117.3467">Animation</text><line style="stroke:#181818;stroke-width:0.5;" x1="486.5" x2="1067.5" y1="128.5" y2="128.5"/><line style="stroke:#181818;stroke-width:0.5;" x1="486.5" x2="1067.5" y1="136.5" y2="136.5"/><text fill="#000000" font-family="sans-serif" font-size="14" lengthAdjust="spacing" textLength="571" x="491.5" y="153.4951">Animation(const AnimationData&amp; data, Direction dir, sf::Sprite&amp; sprite, int ob);</text><text fill="#000000" font-family="sans-serif" font-size="14" lengthAdjust="spacing" textLength="204" x="491.5" y="169.792">void direction(Direction dir);</text><text fill="#000000" font-family="sans-serif" font-size="14" lengthAdjust="spacing" textLength="200" x="491.5" y="186.0889">void update(sf::Time delta);</text></g><!--class Button--><g id="elem_Button"><rect codeLine="192" fill="#F1F1F1" height="276.1563" id="Button" rx="2.5" ry="2.5" style="stroke:#181818;stroke-width:0.5;" width="711" x="1103.5" y="7"/><ellipse cx="1429.75" cy="23" fill="#ADD1B2" rx="11" ry="11" style="stroke:#181818;stroke-width:1.0;"/><path d="M1432.0938,18.6719 C1431.1563,18.2344 1430.5625,18.0938 1429.6875,18.0938 C1427.0625,18.0938 1425.0625,20.1719 1425.0625,22.8906 L1425.0625,24.0156 C1425.0625,26.5938 1427.1719,28.4844 1430.0625,28.4844 C1431.2813,28.4844 1432.4375,28.1875 1433.1875,27.6406 C1433.7656,27.2344 1434.0938,26.7813 1434.0938,26.3906 C1434.0938,25.9375 1433.7031,25.5469 1433.2344,25.5469 C1433.0156,25.5469 1432.8125,25.625 1432.625,25.8125 C1432.1719,26.2969 1432.1719,26.2969 1431.9844,26.3906 C1431.5625,26.6563 1430.875,26.7813 1430.1094,26.7813 C1428.0625,26.7813 1426.7656,25.6875 1426.7656,23.9844 L1426.7656,22.8906 C1426.7656,21.1094 1428.0156,19.7969 1429.75,19.7969 C1430.3281,19.7969 1430.9375,19.9531 1431.4063,20.2031 C1431.8906,20.4844 1432.0625,20.7031 1432.1563,21.1094 C1432.2188,21.5156 1432.25,21.6406 1432.3906,21.7656 C1432.5313,21.9063 1432.7656,22.0156 1432.9844,22.0156 C1433.25,22.0156 1433.5156,21.875 1433.6875,21.6563 C1433.7969,21.5 1433.8281,21.3125 1433.8281,20.8906 L1433.8281,19.4688 C1433.8281,19.0313 1433.8125,18.9063 1433.7188,18.75 C1433.5625,18.4844 1433.2813,18.3438 1432.9844,18.3438 C1432.6875,18.3438 1432.4844,18.4375 1432.2656,18.75 L1432.0938,18.6719 Z " fill="#000000"/><text fill="#000000" font-family="sans-serif" font-size="14" lengthAdjust="spacing" textLength="50" x="1450.25" y="27.8467">Button</text><line style="stroke:#181818;stroke-width:0.5;" x1="1104.5" x2="1813.5" y1="39" y2="39"/><line style="stroke:#181818;stroke-width:0.5;" x1="1104.5" x2="1813.5" y1="47" y2="47"/><text fill="#000000" font-family="sans-serif" font-size="14" lengthAdjust="spacing" textLength="699" x="1109.5" y="63.9951">Button(std::string text, sf::Vector2f shapeSize, int textSize, sf::Color bgcolor, sf::Color textColor</text><text fill="#000000" font-family="sans-serif" font-size="14" lengthAdjust="spacing" textLength="288" x="1109.5" y="80.292">, sf::Vector2f pos, const sf::Font&amp; font);</text><text fill="#000000" font-family="sans-serif" font-size="14" lengthAdjust="spacing" textLength="251" x="1109.5" y="96.5889">void setFont(const sf::Font&amp; font);</text><text fill="#000000" font-family="sans-serif" font-size="14" lengthAdjust="spacing" textLength="104" x="1109.5" y="112.8857">void setBold();</text><text fill="#000000" font-family="sans-serif" font-size="14" lengthAdjust="spacing" textLength="246" x="1109.5" y="129.1826">void setBackColor(sf::Color color);</text><text fill="#000000" font-family="sans-serif" font-size="14" lengthAdjust="spacing" textLength="244" x="1109.5" y="145.4795">void setTextColor(sf::Color color);</text><text fill="#000000" font-family="sans-serif" font-size="14" lengthAdjust="spacing" textLength="246" x="1109.5" y="161.7764">void setPosition(sf::Vector2f pos);</text><text fill="#000000" font-family="sans-serif" font-size="14" lengthAdjust="spacing" textLength="601" x="1109.5" y="178.0732">void setButtonInfo(std::string text, sf::Vector2f size, int charSize, sf::Color bgcolor,</text><text fill="#000000" font-family="sans-serif" font-size="14" lengthAdjust="spacing" textLength="422" x="1109.5" y="194.3701">sf::Color textColor, sf::Vector2f pos, const sf::Font&amp; font);</text><text fill="#000000" font-family="sans-serif" font-size="14" lengthAdjust="spacing" textLength="298" x="1109.5" y="210.667">sf::RectangleShape getbuttonBg() const;</text><text fill="#000000" font-family="sans-serif" font-size="14" lengthAdjust="spacing" textLength="168" x="1109.5" y="226.9639">sf::Text getext() const;</text><text fill="#000000" font-family="sans-serif" font-size="14" lengthAdjust="spacing" textLength="300" x="1109.5" y="243.2607">void drawTo(sf::RenderWindow&amp; window);</text><text fill="#000000" font-family="sans-serif" font-size="14" lengthAdjust="spacing" textLength="4" x="1109.5" y="259.5576">&#160;</text><text fill="#000000" font-family="sans-serif" font-size="14" lengthAdjust="spacing" textLength="340" x="1109.5" y="275.8545">bool isMouseOver(sf::RenderWindow&amp; window);</text></g><!--class Direction--><g id="elem_Direction"><rect codeLine="212" fill="#F1F1F1" height="80.5938" id="Direction" rx="2.5" ry="2.5" style="stroke:#181818;stroke-width:0.5;" width="272" x="261" y="383.5"/><ellipse cx="359.25" cy="399.5" fill="#ADD1B2" rx="11" ry="11" style="stroke:#181818;stroke-width:1.0;"/><path d="M361.5938,395.1719 C360.6563,394.7344 360.0625,394.5938 359.1875,394.5938 C356.5625,394.5938 354.5625,396.6719 354.5625,399.3906 L354.5625,400.5156 C354.5625,403.0938 356.6719,404.9844 359.5625,404.9844 C360.7813,404.9844 361.9375,404.6875 362.6875,404.1406 C363.2656,403.7344 363.5938,403.2813 363.5938,402.8906 C363.5938,402.4375 363.2031,402.0469 362.7344,402.0469 C362.5156,402.0469 362.3125,402.125 362.125,402.3125 C361.6719,402.7969 361.6719,402.7969 361.4844,402.8906 C361.0625,403.1563 360.375,403.2813 359.6094,403.2813 C357.5625,403.2813 356.2656,402.1875 356.2656,400.4844 L356.2656,399.3906 C356.2656,397.6094 357.5156,396.2969 359.25,396.2969 C359.8281,396.2969 360.4375,396.4531 360.9063,396.7031 C361.3906,396.9844 361.5625,397.2031 361.6563,397.6094 C361.7188,398.0156 361.75,398.1406 361.8906,398.2656 C362.0313,398.4063 362.2656,398.5156 362.4844,398.5156 C362.75,398.5156 363.0156,398.375 363.1875,398.1563 C363.2969,398 363.3281,397.8125 363.3281,397.3906 L363.3281,395.9688 C363.3281,395.5313 363.3125,395.4063 363.2188,395.25 C363.0625,394.9844 362.7813,394.8438 362.4844,394.8438 C362.1875,394.8438 361.9844,394.9375 361.7656,395.25 L361.5938,395.1719 Z " fill="#000000"/><text fill="#000000" font-family="sans-serif" font-size="14" lengthAdjust="spacing" textLength="67" x="379.75" y="404.3467">Direction</text><line style="stroke:#181818;stroke-width:0.5;" x1="262" x2="532" y1="415.5" y2="415.5"/><line style="stroke:#181818;stroke-width:0.5;" x1="262" x2="532" y1="423.5" y2="423.5"/><text fill="#000000" font-family="sans-serif" font-size="14" lengthAdjust="spacing" textLength="241" x="267" y="440.4951">Direction opposite(Direction dir);</text><text fill="#000000" font-family="sans-serif" font-size="14" lengthAdjust="spacing" textLength="260" x="267" y="456.792">sf::Vector2f toVector(Direction dir);</text></g><!--class CollisionHandling--><g id="elem_CollisionHandling"><rect codeLine="218" fill="#F1F1F1" height="64.2969" id="CollisionHandling" rx="2.5" ry="2.5" style="stroke:#181818;stroke-width:0.5;" width="508" x="568" y="392"/><ellipse cx="756.75" cy="408" fill="#ADD1B2" rx="11" ry="11" style="stroke:#181818;stroke-width:1.0;"/><path d="M759.0938,403.6719 C758.1563,403.2344 757.5625,403.0938 756.6875,403.0938 C754.0625,403.0938 752.0625,405.1719 752.0625,407.8906 L752.0625,409.0156 C752.0625,411.5938 754.1719,413.4844 757.0625,413.4844 C758.2813,413.4844 759.4375,413.1875 760.1875,412.6406 C760.7656,412.2344 761.0938,411.7813 761.0938,411.3906 C761.0938,410.9375 760.7031,410.5469 760.2344,410.5469 C760.0156,410.5469 759.8125,410.625 759.625,410.8125 C759.1719,411.2969 759.1719,411.2969 758.9844,411.3906 C758.5625,411.6563 757.875,411.7813 757.1094,411.7813 C755.0625,411.7813 753.7656,410.6875 753.7656,408.9844 L753.7656,407.8906 C753.7656,406.1094 755.0156,404.7969 756.75,404.7969 C757.3281,404.7969 757.9375,404.9531 758.4063,405.2031 C758.8906,405.4844 759.0625,405.7031 759.1563,406.1094 C759.2188,406.5156 759.25,406.6406 759.3906,406.7656 C759.5313,406.9063 759.7656,407.0156 759.9844,407.0156 C760.25,407.0156 760.5156,406.875 760.6875,406.6563 C760.7969,406.5 760.8281,406.3125 760.8281,405.8906 L760.8281,404.4688 C760.8281,404.0313 760.8125,403.9063 760.7188,403.75 C760.5625,403.4844 760.2813,403.3438 759.9844,403.3438 C759.6875,403.3438 759.4844,403.4375 759.2656,403.75 L759.0938,403.6719 Z " fill="#000000"/><text fill="#000000" font-family="sans-serif" font-size="14" lengthAdjust="spacing" textLength="122" x="777.25" y="412.8467">CollisionHandling</text><line style="stroke:#181818;stroke-width:0.5;" x1="569" x2="1075" y1="424" y2="424"/><line style="stroke:#181818;stroke-width:0.5;" x1="569" x2="1075" y1="432" y2="432"/><text fill="#000000" font-family="sans-serif" font-size="14" lengthAdjust="spacing" textLength="496" x="574" y="448.9951">void processCollision(GameObject&amp; object1, GameObject&amp; object2);</text></g><!--class FirstPlayer--><g id="elem_FirstPlayer"><rect codeLine="223" fill="#F1F1F1" height="113.1875" id="FirstPlayer" rx="2.5" ry="2.5" style="stroke:#181818;stroke-width:0.5;" width="398" x="276" y="1337"/><ellipse cx="432.75" cy="1353" fill="#ADD1B2" rx="11" ry="11" style="stroke:#181818;stroke-width:1.0;"/><path d="M435.0938,1348.6719 C434.1563,1348.2344 433.5625,1348.0938 432.6875,1348.0938 C430.0625,1348.0938 428.0625,1350.1719 428.0625,1352.8906 L428.0625,1354.0156 C428.0625,1356.5938 430.1719,1358.4844 433.0625,1358.4844 C434.2813,1358.4844 435.4375,1358.1875 436.1875,1357.6406 C436.7656,1357.2344 437.0938,1356.7813 437.0938,1356.3906 C437.0938,1355.9375 436.7031,1355.5469 436.2344,1355.5469 C436.0156,1355.5469 435.8125,1355.625 435.625,1355.8125 C435.1719,1356.2969 435.1719,1356.2969 434.9844,1356.3906 C434.5625,1356.6563 433.875,1356.7813 433.1094,1356.7813 C431.0625,1356.7813 429.7656,1355.6875 429.7656,1353.9844 L429.7656,1352.8906 C429.7656,1351.1094 431.0156,1349.7969 432.75,1349.7969 C433.3281,1349.7969 433.9375,1349.9531 434.4063,1350.2031 C434.8906,1350.4844 435.0625,1350.7031 435.1563,1351.1094 C435.2188,1351.5156 435.25,1351.6406 435.3906,1351.7656 C435.5313,1351.9063 435.7656,1352.0156 435.9844,1352.0156 C436.25,1352.0156 436.5156,1351.875 436.6875,1351.6563 C436.7969,1351.5 436.8281,1351.3125 436.8281,1350.8906 L436.8281,1349.4688 C436.8281,1349.0313 436.8125,1348.9063 436.7188,1348.75 C436.5625,1348.4844 436.2813,1348.3438 435.9844,1348.3438 C435.6875,1348.3438 435.4844,1348.4375 435.2656,1348.75 L435.0938,1348.6719 Z " fill="#000000"/><text fill="#000000" font-family="sans-serif" font-size="14" lengthAdjust="spacing" textLength="76" x="453.25" y="1357.8467">FirstPlayer</text><line style="stroke:#181818;stroke-width:0.5;" x1="277" x2="673" y1="1369" y2="1369"/><line style="stroke:#181818;stroke-width:0.5;" x1="277" x2="673" y1="1377" y2="1377"/><text fill="#000000" font-family="sans-serif" font-size="14" lengthAdjust="spacing" textLength="214" x="282" y="1393.9951">FirstPlayer(const sf::Sprite&amp;);</text><text fill="#000000" font-family="sans-serif" font-size="14" lengthAdjust="spacing" textLength="4" x="282" y="1410.292">&#160;</text><text fill="#000000" font-family="sans-serif" font-size="14" lengthAdjust="spacing" textLength="159" x="282" y="1426.5889">void update(sf::Time);</text><text fill="#000000" font-family="sans-serif" font-size="14" lengthAdjust="spacing" textLength="386" x="282" y="1442.8857">virtual void direction(sf::Keyboard::Key key) override;</text></g><!--class SecondPlayer--><g id="elem_SecondPlayer"><rect codeLine="231" fill="#F1F1F1" height="113.1875" id="SecondPlayer" rx="2.5" ry="2.5" style="stroke:#181818;stroke-width:0.5;" width="398" x="709" y="1337"/><ellipse cx="855.25" cy="1353" fill="#ADD1B2" rx="11" ry="11" style="stroke:#181818;stroke-width:1.0;"/><path d="M857.5938,1348.6719 C856.6563,1348.2344 856.0625,1348.0938 855.1875,1348.0938 C852.5625,1348.0938 850.5625,1350.1719 850.5625,1352.8906 L850.5625,1354.0156 C850.5625,1356.5938 852.6719,1358.4844 855.5625,1358.4844 C856.7813,1358.4844 857.9375,1358.1875 858.6875,1357.6406 C859.2656,1357.2344 859.5938,1356.7813 859.5938,1356.3906 C859.5938,1355.9375 859.2031,1355.5469 858.7344,1355.5469 C858.5156,1355.5469 858.3125,1355.625 858.125,1355.8125 C857.6719,1356.2969 857.6719,1356.2969 857.4844,1356.3906 C857.0625,1356.6563 856.375,1356.7813 855.6094,1356.7813 C853.5625,1356.7813 852.2656,1355.6875 852.2656,1353.9844 L852.2656,1352.8906 C852.2656,1351.1094 853.5156,1349.7969 855.25,1349.7969 C855.8281,1349.7969 856.4375,1349.9531 856.9063,1350.2031 C857.3906,1350.4844 857.5625,1350.7031 857.6563,1351.1094 C857.7188,1351.5156 857.75,1351.6406 857.8906,1351.7656 C858.0313,1351.9063 858.2656,1352.0156 858.4844,1352.0156 C858.75,1352.0156 859.0156,1351.875 859.1875,1351.6563 C859.2969,1351.5 859.3281,1351.3125 859.3281,1350.8906 L859.3281,1349.4688 C859.3281,1349.0313 859.3125,1348.9063 859.2188,1348.75 C859.0625,1348.4844 858.7813,1348.3438 858.4844,1348.3438 C858.1875,1348.3438 857.9844,1348.4375 857.7656,1348.75 L857.5938,1348.6719 Z " fill="#000000"/><text fill="#000000" font-family="sans-serif" font-size="14" lengthAdjust="spacing" textLength="97" x="875.75" y="1357.8467">SecondPlayer</text><line style="stroke:#181818;stroke-width:0.5;" x1="710" x2="1106" y1="1369" y2="1369"/><line style="stroke:#181818;stroke-width:0.5;" x1="710" x2="1106" y1="1377" y2="1377"/><text fill="#000000" font-family="sans-serif" font-size="14" lengthAdjust="spacing" textLength="235" x="715" y="1393.9951">SecondPlayer(const sf::Sprite&amp;);</text><text fill="#000000" font-family="sans-serif" font-size="14" lengthAdjust="spacing" textLength="4" x="715" y="1410.292">&#160;</text><text fill="#000000" font-family="sans-serif" font-size="14" lengthAdjust="spacing" textLength="159" x="715" y="1426.5889">void update(sf::Time);</text><text fill="#000000" font-family="sans-serif" font-size="14" lengthAdjust="spacing" textLength="386" x="715" y="1442.8857">virtual void direction(sf::Keyboard::Key key) override;</text></g><!--class io--><g id="elem_io"><rect codeLine="239" fill="#F1F1F1" height="64.2969" id="io" rx="2.5" ry="2.5" style="stroke:#181818;stroke-width:0.5;" width="248" x="1111" y="392"/><ellipse cx="1224.25" cy="408" fill="#ADD1B2" rx="11" ry="11" style="stroke:#181818;stroke-width:1.0;"/><path d="M1226.5938,403.6719 C1225.6563,403.2344 1225.0625,403.0938 1224.1875,403.0938 C1221.5625,403.0938 1219.5625,405.1719 1219.5625,407.8906 L1219.5625,409.0156 C1219.5625,411.5938 1221.6719,413.4844 1224.5625,413.4844 C1225.7813,413.4844 1226.9375,413.1875 1227.6875,412.6406 C1228.2656,412.2344 1228.5938,411.7813 1228.5938,411.3906 C1228.5938,410.9375 1228.2031,410.5469 1227.7344,410.5469 C1227.5156,410.5469 1227.3125,410.625 1227.125,410.8125 C1226.6719,411.2969 1226.6719,411.2969 1226.4844,411.3906 C1226.0625,411.6563 1225.375,411.7813 1224.6094,411.7813 C1222.5625,411.7813 1221.2656,410.6875 1221.2656,408.9844 L1221.2656,407.8906 C1221.2656,406.1094 1222.5156,404.7969 1224.25,404.7969 C1224.8281,404.7969 1225.4375,404.9531 1225.9063,405.2031 C1226.3906,405.4844 1226.5625,405.7031 1226.6563,406.1094 C1226.7188,406.5156 1226.75,406.6406 1226.8906,406.7656 C1227.0313,406.9063 1227.2656,407.0156 1227.4844,407.0156 C1227.75,407.0156 1228.0156,406.875 1228.1875,406.6563 C1228.2969,406.5 1228.3281,406.3125 1228.3281,405.8906 L1228.3281,404.4688 C1228.3281,404.0313 1228.3125,403.9063 1228.2188,403.75 C1228.0625,403.4844 1227.7813,403.3438 1227.4844,403.3438 C1227.1875,403.3438 1226.9844,403.4375 1226.7656,403.75 L1226.5938,403.6719 Z " fill="#000000"/><text fill="#000000" font-family="sans-serif" font-size="14" lengthAdjust="spacing" textLength="13" x="1244.75" y="412.8467">io</text><line style="stroke:#181818;stroke-width:0.5;" x1="1112" x2="1358" y1="424" y2="424"/><text fill="#000000" font-family="sans-serif" font-size="14" lengthAdjust="spacing" textLength="236" x="1117" y="440.9951">contains some enums and consts</text><line style="stroke:#181818;stroke-width:0.5;" x1="1112" x2="1358" y1="448.2969" y2="448.2969"/></g><!--class SinglePlayerTB--><g id="elem_SinglePlayerTB"><rect fill="#F1F1F1" height="48" id="SinglePlayerTB" rx="2.5" ry="2.5" style="stroke:#181818;stroke-width:0.5;" width="139" x="3066.5" y="400"/><ellipse cx="3081.5" cy="416" fill="#ADD1B2" rx="11" ry="11" style="stroke:#181818;stroke-width:1.0;"/><path d="M3083.8438,411.6719 C3082.9063,411.2344 3082.3125,411.0938 3081.4375,411.0938 C3078.8125,411.0938 3076.8125,413.1719 3076.8125,415.8906 L3076.8125,417.0156 C3076.8125,419.5938 3078.9219,421.4844 3081.8125,421.4844 C3083.0313,421.4844 3084.1875,421.1875 3084.9375,420.6406 C3085.5156,420.2344 3085.8438,419.7813 3085.8438,419.3906 C3085.8438,418.9375 3085.4531,418.5469 3084.9844,418.5469 C3084.7656,418.5469 3084.5625,418.625 3084.375,418.8125 C3083.9219,419.2969 3083.9219,419.2969 3083.7344,419.3906 C3083.3125,419.6563 3082.625,419.7813 3081.8594,419.7813 C3079.8125,419.7813 3078.5156,418.6875 3078.5156,416.9844 L3078.5156,415.8906 C3078.5156,414.1094 3079.7656,412.7969 3081.5,412.7969 C3082.0781,412.7969 3082.6875,412.9531 3083.1563,413.2031 C3083.6406,413.4844 3083.8125,413.7031 3083.9063,414.1094 C3083.9688,414.5156 3084,414.6406 3084.1406,414.7656 C3084.2813,414.9063 3084.5156,415.0156 3084.7344,415.0156 C3085,415.0156 3085.2656,414.875 3085.4375,414.6563 C3085.5469,414.5 3085.5781,414.3125 3085.5781,413.8906 L3085.5781,412.4688 C3085.5781,412.0313 3085.5625,411.9063 3085.4688,411.75 C3085.3125,411.4844 3085.0313,411.3438 3084.7344,411.3438 C3084.4375,411.3438 3084.2344,411.4375 3084.0156,411.75 L3083.8438,411.6719 Z " fill="#000000"/><text fill="#000000" font-family="sans-serif" font-size="14" lengthAdjust="spacing" textLength="107" x="3095.5" y="420.8467">SinglePlayerTB</text><line style="stroke:#181818;stroke-width:0.5;" x1="3067.5" x2="3204.5" y1="432" y2="432"/><line style="stroke:#181818;stroke-width:0.5;" x1="3067.5" x2="3204.5" y1="440" y2="440"/></g><!--class MultiPlayerTB--><g id="elem_MultiPlayerTB"><rect fill="#F1F1F1" height="48" id="MultiPlayerTB" rx="2.5" ry="2.5" style="stroke:#181818;stroke-width:0.5;" width="130" x="3241" y="400"/><ellipse cx="3256" cy="416" fill="#ADD1B2" rx="11" ry="11" style="stroke:#181818;stroke-width:1.0;"/><path d="M3258.3438,411.6719 C3257.4063,411.2344 3256.8125,411.0938 3255.9375,411.0938 C3253.3125,411.0938 3251.3125,413.1719 3251.3125,415.8906 L3251.3125,417.0156 C3251.3125,419.5938 3253.4219,421.4844 3256.3125,421.4844 C3257.5313,421.4844 3258.6875,421.1875 3259.4375,420.6406 C3260.0156,420.2344 3260.3438,419.7813 3260.3438,419.3906 C3260.3438,418.9375 3259.9531,418.5469 3259.4844,418.5469 C3259.2656,418.5469 3259.0625,418.625 3258.875,418.8125 C3258.4219,419.2969 3258.4219,419.2969 3258.2344,419.3906 C3257.8125,419.6563 3257.125,419.7813 3256.3594,419.7813 C3254.3125,419.7813 3253.0156,418.6875 3253.0156,416.9844 L3253.0156,415.8906 C3253.0156,414.1094 3254.2656,412.7969 3256,412.7969 C3256.5781,412.7969 3257.1875,412.9531 3257.6563,413.2031 C3258.1406,413.4844 3258.3125,413.7031 3258.4063,414.1094 C3258.4688,414.5156 3258.5,414.6406 3258.6406,414.7656 C3258.7813,414.9063 3259.0156,415.0156 3259.2344,415.0156 C3259.5,415.0156 3259.7656,414.875 3259.9375,414.6563 C3260.0469,414.5 3260.0781,414.3125 3260.0781,413.8906 L3260.0781,412.4688 C3260.0781,412.0313 3260.0625,411.9063 3259.9688,411.75 C3259.8125,411.4844 3259.5313,411.3438 3259.2344,411.3438 C3258.9375,411.3438 3258.7344,411.4375 3258.5156,411.75 L3258.3438,411.6719 Z " fill="#000000"/><text fill="#000000" font-family="sans-serif" font-size="14" lengthAdjust="spacing" textLength="98" x="3270" y="420.8467">MultiPlayerTB</text><line style="stroke:#181818;stroke-width:0.5;" x1="3242" x2="3370" y1="432" y2="432"/><line style="stroke:#181818;stroke-width:0.5;" x1="3242" x2="3370" y1="440" y2="440"/></g><!--reverse link Menu to MainMenu--><g id="link_Menu_MainMenu"><path codeLine="243" d="M2757.16,480.55 C2887.01,535.54 3083.71,618.85 3206.61,670.899 " fill="none" id="Menu-backto-MainMenu" style="stroke:#181818;stroke-width:1.0;"/><polygon fill="none" points="2754.18,486.89,2738.5,472.65,2759.64,474,2754.18,486.89" style="stroke:#181818;stroke-width:1.0;"/></g><!--reverse link Menu to StartMenu--><g id="link_Menu_StartMenu"><path codeLine="244" d="M2607.91,492.21 C2593.24,546.73 2572.92,622.217 2559.86,670.711 " fill="none" id="Menu-backto-StartMenu" style="stroke:#181818;stroke-width:1.0;"/><polygon fill="none" points="2601.17,490.3,2613.13,472.81,2614.69,493.94,2601.17,490.3" style="stroke:#181818;stroke-width:1.0;"/></g><!--reverse link ToolBar to SinglePlayerTB--><g id="link_ToolBar_SinglePlayerTB"><path codeLine="245" d="M3200.42,213.07 C3181.86,273.53 3155.63,359.02 3143.15,399.71 " fill="none" id="ToolBar-backto-SinglePlayerTB" style="stroke:#181818;stroke-width:1.0;"/><polygon fill="none" points="3193.83,210.68,3206.39,193.62,3207.21,214.79,3193.83,210.68" style="stroke:#181818;stroke-width:1.0;"/></g><!--reverse link ToolBar to MultiPlayerTB--><g id="link_ToolBar_MultiPlayerTB"><path codeLine="246" d="M3241.58,213.07 C3260.14,273.53 3286.37,359.02 3298.85,399.71 " fill="none" id="ToolBar-backto-MultiPlayerTB" style="stroke:#181818;stroke-width:1.0;"/><polygon fill="none" points="3234.79,214.79,3235.61,193.62,3248.17,210.68,3234.79,214.79" style="stroke:#181818;stroke-width:1.0;"/></g><!--reverse link GameObject to StaticObject--><g id="link_GameObject_StaticObject"><path codeLine="247" d="M2081.06,842.508 C2121.47,873.123 2164.06,905.381 2201.8,933.975 " fill="none" id="GameObject-backto-StaticObject" style="stroke:#181818;stroke-width:1.0;"/><polygon fill="none" points="2076.81,848.071,2065.09,830.415,2085.26,836.912,2076.81,848.071" style="stroke:#181818;stroke-width:1.0;"/></g><!--reverse link GameObject to MovingObject--><g id="link_GameObject_MovingObject"><path codeLine="248" d="M1758.94,842.508 C1718.53,873.123 1675.94,905.381 1638.2,933.975 " fill="none" id="GameObject-backto-MovingObject" style="stroke:#181818;stroke-width:1.0;"/><polygon fill="none" points="1754.74,836.912,1774.91,830.415,1763.19,848.071,1754.74,836.912" style="stroke:#181818;stroke-width:1.0;"/></g><!--reverse link MovingObject to Player--><g id="link_MovingObject_Player"><path codeLine="249" d="M1321.05,1071.333 C1184.46,1103.506 1005.27,1145.712 873.093,1176.845 " fill="none" id="MovingObject-backto-Player" style="stroke:#181818;stroke-width:1.0;"/><polygon fill="none" points="1319.81,1064.434,1340.88,1066.662,1323.02,1078.061,1319.81,1064.434" style="stroke:#181818;stroke-width:1.0;"/></g><!--reverse link MovingObject to Enemy--><g id="link_MovingObject_Enemy"><path codeLine="250" d="M1522,1132.095 C1522,1149.13 1522,1165.742 1522,1179.829 " fill="none" id="MovingObject-backto-Enemy" style="stroke:#181818;stroke-width:1.0;"/><polygon fill="none" points="1515,1132.028,1522,1112.027,1529,1132.027,1515,1132.028" style="stroke:#181818;stroke-width:1.0;"/></g><!--reverse link Character to char1--><g id="link_Character_char1"><path codeLine="251" d="M91.3799,1474.7603 C79.8892,1490.4929 68.7164,1505.7902 60.008,1517.7133 " fill="none" id="Character-backto-char1" style="stroke:#181818;stroke-width:1.0;"/><polygon fill="none" points="85.9305,1470.3531,103.3795,1458.331,97.2361,1478.6104,85.9305,1470.3531" style="stroke:#181818;stroke-width:1.0;"/></g><!--reverse link Character to char2--><g id="link_Character_char2"><path codeLine="252" d="M150,1478.7238 C150,1493.0453 150,1506.7942 150,1517.7133 " fill="none" id="Character-backto-char2" style="stroke:#181818;stroke-width:1.0;"/><polygon fill="none" points="143,1478.3309,150,1458.331,157,1478.3308,143,1478.3309" style="stroke:#181818;stroke-width:1.0;"/></g><!--reverse link Character to char3--><g id="link_Character_char3"><path codeLine="253" d="M208.62,1474.7603 C220.111,1490.4929 231.284,1505.7902 239.992,1517.7133 " fill="none" id="Character-backto-char3" style="stroke:#181818;stroke-width:1.0;"/><polygon fill="none" points="202.764,1478.6104,196.62,1458.331,214.07,1470.3531,202.764,1478.6104" style="stroke:#181818;stroke-width:1.0;"/></g><!--reverse link StaticObject to Wall--><g id="link_StaticObject_Wall"><path codeLine="254" d="M2417.3,1126.718 C2438.91,1149.072 2460.19,1171.078 2476.59,1188.045 " fill="none" id="StaticObject-backto-Wall" style="stroke:#181818;stroke-width:1.0;"/><polygon fill="none" points="2411.97,1131.272,2403.1,1112.027,2422.03,1121.541,2411.97,1131.272" style="stroke:#181818;stroke-width:1.0;"/></g><!--reverse link StaticObject to Gift--><g id="link_StaticObject_Gift"><path codeLine="255" d="M2318,1132.337 C2318,1146.148 2318,1159.675 2318,1171.795 " fill="none" id="StaticObject-backto-Gift" style="stroke:#181818;stroke-width:1.0;"/><polygon fill="none" points="2311,1132.028,2318,1112.027,2325,1132.027,2311,1132.028" style="stroke:#181818;stroke-width:1.0;"/></g><!--reverse link Gift to WeaponBox--><g id="link_Gift_WeaponBox"><path codeLine="256" d="M2356.15,1286.738 C2371.11,1312.321 2387.57,1340.472 2399.75,1361.294 " fill="none" id="Gift-backto-WeaponBox" style="stroke:#181818;stroke-width:1.0;"/><polygon fill="none" points="2349.91,1289.931,2345.86,1269.133,2361.99,1282.864,2349.91,1289.931" style="stroke:#181818;stroke-width:1.0;"/></g><!--reverse link Gift to Weapon--><g id="link_Gift_Weapon"><path codeLine="257" d="M2407.2,1269.316 C2454.87,1294.936 2506,1322.544 2517,1329 C2534.38,1339.198 2553.11,1350.893 2569.61,1361.446 " fill="none" id="Gift-backto-Weapon" style="stroke:#181818;stroke-width:1.0;"/><polygon fill="none" points="2403.84,1275.457,2389.54,1259.827,2410.47,1263.124,2403.84,1275.457" style="stroke:#181818;stroke-width:1.0;"/></g><!--reverse link Gift to heart--><g id="link_Gift_heart"><path codeLine="258" d="M2280.23,1286.738 C2265.42,1312.321 2249.12,1340.472 2237.07,1361.294 " fill="none" id="Gift-backto-heart" style="stroke:#181818;stroke-width:1.0;"/><polygon fill="none" points="2274.34,1282.934,2290.42,1269.133,2286.46,1289.949,2274.34,1282.934" style="stroke:#181818;stroke-width:1.0;"/></g><!--reverse link Gift to coin--><g id="link_Gift_coin"><path codeLine="259" d="M2228.31,1268.113 C2193.81,1286.516 2154.27,1308.204 2119,1329 C2101.76,1339.164 2083.21,1350.852 2066.89,1361.408 " fill="none" id="Gift-backto-coin" style="stroke:#181818;stroke-width:1.0;"/><polygon fill="none" points="2225.41,1261.724,2246.36,1258.532,2231.98,1274.091,2225.41,1261.724" style="stroke:#181818;stroke-width:1.0;"/></g><!--reverse link Gift to Shield--><g id="link_Gift_Shield"><path codeLine="260" d="M2408.65,1268.568 C2543.15,1312.577 2591.73,1279.542 2716,1329 C2736.45,1337.137 2757.27,1349.565 2774.58,1361.276 " fill="none" id="Gift-backto-Shield" style="stroke:#181818;stroke-width:1.0;"/><polygon fill="none" points="2406.18,1275.121,2389.55,1261.995,2410.74,1261.882,2406.18,1275.121" style="stroke:#181818;stroke-width:1.0;"/></g><!--reverse link Enemy to easyEnemy--><g id="link_Enemy_easyEnemy"><path codeLine="261" d="M1427.61,1270.621 C1394.26,1288.47 1356.68,1309.141 1323,1329 C1310.25,1336.52 1296.78,1344.873 1284.02,1352.985 " fill="none" id="Enemy-backto-easyEnemy" style="stroke:#181818;stroke-width:1.0;"/><polygon fill="none" points="1424.71,1264.234,1445.66,1261.018,1431.29,1276.593,1424.71,1264.234" style="stroke:#181818;stroke-width:1.0;"/></g><!--reverse link Enemy to mediumEnemy--><g id="link_Enemy_mediumEnemy"><path codeLine="262" d="M1488.98,1278.542 C1474.88,1302.885 1458.78,1330.702 1446.01,1352.759 " fill="none" id="Enemy-backto-mediumEnemy" style="stroke:#181818;stroke-width:1.0;"/><polygon fill="none" points="1482.96,1274.962,1499.04,1261.161,1495.08,1281.976,1482.96,1274.962" style="stroke:#181818;stroke-width:1.0;"/></g><!--reverse link Enemy to HardEnemy--><g id="link_Enemy_HardEnemy"><path codeLine="263" d="M1555.36,1278.542 C1569.59,1302.885 1585.86,1330.702 1598.76,1352.759 " fill="none" id="Enemy-backto-HardEnemy" style="stroke:#181818;stroke-width:1.0;"/><polygon fill="none" points="1549.25,1281.959,1545.19,1261.161,1561.33,1274.892,1549.25,1281.959" style="stroke:#181818;stroke-width:1.0;"/></g><!--reverse link Enemy to BossEnemy--><g id="link_Enemy_BossEnemy"><path codeLine="264" d="M1616.34,1270.707 C1649.69,1288.563 1687.28,1309.218 1721,1329 C1733.77,1336.492 1747.27,1344.793 1760.07,1352.855 " fill="none" id="Enemy-backto-BossEnemy" style="stroke:#181818;stroke-width:1.0;"/><polygon fill="none" points="1612.66,1276.678,1598.3,1261.097,1619.24,1264.322,1612.66,1276.678" style="stroke:#181818;stroke-width:1.0;"/></g><!--reverse link Player to FirstPlayer--><g id="link_Player_FirstPlayer"><path codeLine="265" d="M615.741,1281.594 C592.891,1299.599 567.944,1319.259 545.484,1336.957 " fill="none" id="Player-backto-FirstPlayer" style="stroke:#181818;stroke-width:1.0;"/><polygon fill="none" points="611.512,1276.014,631.553,1269.133,620.177,1287.01,611.512,1276.014" style="stroke:#181818;stroke-width:1.0;"/></g><!--reverse link Player to SecondPlayer--><g id="link_Player_SecondPlayer"><path codeLine="266" d="M767.908,1281.594 C790.652,1299.599 815.484,1319.259 837.841,1336.957 " fill="none" id="Player-backto-SecondPlayer" style="stroke:#181818;stroke-width:1.0;"/><polygon fill="none" points="763.504,1287.035,752.168,1269.133,772.194,1276.059,763.504,1287.035" style="stroke:#181818;stroke-width:1.0;"/></g><!--link Controller to Board--><g id="link_Controller_Board"><path codeLine="268" d="M2121.12,209.55 C2083.8,249.16 2035.44,300.48 1995.5,342.87 " fill="none" id="Controller-Board" style="stroke:#181818;stroke-width:1.0;"/></g><!--link Controller to Menu--><g id="link_Controller_Menu"><path codeLine="269" d="M2283.09,209.55 C2364.18,260.02 2475.79,329.5 2549.37,375.3 " fill="none" id="Controller-Menu" style="stroke:#181818;stroke-width:1.0;"/></g><!--link Player to Character--><g id="link_Player_Character"><path codeLine="270" d="M510.94,1254.117 C431.637,1271.496 338.504,1296.175 258,1329 C252.26,1331.341 246.459,1333.947 240.683,1336.731 " fill="none" id="Player-Character" style="stroke:#181818;stroke-width:1.0;"/></g><!--link Board to GameObject--><g id="link_Board_GameObject"><path codeLine="271" d="M1920,505.2 C1920,523.79 1920,544.18 1920,564.75 " fill="none" id="Board-GameObject" style="stroke:#181818;stroke-width:1.0;"/></g><!--SRC=[tHXTRzisyBdw5NmovC45rlGjNH_gf6s68MZHUEjZG4jqp4KI1P9owwtTRzyTIP4dMN4-iErX1XAJn_k-uztHHSMDOMUgiLfLbT3PdnaZstmEsvsI9TDTapPRtfIL-4Niruhhqi7DvlJqasXAeJ_BfbHVVc0tmlfbFcU5QenzrPCRoxLzpskHprzbtxEiS4eiaPUJxrQvepdak_3Cc6piF7Ai-QtuiFvT53QG-SrgtmepwocGrMy0LVfaCqkqfUPVycGodZnp1rrRSYi-LdmljCcHUYLh4OzBgO6PL0t5w7tYLcmZjR4BTdXW1AXK8gkrKXNeLrMo53dwn6i-Otp1w7OTvJfa0tAzzxppLi1coNtuTbBRZbUC674XU6Mt48ZNxCTfZC-2jyZoRemp9HiJ47gnbwBfK6QFVbR9ubQKoyvQrOGqSJ0IpRSxqTZJqqlL6U4H7MJ617uj9ZBfY_jsaj49L3KluaBjXFu0V_b3YOUAbjAq44IqvZuECLslC8bx- -7pxveEgZ_IOAHuWfKffIwvR99z_plpqkL20zEEs7FLQcc5BmWXR_uYY9WHfTZmhh9WGFQCa63nyyiytbiJGGaH3prXNvYGygCoqheBtXVEo24UKPevIeyOMkmciLYh3Cexa4O9eiI-o65nFEBD3CpOGN4ufUQp-jgunLXQVTqIOK0TSqtjP7EJmi7QRWt11Qxqv9xG3519SCOrmvUpLD2dwaeixXDL_LRi0yt8-Zlj_9vgXfK5DJFIkpvGNvUY4kYtB3g0qamwe8-Ke-ojxpiBnFVS7T1cSRRbcXSsT7laviF52ZXW08BUYgeL0jQEJTTK2gzQxE32_Xf0EIBCUyIRWuDUgE-IJg9V7e_cFnofNektZQZtj6FvyG7gJUXi4ztbB3NStUjTQdxehHV0AxO419oC0IyfG72pZofGsSF9YaXCjBKePLS_bVe2dF9KsgKovgcqx-N6fxfB3yWwb_0qaTuGM9z32PPy2UD7adz4ubP0OtuGffzvbkhh8x0VX7grbQ8g7yQLLzM343_1oDZfGXZ0Db3dAknvwVXD8skErm2PnKsuOt5_pYsVCRXKC5sUznS7hz22taFcoy72rG65a-VugWreu_dekc99idmmuljEZIhwPMuiN5LZDHZ4hFWQXeHOICsMj-9A_X5qGGo_Gonmaz9iVLFWDmKXcbkvmGm_8xRG2UcZu9t28MMZmeiYVFhynDFy27AFjrHLcOzXlBXrckH9EwVk26_LQtmFth76ZdZPG7Fluv-RZRhNpz75MBBkSd7qpOIhd-9XFrSKbaCsYoiCDTxzjTDwUKEVZHuNlOGOy3Kyp4Z4S69PgOEPPKPc5iHrbKOQDwjEJfepEZA6_8rf3ncShe1gMmoBEBWL0uzOvPS7M95xlFONM0KWKY35cTHg1VVUfB907uRAVRyOlXOzy8HoVuTlqTY4oUxOK35km8zklZZ8QtZQqeUJU_j6JUZslrP5Agn58DJ2MySmew1emVEXDWmYu1FC03O-ATXFtvu_Js-Y14hlmF063s0iqU77WzLoU7O9GwcCHobkaM4Q4iU7Wq6PRlnnyEhXWM_VSV3pG3_0J01Ffe0lCwgPXxlkTGXsJH__1QpOPySm0l1jE-rTlq_Rq5AT7HwIPYa2f4CI0QVfXm3JMEFTvg7qdb3u86spz7iHSvpmfwiXpAL4O03RD7CxP0IbsFuD]--></g></svg>