<?xml version="1.0" encoding="us-ascii" standalone="no"?><svg xmlns="http://www.w3.org/2000/svg" xmlns:xlink="http://www.w3.org/1999/xlink" contentStyleType="text/css" height="1084px" preserveAspectRatio="none" style="width:2284px;height:1084px;background:#FFFFFF;" version="1.1" viewBox="0 0 2284 1084" width="2284px" zoomAndPan="magnify"><defs/><g><!--class Controller--><g id="elem_Controller"><rect codeLine="1" fill="#F1F1F1" height="129.4844" id="Controller" rx="2.5" ry="2.5" style="stroke:#181818;stroke-width:0.5;" width="173" x="1131.5" y="7"/><ellipse cx="1177.25" cy="23" fill="#ADD1B2" rx="11" ry="11" style="stroke:#181818;stroke-width:1.0;"/><path d="M1179.5938,18.6719 C1178.6563,18.2344 1178.0625,18.0938 1177.1875,18.0938 C1174.5625,18.0938 1172.5625,20.1719 1172.5625,22.8906 L1172.5625,24.0156 C1172.5625,26.5938 1174.6719,28.4844 1177.5625,28.4844 C1178.7813,28.4844 1179.9375,28.1875 1180.6875,27.6406 C1181.2656,27.2344 1181.5938,26.7813 1181.5938,26.3906 C1181.5938,25.9375 1181.2031,25.5469 1180.7344,25.5469 C1180.5156,25.5469 1180.3125,25.625 1180.125,25.8125 C1179.6719,26.2969 1179.6719,26.2969 1179.4844,26.3906 C1179.0625,26.6563 1178.375,26.7813 1177.6094,26.7813 C1175.5625,26.7813 1174.2656,25.6875 1174.2656,23.9844 L1174.2656,22.8906 C1174.2656,21.1094 1175.5156,19.7969 1177.25,19.7969 C1177.8281,19.7969 1178.4375,19.9531 1178.9063,20.2031 C1179.3906,20.4844 1179.5625,20.7031 1179.6563,21.1094 C1179.7188,21.5156 1179.75,21.6406 1179.8906,21.7656 C1180.0313,21.9063 1180.2656,22.0156 1180.4844,22.0156 C1180.75,22.0156 1181.0156,21.875 1181.1875,21.6563 C1181.2969,21.5 1181.3281,21.3125 1181.3281,20.8906 L1181.3281,19.4688 C1181.3281,19.0313 1181.3125,18.9063 1181.2188,18.75 C1181.0625,18.4844 1180.7813,18.3438 1180.4844,18.3438 C1180.1875,18.3438 1179.9844,18.4375 1179.7656,18.75 L1179.5938,18.6719 Z " fill="#000000"/><text fill="#000000" font-family="sans-serif" font-size="14" lengthAdjust="spacing" textLength="73" x="1197.75" y="27.8467">Controller</text><line style="stroke:#181818;stroke-width:0.5;" x1="1132.5" x2="1303.5" y1="39" y2="39"/><line style="stroke:#181818;stroke-width:0.5;" x1="1132.5" x2="1303.5" y1="47" y2="47"/><text fill="#000000" font-family="sans-serif" font-size="14" lengthAdjust="spacing" textLength="83" x="1137.5" y="63.9951">Controller()</text><text fill="#000000" font-family="sans-serif" font-size="14" lengthAdjust="spacing" textLength="67" x="1137.5" y="80.292">void run()</text><text fill="#000000" font-family="sans-serif" font-size="14" lengthAdjust="spacing" textLength="161" x="1137.5" y="96.5889">void handleKeyboard()</text><text fill="#000000" font-family="sans-serif" font-size="14" lengthAdjust="spacing" textLength="137" x="1137.5" y="112.8857">void hanldeMouse()</text><text fill="#000000" font-family="sans-serif" font-size="14" lengthAdjust="spacing" textLength="109" x="1137.5" y="129.1826">void setBoard()</text></g><!--class Board--><g id="elem_Board"><rect codeLine="10" fill="#F1F1F1" height="80.5938" id="Board" rx="2.5" ry="2.5" style="stroke:#181818;stroke-width:0.5;" width="149" x="952.5" y="196"/><ellipse cx="1001.75" cy="212" fill="#ADD1B2" rx="11" ry="11" style="stroke:#181818;stroke-width:1.0;"/><path d="M1004.0938,207.6719 C1003.1563,207.2344 1002.5625,207.0938 1001.6875,207.0938 C999.0625,207.0938 997.0625,209.1719 997.0625,211.8906 L997.0625,213.0156 C997.0625,215.5938 999.1719,217.4844 1002.0625,217.4844 C1003.2813,217.4844 1004.4375,217.1875 1005.1875,216.6406 C1005.7656,216.2344 1006.0938,215.7813 1006.0938,215.3906 C1006.0938,214.9375 1005.7031,214.5469 1005.2344,214.5469 C1005.0156,214.5469 1004.8125,214.625 1004.625,214.8125 C1004.1719,215.2969 1004.1719,215.2969 1003.9844,215.3906 C1003.5625,215.6563 1002.875,215.7813 1002.1094,215.7813 C1000.0625,215.7813 998.7656,214.6875 998.7656,212.9844 L998.7656,211.8906 C998.7656,210.1094 1000.0156,208.7969 1001.75,208.7969 C1002.3281,208.7969 1002.9375,208.9531 1003.4063,209.2031 C1003.8906,209.4844 1004.0625,209.7031 1004.1563,210.1094 C1004.2188,210.5156 1004.25,210.6406 1004.3906,210.7656 C1004.5313,210.9063 1004.7656,211.0156 1004.9844,211.0156 C1005.25,211.0156 1005.5156,210.875 1005.6875,210.6563 C1005.7969,210.5 1005.8281,210.3125 1005.8281,209.8906 L1005.8281,208.4688 C1005.8281,208.0313 1005.8125,207.9063 1005.7188,207.75 C1005.5625,207.4844 1005.2813,207.3438 1004.9844,207.3438 C1004.6875,207.3438 1004.4844,207.4375 1004.2656,207.75 L1004.0938,207.6719 Z " fill="#000000"/><text fill="#000000" font-family="sans-serif" font-size="14" lengthAdjust="spacing" textLength="42" x="1022.25" y="216.8467">Board</text><line style="stroke:#181818;stroke-width:0.5;" x1="953.5" x2="1100.5" y1="228" y2="228"/><line style="stroke:#181818;stroke-width:0.5;" x1="953.5" x2="1100.5" y1="236" y2="236"/><text fill="#000000" font-family="sans-serif" font-size="14" lengthAdjust="spacing" textLength="52" x="958.5" y="252.9951">Board()</text><text fill="#000000" font-family="sans-serif" font-size="14" lengthAdjust="spacing" textLength="137" x="958.5" y="269.292">void updateBoard()</text></g><!--class ToolBar--><g id="elem_ToolBar"><rect codeLine="15" fill="#F1F1F1" height="96.8906" id="ToolBar" rx="2.5" ry="2.5" style="stroke:#181818;stroke-width:0.5;" width="243" x="1559.5" y="23"/><ellipse cx="1649.25" cy="39" fill="#ADD1B2" rx="11" ry="11" style="stroke:#181818;stroke-width:1.0;"/><path d="M1651.5938,34.6719 C1650.6563,34.2344 1650.0625,34.0938 1649.1875,34.0938 C1646.5625,34.0938 1644.5625,36.1719 1644.5625,38.8906 L1644.5625,40.0156 C1644.5625,42.5938 1646.6719,44.4844 1649.5625,44.4844 C1650.7813,44.4844 1651.9375,44.1875 1652.6875,43.6406 C1653.2656,43.2344 1653.5938,42.7813 1653.5938,42.3906 C1653.5938,41.9375 1653.2031,41.5469 1652.7344,41.5469 C1652.5156,41.5469 1652.3125,41.625 1652.125,41.8125 C1651.6719,42.2969 1651.6719,42.2969 1651.4844,42.3906 C1651.0625,42.6563 1650.375,42.7813 1649.6094,42.7813 C1647.5625,42.7813 1646.2656,41.6875 1646.2656,39.9844 L1646.2656,38.8906 C1646.2656,37.1094 1647.5156,35.7969 1649.25,35.7969 C1649.8281,35.7969 1650.4375,35.9531 1650.9063,36.2031 C1651.3906,36.4844 1651.5625,36.7031 1651.6563,37.1094 C1651.7188,37.5156 1651.75,37.6406 1651.8906,37.7656 C1652.0313,37.9063 1652.2656,38.0156 1652.4844,38.0156 C1652.75,38.0156 1653.0156,37.875 1653.1875,37.6563 C1653.2969,37.5 1653.3281,37.3125 1653.3281,36.8906 L1653.3281,35.4688 C1653.3281,35.0313 1653.3125,34.9063 1653.2188,34.75 C1653.0625,34.4844 1652.7813,34.3438 1652.4844,34.3438 C1652.1875,34.3438 1651.9844,34.4375 1651.7656,34.75 L1651.5938,34.6719 Z " fill="#000000"/><text fill="#000000" font-family="sans-serif" font-size="14" lengthAdjust="spacing" textLength="55" x="1669.75" y="43.8467">ToolBar</text><line style="stroke:#181818;stroke-width:0.5;" x1="1560.5" x2="1801.5" y1="55" y2="55"/><line style="stroke:#181818;stroke-width:0.5;" x1="1560.5" x2="1801.5" y1="63" y2="63"/><text fill="#000000" font-family="sans-serif" font-size="14" lengthAdjust="spacing" textLength="219" x="1565.5" y="79.9951">virtual void updateHealth() = 0</text><text fill="#000000" font-family="sans-serif" font-size="14" lengthAdjust="spacing" textLength="231" x="1565.5" y="96.292">virtual void updateWeapon() = 0</text><text fill="#000000" font-family="sans-serif" font-size="14" lengthAdjust="spacing" textLength="211" x="1565.5" y="112.5889">virtual void updateCoins() = 0</text></g><!--class Menu--><g id="elem_Menu"><rect codeLine="21" fill="#F1F1F1" height="80.5938" id="Menu" rx="2.5" ry="2.5" style="stroke:#181818;stroke-width:0.5;" width="290" x="1201" y="196"/><ellipse cx="1322.75" cy="212" fill="#ADD1B2" rx="11" ry="11" style="stroke:#181818;stroke-width:1.0;"/><path d="M1325.0938,207.6719 C1324.1563,207.2344 1323.5625,207.0938 1322.6875,207.0938 C1320.0625,207.0938 1318.0625,209.1719 1318.0625,211.8906 L1318.0625,213.0156 C1318.0625,215.5938 1320.1719,217.4844 1323.0625,217.4844 C1324.2813,217.4844 1325.4375,217.1875 1326.1875,216.6406 C1326.7656,216.2344 1327.0938,215.7813 1327.0938,215.3906 C1327.0938,214.9375 1326.7031,214.5469 1326.2344,214.5469 C1326.0156,214.5469 1325.8125,214.625 1325.625,214.8125 C1325.1719,215.2969 1325.1719,215.2969 1324.9844,215.3906 C1324.5625,215.6563 1323.875,215.7813 1323.1094,215.7813 C1321.0625,215.7813 1319.7656,214.6875 1319.7656,212.9844 L1319.7656,211.8906 C1319.7656,210.1094 1321.0156,208.7969 1322.75,208.7969 C1323.3281,208.7969 1323.9375,208.9531 1324.4063,209.2031 C1324.8906,209.4844 1325.0625,209.7031 1325.1563,210.1094 C1325.2188,210.5156 1325.25,210.6406 1325.3906,210.7656 C1325.5313,210.9063 1325.7656,211.0156 1325.9844,211.0156 C1326.25,211.0156 1326.5156,210.875 1326.6875,210.6563 C1326.7969,210.5 1326.8281,210.3125 1326.8281,209.8906 L1326.8281,208.4688 C1326.8281,208.0313 1326.8125,207.9063 1326.7188,207.75 C1326.5625,207.4844 1326.2813,207.3438 1325.9844,207.3438 C1325.6875,207.3438 1325.4844,207.4375 1325.2656,207.75 L1325.0938,207.6719 Z " fill="#000000"/><text fill="#000000" font-family="sans-serif" font-size="14" lengthAdjust="spacing" textLength="38" x="1343.25" y="216.8467">Menu</text><line style="stroke:#181818;stroke-width:0.5;" x1="1202" x2="1490" y1="228" y2="228"/><line style="stroke:#181818;stroke-width:0.5;" x1="1202" x2="1490" y1="236" y2="236"/><text fill="#000000" font-family="sans-serif" font-size="14" lengthAdjust="spacing" textLength="278" x="1207" y="252.9951">virtual void checkSelectedOption() = 0</text><text fill="#000000" font-family="sans-serif" font-size="14" lengthAdjust="spacing" textLength="209" x="1207" y="269.292">virtual void displayMenu() = 0</text></g><!--class SinglePlayerTB--><g id="elem_SinglePlayerTB"><rect codeLine="26" fill="#F1F1F1" height="48" id="SinglePlayerTB" rx="2.5" ry="2.5" style="stroke:#181818;stroke-width:0.5;" width="139" x="1526.5" y="212.5"/><ellipse cx="1541.5" cy="228.5" fill="#ADD1B2" rx="11" ry="11" style="stroke:#181818;stroke-width:1.0;"/><path d="M1543.8438,224.1719 C1542.9063,223.7344 1542.3125,223.5938 1541.4375,223.5938 C1538.8125,223.5938 1536.8125,225.6719 1536.8125,228.3906 L1536.8125,229.5156 C1536.8125,232.0938 1538.9219,233.9844 1541.8125,233.9844 C1543.0313,233.9844 1544.1875,233.6875 1544.9375,233.1406 C1545.5156,232.7344 1545.8438,232.2813 1545.8438,231.8906 C1545.8438,231.4375 1545.4531,231.0469 1544.9844,231.0469 C1544.7656,231.0469 1544.5625,231.125 1544.375,231.3125 C1543.9219,231.7969 1543.9219,231.7969 1543.7344,231.8906 C1543.3125,232.1563 1542.625,232.2813 1541.8594,232.2813 C1539.8125,232.2813 1538.5156,231.1875 1538.5156,229.4844 L1538.5156,228.3906 C1538.5156,226.6094 1539.7656,225.2969 1541.5,225.2969 C1542.0781,225.2969 1542.6875,225.4531 1543.1563,225.7031 C1543.6406,225.9844 1543.8125,226.2031 1543.9063,226.6094 C1543.9688,227.0156 1544,227.1406 1544.1406,227.2656 C1544.2813,227.4063 1544.5156,227.5156 1544.7344,227.5156 C1545,227.5156 1545.2656,227.375 1545.4375,227.1563 C1545.5469,227 1545.5781,226.8125 1545.5781,226.3906 L1545.5781,224.9688 C1545.5781,224.5313 1545.5625,224.4063 1545.4688,224.25 C1545.3125,223.9844 1545.0313,223.8438 1544.7344,223.8438 C1544.4375,223.8438 1544.2344,223.9375 1544.0156,224.25 L1543.8438,224.1719 Z " fill="#000000"/><text fill="#000000" font-family="sans-serif" font-size="14" lengthAdjust="spacing" textLength="107" x="1555.5" y="233.3467">SinglePlayerTB</text><line style="stroke:#181818;stroke-width:0.5;" x1="1527.5" x2="1664.5" y1="244.5" y2="244.5"/><line style="stroke:#181818;stroke-width:0.5;" x1="1527.5" x2="1664.5" y1="252.5" y2="252.5"/></g><!--class MultiPlayerTB--><g id="elem_MultiPlayerTB"><rect codeLine="30" fill="#F1F1F1" height="48" id="MultiPlayerTB" rx="2.5" ry="2.5" style="stroke:#181818;stroke-width:0.5;" width="130" x="1701" y="212.5"/><ellipse cx="1716" cy="228.5" fill="#ADD1B2" rx="11" ry="11" style="stroke:#181818;stroke-width:1.0;"/><path d="M1718.3438,224.1719 C1717.4063,223.7344 1716.8125,223.5938 1715.9375,223.5938 C1713.3125,223.5938 1711.3125,225.6719 1711.3125,228.3906 L1711.3125,229.5156 C1711.3125,232.0938 1713.4219,233.9844 1716.3125,233.9844 C1717.5313,233.9844 1718.6875,233.6875 1719.4375,233.1406 C1720.0156,232.7344 1720.3438,232.2813 1720.3438,231.8906 C1720.3438,231.4375 1719.9531,231.0469 1719.4844,231.0469 C1719.2656,231.0469 1719.0625,231.125 1718.875,231.3125 C1718.4219,231.7969 1718.4219,231.7969 1718.2344,231.8906 C1717.8125,232.1563 1717.125,232.2813 1716.3594,232.2813 C1714.3125,232.2813 1713.0156,231.1875 1713.0156,229.4844 L1713.0156,228.3906 C1713.0156,226.6094 1714.2656,225.2969 1716,225.2969 C1716.5781,225.2969 1717.1875,225.4531 1717.6563,225.7031 C1718.1406,225.9844 1718.3125,226.2031 1718.4063,226.6094 C1718.4688,227.0156 1718.5,227.1406 1718.6406,227.2656 C1718.7813,227.4063 1719.0156,227.5156 1719.2344,227.5156 C1719.5,227.5156 1719.7656,227.375 1719.9375,227.1563 C1720.0469,227 1720.0781,226.8125 1720.0781,226.3906 L1720.0781,224.9688 C1720.0781,224.5313 1720.0625,224.4063 1719.9688,224.25 C1719.8125,223.9844 1719.5313,223.8438 1719.2344,223.8438 C1718.9375,223.8438 1718.7344,223.9375 1718.5156,224.25 L1718.3438,224.1719 Z " fill="#000000"/><text fill="#000000" font-family="sans-serif" font-size="14" lengthAdjust="spacing" textLength="98" x="1730" y="233.3467">MultiPlayerTB</text><line style="stroke:#181818;stroke-width:0.5;" x1="1702" x2="1830" y1="244.5" y2="244.5"/><line style="stroke:#181818;stroke-width:0.5;" x1="1702" x2="1830" y1="252.5" y2="252.5"/></g><!--class StartMenu--><g id="elem_StartMenu"><rect codeLine="34" fill="#F1F1F1" height="96.8906" id="StartMenu" rx="2.5" ry="2.5" style="stroke:#181818;stroke-width:0.5;" width="455" x="1118.5" y="353"/><ellipse cx="1304.25" cy="369" fill="#ADD1B2" rx="11" ry="11" style="stroke:#181818;stroke-width:1.0;"/><path d="M1306.5938,364.6719 C1305.6563,364.2344 1305.0625,364.0938 1304.1875,364.0938 C1301.5625,364.0938 1299.5625,366.1719 1299.5625,368.8906 L1299.5625,370.0156 C1299.5625,372.5938 1301.6719,374.4844 1304.5625,374.4844 C1305.7813,374.4844 1306.9375,374.1875 1307.6875,373.6406 C1308.2656,373.2344 1308.5938,372.7813 1308.5938,372.3906 C1308.5938,371.9375 1308.2031,371.5469 1307.7344,371.5469 C1307.5156,371.5469 1307.3125,371.625 1307.125,371.8125 C1306.6719,372.2969 1306.6719,372.2969 1306.4844,372.3906 C1306.0625,372.6563 1305.375,372.7813 1304.6094,372.7813 C1302.5625,372.7813 1301.2656,371.6875 1301.2656,369.9844 L1301.2656,368.8906 C1301.2656,367.1094 1302.5156,365.7969 1304.25,365.7969 C1304.8281,365.7969 1305.4375,365.9531 1305.9063,366.2031 C1306.3906,366.4844 1306.5625,366.7031 1306.6563,367.1094 C1306.7188,367.5156 1306.75,367.6406 1306.8906,367.7656 C1307.0313,367.9063 1307.2656,368.0156 1307.4844,368.0156 C1307.75,368.0156 1308.0156,367.875 1308.1875,367.6563 C1308.2969,367.5 1308.3281,367.3125 1308.3281,366.8906 L1308.3281,365.4688 C1308.3281,365.0313 1308.3125,364.9063 1308.2188,364.75 C1308.0625,364.4844 1307.7813,364.3438 1307.4844,364.3438 C1307.1875,364.3438 1306.9844,364.4375 1306.7656,364.75 L1306.5938,364.6719 Z " fill="#000000"/><text fill="#000000" font-family="sans-serif" font-size="14" lengthAdjust="spacing" textLength="75" x="1324.75" y="373.8467">StartMenu</text><line style="stroke:#181818;stroke-width:0.5;" x1="1119.5" x2="1572.5" y1="385" y2="385"/><text fill="#000000" font-family="sans-serif" font-size="14" lengthAdjust="spacing" textLength="443" x="1124.5" y="401.9951">std::vector&lt;std::string&gt;m_options = {"start", "help", "exit"}</text><line style="stroke:#181818;stroke-width:0.5;" x1="1119.5" x2="1572.5" y1="409.2969" y2="409.2969"/><text fill="#000000" font-family="sans-serif" font-size="14" lengthAdjust="spacing" textLength="132" x="1124.5" y="426.292">void displayMenu()</text><text fill="#000000" font-family="sans-serif" font-size="14" lengthAdjust="spacing" textLength="201" x="1124.5" y="442.5889">void checkSelectedOption()</text></g><!--class MainMenu--><g id="elem_MainMenu"><rect codeLine="40" fill="#F1F1F1" height="96.8906" id="MainMenu" rx="2.5" ry="2.5" style="stroke:#181818;stroke-width:0.5;" width="668" x="1609" y="353"/><ellipse cx="1903.25" cy="369" fill="#ADD1B2" rx="11" ry="11" style="stroke:#181818;stroke-width:1.0;"/><path d="M1905.5938,364.6719 C1904.6563,364.2344 1904.0625,364.0938 1903.1875,364.0938 C1900.5625,364.0938 1898.5625,366.1719 1898.5625,368.8906 L1898.5625,370.0156 C1898.5625,372.5938 1900.6719,374.4844 1903.5625,374.4844 C1904.7813,374.4844 1905.9375,374.1875 1906.6875,373.6406 C1907.2656,373.2344 1907.5938,372.7813 1907.5938,372.3906 C1907.5938,371.9375 1907.2031,371.5469 1906.7344,371.5469 C1906.5156,371.5469 1906.3125,371.625 1906.125,371.8125 C1905.6719,372.2969 1905.6719,372.2969 1905.4844,372.3906 C1905.0625,372.6563 1904.375,372.7813 1903.6094,372.7813 C1901.5625,372.7813 1900.2656,371.6875 1900.2656,369.9844 L1900.2656,368.8906 C1900.2656,367.1094 1901.5156,365.7969 1903.25,365.7969 C1903.8281,365.7969 1904.4375,365.9531 1904.9063,366.2031 C1905.3906,366.4844 1905.5625,366.7031 1905.6563,367.1094 C1905.7188,367.5156 1905.75,367.6406 1905.8906,367.7656 C1906.0313,367.9063 1906.2656,368.0156 1906.4844,368.0156 C1906.75,368.0156 1907.0156,367.875 1907.1875,367.6563 C1907.2969,367.5 1907.3281,367.3125 1907.3281,366.8906 L1907.3281,365.4688 C1907.3281,365.0313 1907.3125,364.9063 1907.2188,364.75 C1907.0625,364.4844 1906.7813,364.3438 1906.4844,364.3438 C1906.1875,364.3438 1905.9844,364.4375 1905.7656,364.75 L1905.5938,364.6719 Z " fill="#000000"/><text fill="#000000" font-family="sans-serif" font-size="14" lengthAdjust="spacing" textLength="71" x="1923.75" y="373.8467">MainMenu</text><line style="stroke:#181818;stroke-width:0.5;" x1="1610" x2="2276" y1="385" y2="385"/><text fill="#000000" font-family="sans-serif" font-size="14" lengthAdjust="spacing" textLength="656" x="1615" y="401.9951">std::vector&lt;std::string&gt;m_options = {"play", "choose char", "check profile", "High score"}</text><line style="stroke:#181818;stroke-width:0.5;" x1="1610" x2="2276" y1="409.2969" y2="409.2969"/><text fill="#000000" font-family="sans-serif" font-size="14" lengthAdjust="spacing" textLength="132" x="1615" y="426.292">void displayMenu()</text><text fill="#000000" font-family="sans-serif" font-size="14" lengthAdjust="spacing" textLength="201" x="1615" y="442.5889">void checkSelectedOption()</text></g><!--class GameObject--><g id="elem_GameObject"><rect codeLine="46" fill="#F1F1F1" height="129.4844" id="GameObject" rx="2.5" ry="2.5" style="stroke:#181818;stroke-width:0.5;" width="241" x="842.5" y="337"/><ellipse cx="913.25" cy="353" fill="#ADD1B2" rx="11" ry="11" style="stroke:#181818;stroke-width:1.0;"/><path d="M915.5938,348.6719 C914.6563,348.2344 914.0625,348.0938 913.1875,348.0938 C910.5625,348.0938 908.5625,350.1719 908.5625,352.8906 L908.5625,354.0156 C908.5625,356.5938 910.6719,358.4844 913.5625,358.4844 C914.7813,358.4844 915.9375,358.1875 916.6875,357.6406 C917.2656,357.2344 917.5938,356.7813 917.5938,356.3906 C917.5938,355.9375 917.2031,355.5469 916.7344,355.5469 C916.5156,355.5469 916.3125,355.625 916.125,355.8125 C915.6719,356.2969 915.6719,356.2969 915.4844,356.3906 C915.0625,356.6563 914.375,356.7813 913.6094,356.7813 C911.5625,356.7813 910.2656,355.6875 910.2656,353.9844 L910.2656,352.8906 C910.2656,351.1094 911.5156,349.7969 913.25,349.7969 C913.8281,349.7969 914.4375,349.9531 914.9063,350.2031 C915.3906,350.4844 915.5625,350.7031 915.6563,351.1094 C915.7188,351.5156 915.75,351.6406 915.8906,351.7656 C916.0313,351.9063 916.2656,352.0156 916.4844,352.0156 C916.75,352.0156 917.0156,351.875 917.1875,351.6563 C917.2969,351.5 917.3281,351.3125 917.3281,350.8906 L917.3281,349.4688 C917.3281,349.0313 917.3125,348.9063 917.2188,348.75 C917.0625,348.4844 916.7813,348.3438 916.4844,348.3438 C916.1875,348.3438 915.9844,348.4375 915.7656,348.75 L915.5938,348.6719 Z " fill="#000000"/><text fill="#000000" font-family="sans-serif" font-size="14" lengthAdjust="spacing" textLength="91" x="933.75" y="357.8467">GameObject</text><line style="stroke:#181818;stroke-width:0.5;" x1="843.5" x2="1082.5" y1="369" y2="369"/><text fill="#000000" font-family="sans-serif" font-size="14" lengthAdjust="spacing" textLength="119" x="848.5" y="385.9951">sf::Sprite object</text><line style="stroke:#181818;stroke-width:0.5;" x1="843.5" x2="1082.5" y1="393.2969" y2="393.2969"/><text fill="#000000" font-family="sans-serif" font-size="14" lengthAdjust="spacing" textLength="123" x="848.5" y="410.292">void setTexture()</text><text fill="#000000" font-family="sans-serif" font-size="14" lengthAdjust="spacing" textLength="121" x="848.5" y="426.5889">void setPostion()</text><text fill="#000000" font-family="sans-serif" font-size="14" lengthAdjust="spacing" textLength="229" x="848.5" y="442.8857">virtual void handleCollision() = 0</text><text fill="#000000" font-family="sans-serif" font-size="14" lengthAdjust="spacing" textLength="155" x="848.5" y="459.1826">virtual void draw() = 0</text></g><!--class MovingObject--><g id="elem_MovingObject"><rect codeLine="55" fill="#F1F1F1" height="96.8906" id="MovingObject" rx="2.5" ry="2.5" style="stroke:#181818;stroke-width:0.5;" width="173" x="578.5" y="526"/><ellipse cx="611.95" cy="542" fill="#ADD1B2" rx="11" ry="11" style="stroke:#181818;stroke-width:1.0;"/><path d="M614.2938,537.6719 C613.3563,537.2344 612.7625,537.0938 611.8875,537.0938 C609.2625,537.0938 607.2625,539.1719 607.2625,541.8906 L607.2625,543.0156 C607.2625,545.5938 609.3719,547.4844 612.2625,547.4844 C613.4813,547.4844 614.6375,547.1875 615.3875,546.6406 C615.9656,546.2344 616.2938,545.7813 616.2938,545.3906 C616.2938,544.9375 615.9031,544.5469 615.4344,544.5469 C615.2156,544.5469 615.0125,544.625 614.825,544.8125 C614.3719,545.2969 614.3719,545.2969 614.1844,545.3906 C613.7625,545.6563 613.075,545.7813 612.3094,545.7813 C610.2625,545.7813 608.9656,544.6875 608.9656,542.9844 L608.9656,541.8906 C608.9656,540.1094 610.2156,538.7969 611.95,538.7969 C612.5281,538.7969 613.1375,538.9531 613.6063,539.2031 C614.0906,539.4844 614.2625,539.7031 614.3563,540.1094 C614.4188,540.5156 614.45,540.6406 614.5906,540.7656 C614.7313,540.9063 614.9656,541.0156 615.1844,541.0156 C615.45,541.0156 615.7156,540.875 615.8875,540.6563 C615.9969,540.5 616.0281,540.3125 616.0281,539.8906 L616.0281,538.4688 C616.0281,538.0313 616.0125,537.9063 615.9188,537.75 C615.7625,537.4844 615.4813,537.3438 615.1844,537.3438 C614.8875,537.3438 614.6844,537.4375 614.4656,537.75 L614.2938,537.6719 Z " fill="#000000"/><text fill="#000000" font-family="sans-serif" font-size="14" lengthAdjust="spacing" textLength="100" x="630.05" y="546.8467">MovingObject</text><line style="stroke:#181818;stroke-width:0.5;" x1="579.5" x2="750.5" y1="558" y2="558"/><line style="stroke:#181818;stroke-width:0.5;" x1="579.5" x2="750.5" y1="566" y2="566"/><text fill="#000000" font-family="sans-serif" font-size="14" lengthAdjust="spacing" textLength="161" x="584.5" y="582.9951">virtual void move() = 0</text><text fill="#000000" font-family="sans-serif" font-size="14" lengthAdjust="spacing" textLength="152" x="584.5" y="599.292">void handleCollision()</text><text fill="#000000" font-family="sans-serif" font-size="14" lengthAdjust="spacing" textLength="78" x="584.5" y="615.5889">void draw()</text></g><!--class StaticObject--><g id="elem_StaticObject"><rect codeLine="61" fill="#F1F1F1" height="80.5938" id="StaticObject" rx="2.5" ry="2.5" style="stroke:#181818;stroke-width:0.5;" width="241" x="1331.5" y="534"/><ellipse cx="1401.75" cy="550" fill="#ADD1B2" rx="11" ry="11" style="stroke:#181818;stroke-width:1.0;"/><path d="M1404.0938,545.6719 C1403.1563,545.2344 1402.5625,545.0938 1401.6875,545.0938 C1399.0625,545.0938 1397.0625,547.1719 1397.0625,549.8906 L1397.0625,551.0156 C1397.0625,553.5938 1399.1719,555.4844 1402.0625,555.4844 C1403.2813,555.4844 1404.4375,555.1875 1405.1875,554.6406 C1405.7656,554.2344 1406.0938,553.7813 1406.0938,553.3906 C1406.0938,552.9375 1405.7031,552.5469 1405.2344,552.5469 C1405.0156,552.5469 1404.8125,552.625 1404.625,552.8125 C1404.1719,553.2969 1404.1719,553.2969 1403.9844,553.3906 C1403.5625,553.6563 1402.875,553.7813 1402.1094,553.7813 C1400.0625,553.7813 1398.7656,552.6875 1398.7656,550.9844 L1398.7656,549.8906 C1398.7656,548.1094 1400.0156,546.7969 1401.75,546.7969 C1402.3281,546.7969 1402.9375,546.9531 1403.4063,547.2031 C1403.8906,547.4844 1404.0625,547.7031 1404.1563,548.1094 C1404.2188,548.5156 1404.25,548.6406 1404.3906,548.7656 C1404.5313,548.9063 1404.7656,549.0156 1404.9844,549.0156 C1405.25,549.0156 1405.5156,548.875 1405.6875,548.6563 C1405.7969,548.5 1405.8281,548.3125 1405.8281,547.8906 L1405.8281,546.4688 C1405.8281,546.0313 1405.8125,545.9063 1405.7188,545.75 C1405.5625,545.4844 1405.2813,545.3438 1404.9844,545.3438 C1404.6875,545.3438 1404.4844,545.4375 1404.2656,545.75 L1404.0938,545.6719 Z " fill="#000000"/><text fill="#000000" font-family="sans-serif" font-size="14" lengthAdjust="spacing" textLength="92" x="1422.25" y="554.8467">StaticObject</text><line style="stroke:#181818;stroke-width:0.5;" x1="1332.5" x2="1571.5" y1="566" y2="566"/><line style="stroke:#181818;stroke-width:0.5;" x1="1332.5" x2="1571.5" y1="574" y2="574"/><text fill="#000000" font-family="sans-serif" font-size="14" lengthAdjust="spacing" textLength="229" x="1337.5" y="590.9951">virtual void handleCollision() = 0</text><text fill="#000000" font-family="sans-serif" font-size="14" lengthAdjust="spacing" textLength="78" x="1337.5" y="607.292">void draw()</text></g><!--class Character--><g id="elem_Character"><rect codeLine="66" fill="#F1F1F1" height="129.4844" id="Character" rx="2.5" ry="2.5" style="stroke:#181818;stroke-width:0.5;" width="181" x="59.5" y="840"/><ellipse cx="110.25" cy="856" fill="#ADD1B2" rx="11" ry="11" style="stroke:#181818;stroke-width:1.0;"/><path d="M112.5938,851.6719 C111.6563,851.2344 111.0625,851.0938 110.1875,851.0938 C107.5625,851.0938 105.5625,853.1719 105.5625,855.8906 L105.5625,857.0156 C105.5625,859.5938 107.6719,861.4844 110.5625,861.4844 C111.7813,861.4844 112.9375,861.1875 113.6875,860.6406 C114.2656,860.2344 114.5938,859.7813 114.5938,859.3906 C114.5938,858.9375 114.2031,858.5469 113.7344,858.5469 C113.5156,858.5469 113.3125,858.625 113.125,858.8125 C112.6719,859.2969 112.6719,859.2969 112.4844,859.3906 C112.0625,859.6563 111.375,859.7813 110.6094,859.7813 C108.5625,859.7813 107.2656,858.6875 107.2656,856.9844 L107.2656,855.8906 C107.2656,854.1094 108.5156,852.7969 110.25,852.7969 C110.8281,852.7969 111.4375,852.9531 111.9063,853.2031 C112.3906,853.4844 112.5625,853.7031 112.6563,854.1094 C112.7188,854.5156 112.75,854.6406 112.8906,854.7656 C113.0313,854.9063 113.2656,855.0156 113.4844,855.0156 C113.75,855.0156 114.0156,854.875 114.1875,854.6563 C114.2969,854.5 114.3281,854.3125 114.3281,853.8906 L114.3281,852.4688 C114.3281,852.0313 114.3125,851.9063 114.2188,851.75 C114.0625,851.4844 113.7813,851.3438 113.4844,851.3438 C113.1875,851.3438 112.9844,851.4375 112.7656,851.75 L112.5938,851.6719 Z " fill="#000000"/><text fill="#000000" font-family="sans-serif" font-size="14" lengthAdjust="spacing" textLength="71" x="130.75" y="860.8467">Character</text><line style="stroke:#181818;stroke-width:0.5;" x1="60.5" x2="239.5" y1="872" y2="872"/><text fill="#000000" font-family="sans-serif" font-size="14" lengthAdjust="spacing" textLength="101" x="65.5" y="888.9951">sf::sprite char</text><text fill="#000000" font-family="sans-serif" font-size="14" lengthAdjust="spacing" textLength="61" x="65.5" y="905.292">int price</text><text fill="#000000" font-family="sans-serif" font-size="14" lengthAdjust="spacing" textLength="101" x="65.5" y="921.5889">bool unlocked</text><line style="stroke:#181818;stroke-width:0.5;" x1="60.5" x2="239.5" y1="928.8906" y2="928.8906"/><text fill="#000000" font-family="sans-serif" font-size="14" lengthAdjust="spacing" textLength="165" x="65.5" y="945.8857">void setUnlocked(bool)</text><text fill="#000000" font-family="sans-serif" font-size="14" lengthAdjust="spacing" textLength="169" x="65.5" y="962.1826">bool getUnlocked(bool)</text></g><!--class Player--><g id="elem_Player"><rect codeLine="74" fill="#F1F1F1" height="80.5938" id="Player" rx="2.5" ry="2.5" style="stroke:#181818;stroke-width:0.5;" width="164" x="159" y="691"/><ellipse cx="214.75" cy="707" fill="#ADD1B2" rx="11" ry="11" style="stroke:#181818;stroke-width:1.0;"/><path d="M217.0938,702.6719 C216.1563,702.2344 215.5625,702.0938 214.6875,702.0938 C212.0625,702.0938 210.0625,704.1719 210.0625,706.8906 L210.0625,708.0156 C210.0625,710.5938 212.1719,712.4844 215.0625,712.4844 C216.2813,712.4844 217.4375,712.1875 218.1875,711.6406 C218.7656,711.2344 219.0938,710.7813 219.0938,710.3906 C219.0938,709.9375 218.7031,709.5469 218.2344,709.5469 C218.0156,709.5469 217.8125,709.625 217.625,709.8125 C217.1719,710.2969 217.1719,710.2969 216.9844,710.3906 C216.5625,710.6563 215.875,710.7813 215.1094,710.7813 C213.0625,710.7813 211.7656,709.6875 211.7656,707.9844 L211.7656,706.8906 C211.7656,705.1094 213.0156,703.7969 214.75,703.7969 C215.3281,703.7969 215.9375,703.9531 216.4063,704.2031 C216.8906,704.4844 217.0625,704.7031 217.1563,705.1094 C217.2188,705.5156 217.25,705.6406 217.3906,705.7656 C217.5313,705.9063 217.7656,706.0156 217.9844,706.0156 C218.25,706.0156 218.5156,705.875 218.6875,705.6563 C218.7969,705.5 218.8281,705.3125 218.8281,704.8906 L218.8281,703.4688 C218.8281,703.0313 218.8125,702.9063 218.7188,702.75 C218.5625,702.4844 218.2813,702.3438 217.9844,702.3438 C217.6875,702.3438 217.4844,702.4375 217.2656,702.75 L217.0938,702.6719 Z " fill="#000000"/><text fill="#000000" font-family="sans-serif" font-size="14" lengthAdjust="spacing" textLength="44" x="235.25" y="711.8467">Player</text><line style="stroke:#181818;stroke-width:0.5;" x1="160" x2="322" y1="723" y2="723"/><line style="stroke:#181818;stroke-width:0.5;" x1="160" x2="322" y1="731" y2="731"/><text fill="#000000" font-family="sans-serif" font-size="14" lengthAdjust="spacing" textLength="84" x="165" y="747.9951">void move()</text><text fill="#000000" font-family="sans-serif" font-size="14" lengthAdjust="spacing" textLength="152" x="165" y="764.292">void handleCollision()</text></g><!--class Enemy--><g id="elem_Enemy"><rect codeLine="79" fill="#F1F1F1" height="80.5938" id="Enemy" rx="2.5" ry="2.5" style="stroke:#181818;stroke-width:0.5;" width="249" x="540.5" y="691"/><ellipse cx="636.25" cy="707" fill="#ADD1B2" rx="11" ry="11" style="stroke:#181818;stroke-width:1.0;"/><path d="M638.5938,702.6719 C637.6563,702.2344 637.0625,702.0938 636.1875,702.0938 C633.5625,702.0938 631.5625,704.1719 631.5625,706.8906 L631.5625,708.0156 C631.5625,710.5938 633.6719,712.4844 636.5625,712.4844 C637.7813,712.4844 638.9375,712.1875 639.6875,711.6406 C640.2656,711.2344 640.5938,710.7813 640.5938,710.3906 C640.5938,709.9375 640.2031,709.5469 639.7344,709.5469 C639.5156,709.5469 639.3125,709.625 639.125,709.8125 C638.6719,710.2969 638.6719,710.2969 638.4844,710.3906 C638.0625,710.6563 637.375,710.7813 636.6094,710.7813 C634.5625,710.7813 633.2656,709.6875 633.2656,707.9844 L633.2656,706.8906 C633.2656,705.1094 634.5156,703.7969 636.25,703.7969 C636.8281,703.7969 637.4375,703.9531 637.9063,704.2031 C638.3906,704.4844 638.5625,704.7031 638.6563,705.1094 C638.7188,705.5156 638.75,705.6406 638.8906,705.7656 C639.0313,705.9063 639.2656,706.0156 639.4844,706.0156 C639.75,706.0156 640.0156,705.875 640.1875,705.6563 C640.2969,705.5 640.3281,705.3125 640.3281,704.8906 L640.3281,703.4688 C640.3281,703.0313 640.3125,702.9063 640.2188,702.75 C640.0625,702.4844 639.7813,702.3438 639.4844,702.3438 C639.1875,702.3438 638.9844,702.4375 638.7656,702.75 L638.5938,702.6719 Z " fill="#000000"/><text fill="#000000" font-family="sans-serif" font-size="14" lengthAdjust="spacing" textLength="49" x="656.75" y="711.8467">Enemy</text><line style="stroke:#181818;stroke-width:0.5;" x1="541.5" x2="788.5" y1="723" y2="723"/><line style="stroke:#181818;stroke-width:0.5;" x1="541.5" x2="788.5" y1="731" y2="731"/><text fill="#000000" font-family="sans-serif" font-size="14" lengthAdjust="spacing" textLength="161" x="546.5" y="747.9951">virtual void move() = 0</text><text fill="#000000" font-family="sans-serif" font-size="14" lengthAdjust="spacing" textLength="237" x="546.5" y="764.292">virtual void handleCollision()v=v0</text></g><!--class char1--><g id="elem_char1"><rect codeLine="84" fill="#F1F1F1" height="48" id="char1" rx="2.5" ry="2.5" style="stroke:#181818;stroke-width:0.5;" width="72" x="7" y="1029"/><ellipse cx="22" cy="1045" fill="#ADD1B2" rx="11" ry="11" style="stroke:#181818;stroke-width:1.0;"/><path d="M24.3438,1040.6719 C23.4063,1040.2344 22.8125,1040.0938 21.9375,1040.0938 C19.3125,1040.0938 17.3125,1042.1719 17.3125,1044.8906 L17.3125,1046.0156 C17.3125,1048.5938 19.4219,1050.4844 22.3125,1050.4844 C23.5313,1050.4844 24.6875,1050.1875 25.4375,1049.6406 C26.0156,1049.2344 26.3438,1048.7813 26.3438,1048.3906 C26.3438,1047.9375 25.9531,1047.5469 25.4844,1047.5469 C25.2656,1047.5469 25.0625,1047.625 24.875,1047.8125 C24.4219,1048.2969 24.4219,1048.2969 24.2344,1048.3906 C23.8125,1048.6563 23.125,1048.7813 22.3594,1048.7813 C20.3125,1048.7813 19.0156,1047.6875 19.0156,1045.9844 L19.0156,1044.8906 C19.0156,1043.1094 20.2656,1041.7969 22,1041.7969 C22.5781,1041.7969 23.1875,1041.9531 23.6563,1042.2031 C24.1406,1042.4844 24.3125,1042.7031 24.4063,1043.1094 C24.4688,1043.5156 24.5,1043.6406 24.6406,1043.7656 C24.7813,1043.9063 25.0156,1044.0156 25.2344,1044.0156 C25.5,1044.0156 25.7656,1043.875 25.9375,1043.6563 C26.0469,1043.5 26.0781,1043.3125 26.0781,1042.8906 L26.0781,1041.4688 C26.0781,1041.0313 26.0625,1040.9063 25.9688,1040.75 C25.8125,1040.4844 25.5313,1040.3438 25.2344,1040.3438 C24.9375,1040.3438 24.7344,1040.4375 24.5156,1040.75 L24.3438,1040.6719 Z " fill="#000000"/><text fill="#000000" font-family="sans-serif" font-size="14" lengthAdjust="spacing" textLength="40" x="36" y="1049.8467">char1</text><line style="stroke:#181818;stroke-width:0.5;" x1="8" x2="78" y1="1061" y2="1061"/><line style="stroke:#181818;stroke-width:0.5;" x1="8" x2="78" y1="1069" y2="1069"/></g><!--class char2--><g id="elem_char2"><rect codeLine="88" fill="#F1F1F1" height="48" id="char2" rx="2.5" ry="2.5" style="stroke:#181818;stroke-width:0.5;" width="71" x="114.5" y="1029"/><ellipse cx="129.5" cy="1045" fill="#ADD1B2" rx="11" ry="11" style="stroke:#181818;stroke-width:1.0;"/><path d="M131.8438,1040.6719 C130.9063,1040.2344 130.3125,1040.0938 129.4375,1040.0938 C126.8125,1040.0938 124.8125,1042.1719 124.8125,1044.8906 L124.8125,1046.0156 C124.8125,1048.5938 126.9219,1050.4844 129.8125,1050.4844 C131.0313,1050.4844 132.1875,1050.1875 132.9375,1049.6406 C133.5156,1049.2344 133.8438,1048.7813 133.8438,1048.3906 C133.8438,1047.9375 133.4531,1047.5469 132.9844,1047.5469 C132.7656,1047.5469 132.5625,1047.625 132.375,1047.8125 C131.9219,1048.2969 131.9219,1048.2969 131.7344,1048.3906 C131.3125,1048.6563 130.625,1048.7813 129.8594,1048.7813 C127.8125,1048.7813 126.5156,1047.6875 126.5156,1045.9844 L126.5156,1044.8906 C126.5156,1043.1094 127.7656,1041.7969 129.5,1041.7969 C130.0781,1041.7969 130.6875,1041.9531 131.1563,1042.2031 C131.6406,1042.4844 131.8125,1042.7031 131.9063,1043.1094 C131.9688,1043.5156 132,1043.6406 132.1406,1043.7656 C132.2813,1043.9063 132.5156,1044.0156 132.7344,1044.0156 C133,1044.0156 133.2656,1043.875 133.4375,1043.6563 C133.5469,1043.5 133.5781,1043.3125 133.5781,1042.8906 L133.5781,1041.4688 C133.5781,1041.0313 133.5625,1040.9063 133.4688,1040.75 C133.3125,1040.4844 133.0313,1040.3438 132.7344,1040.3438 C132.4375,1040.3438 132.2344,1040.4375 132.0156,1040.75 L131.8438,1040.6719 Z " fill="#000000"/><text fill="#000000" font-family="sans-serif" font-size="14" lengthAdjust="spacing" textLength="39" x="143.5" y="1049.8467">char2</text><line style="stroke:#181818;stroke-width:0.5;" x1="115.5" x2="184.5" y1="1061" y2="1061"/><line style="stroke:#181818;stroke-width:0.5;" x1="115.5" x2="184.5" y1="1069" y2="1069"/></g><!--class char3--><g id="elem_char3"><rect codeLine="92" fill="#F1F1F1" height="48" id="char3" rx="2.5" ry="2.5" style="stroke:#181818;stroke-width:0.5;" width="72" x="221" y="1029"/><ellipse cx="236" cy="1045" fill="#ADD1B2" rx="11" ry="11" style="stroke:#181818;stroke-width:1.0;"/><path d="M238.3438,1040.6719 C237.4063,1040.2344 236.8125,1040.0938 235.9375,1040.0938 C233.3125,1040.0938 231.3125,1042.1719 231.3125,1044.8906 L231.3125,1046.0156 C231.3125,1048.5938 233.4219,1050.4844 236.3125,1050.4844 C237.5313,1050.4844 238.6875,1050.1875 239.4375,1049.6406 C240.0156,1049.2344 240.3438,1048.7813 240.3438,1048.3906 C240.3438,1047.9375 239.9531,1047.5469 239.4844,1047.5469 C239.2656,1047.5469 239.0625,1047.625 238.875,1047.8125 C238.4219,1048.2969 238.4219,1048.2969 238.2344,1048.3906 C237.8125,1048.6563 237.125,1048.7813 236.3594,1048.7813 C234.3125,1048.7813 233.0156,1047.6875 233.0156,1045.9844 L233.0156,1044.8906 C233.0156,1043.1094 234.2656,1041.7969 236,1041.7969 C236.5781,1041.7969 237.1875,1041.9531 237.6563,1042.2031 C238.1406,1042.4844 238.3125,1042.7031 238.4063,1043.1094 C238.4688,1043.5156 238.5,1043.6406 238.6406,1043.7656 C238.7813,1043.9063 239.0156,1044.0156 239.2344,1044.0156 C239.5,1044.0156 239.7656,1043.875 239.9375,1043.6563 C240.0469,1043.5 240.0781,1043.3125 240.0781,1042.8906 L240.0781,1041.4688 C240.0781,1041.0313 240.0625,1040.9063 239.9688,1040.75 C239.8125,1040.4844 239.5313,1040.3438 239.2344,1040.3438 C238.9375,1040.3438 238.7344,1040.4375 238.5156,1040.75 L238.3438,1040.6719 Z " fill="#000000"/><text fill="#000000" font-family="sans-serif" font-size="14" lengthAdjust="spacing" textLength="40" x="250" y="1049.8467">char3</text><line style="stroke:#181818;stroke-width:0.5;" x1="222" x2="292" y1="1061" y2="1061"/><line style="stroke:#181818;stroke-width:0.5;" x1="222" x2="292" y1="1069" y2="1069"/></g><!--class easyEnemy--><g id="elem_easyEnemy"><rect codeLine="96" fill="#F1F1F1" height="80.5938" id="easyEnemy" rx="2.5" ry="2.5" style="stroke:#181818;stroke-width:0.5;" width="164" x="276" y="864"/><ellipse cx="313.95" cy="880" fill="#ADD1B2" rx="11" ry="11" style="stroke:#181818;stroke-width:1.0;"/><path d="M316.2938,875.6719 C315.3563,875.2344 314.7625,875.0938 313.8875,875.0938 C311.2625,875.0938 309.2625,877.1719 309.2625,879.8906 L309.2625,881.0156 C309.2625,883.5938 311.3719,885.4844 314.2625,885.4844 C315.4813,885.4844 316.6375,885.1875 317.3875,884.6406 C317.9656,884.2344 318.2938,883.7813 318.2938,883.3906 C318.2938,882.9375 317.9031,882.5469 317.4344,882.5469 C317.2156,882.5469 317.0125,882.625 316.825,882.8125 C316.3719,883.2969 316.3719,883.2969 316.1844,883.3906 C315.7625,883.6563 315.075,883.7813 314.3094,883.7813 C312.2625,883.7813 310.9656,882.6875 310.9656,880.9844 L310.9656,879.8906 C310.9656,878.1094 312.2156,876.7969 313.95,876.7969 C314.5281,876.7969 315.1375,876.9531 315.6063,877.2031 C316.0906,877.4844 316.2625,877.7031 316.3563,878.1094 C316.4188,878.5156 316.45,878.6406 316.5906,878.7656 C316.7313,878.9063 316.9656,879.0156 317.1844,879.0156 C317.45,879.0156 317.7156,878.875 317.8875,878.6563 C317.9969,878.5 318.0281,878.3125 318.0281,877.8906 L318.0281,876.4688 C318.0281,876.0313 318.0125,875.9063 317.9188,875.75 C317.7625,875.4844 317.4813,875.3438 317.1844,875.3438 C316.8875,875.3438 316.6844,875.4375 316.4656,875.75 L316.2938,875.6719 Z " fill="#000000"/><text fill="#000000" font-family="sans-serif" font-size="14" lengthAdjust="spacing" textLength="81" x="333.05" y="884.8467">easyEnemy</text><line style="stroke:#181818;stroke-width:0.5;" x1="277" x2="439" y1="896" y2="896"/><line style="stroke:#181818;stroke-width:0.5;" x1="277" x2="439" y1="904" y2="904"/><text fill="#000000" font-family="sans-serif" font-size="14" lengthAdjust="spacing" textLength="84" x="282" y="920.9951">void move()</text><text fill="#000000" font-family="sans-serif" font-size="14" lengthAdjust="spacing" textLength="152" x="282" y="937.292">void handleCollision()</text></g><!--class mediumEnemy--><g id="elem_mediumEnemy"><rect codeLine="102" fill="#F1F1F1" height="80.5938" id="mediumEnemy" rx="2.5" ry="2.5" style="stroke:#181818;stroke-width:0.5;" width="164" x="475" y="864"/><ellipse cx="501.25" cy="880" fill="#ADD1B2" rx="11" ry="11" style="stroke:#181818;stroke-width:1.0;"/><path d="M503.5938,875.6719 C502.6563,875.2344 502.0625,875.0938 501.1875,875.0938 C498.5625,875.0938 496.5625,877.1719 496.5625,879.8906 L496.5625,881.0156 C496.5625,883.5938 498.6719,885.4844 501.5625,885.4844 C502.7813,885.4844 503.9375,885.1875 504.6875,884.6406 C505.2656,884.2344 505.5938,883.7813 505.5938,883.3906 C505.5938,882.9375 505.2031,882.5469 504.7344,882.5469 C504.5156,882.5469 504.3125,882.625 504.125,882.8125 C503.6719,883.2969 503.6719,883.2969 503.4844,883.3906 C503.0625,883.6563 502.375,883.7813 501.6094,883.7813 C499.5625,883.7813 498.2656,882.6875 498.2656,880.9844 L498.2656,879.8906 C498.2656,878.1094 499.5156,876.7969 501.25,876.7969 C501.8281,876.7969 502.4375,876.9531 502.9063,877.2031 C503.3906,877.4844 503.5625,877.7031 503.6563,878.1094 C503.7188,878.5156 503.75,878.6406 503.8906,878.7656 C504.0313,878.9063 504.2656,879.0156 504.4844,879.0156 C504.75,879.0156 505.0156,878.875 505.1875,878.6563 C505.2969,878.5 505.3281,878.3125 505.3281,877.8906 L505.3281,876.4688 C505.3281,876.0313 505.3125,875.9063 505.2188,875.75 C505.0625,875.4844 504.7813,875.3438 504.4844,875.3438 C504.1875,875.3438 503.9844,875.4375 503.7656,875.75 L503.5938,875.6719 Z " fill="#000000"/><text fill="#000000" font-family="sans-serif" font-size="14" lengthAdjust="spacing" textLength="107" x="517.75" y="884.8467">mediumEnemy</text><line style="stroke:#181818;stroke-width:0.5;" x1="476" x2="638" y1="896" y2="896"/><line style="stroke:#181818;stroke-width:0.5;" x1="476" x2="638" y1="904" y2="904"/><text fill="#000000" font-family="sans-serif" font-size="14" lengthAdjust="spacing" textLength="84" x="481" y="920.9951">void move()</text><text fill="#000000" font-family="sans-serif" font-size="14" lengthAdjust="spacing" textLength="152" x="481" y="937.292">void handleCollision()</text></g><!--class HardEnemy--><g id="elem_HardEnemy"><rect codeLine="108" fill="#F1F1F1" height="80.5938" id="HardEnemy" rx="2.5" ry="2.5" style="stroke:#181818;stroke-width:0.5;" width="164" x="674" y="864"/><ellipse cx="711.5" cy="880" fill="#ADD1B2" rx="11" ry="11" style="stroke:#181818;stroke-width:1.0;"/><path d="M713.8438,875.6719 C712.9063,875.2344 712.3125,875.0938 711.4375,875.0938 C708.8125,875.0938 706.8125,877.1719 706.8125,879.8906 L706.8125,881.0156 C706.8125,883.5938 708.9219,885.4844 711.8125,885.4844 C713.0313,885.4844 714.1875,885.1875 714.9375,884.6406 C715.5156,884.2344 715.8438,883.7813 715.8438,883.3906 C715.8438,882.9375 715.4531,882.5469 714.9844,882.5469 C714.7656,882.5469 714.5625,882.625 714.375,882.8125 C713.9219,883.2969 713.9219,883.2969 713.7344,883.3906 C713.3125,883.6563 712.625,883.7813 711.8594,883.7813 C709.8125,883.7813 708.5156,882.6875 708.5156,880.9844 L708.5156,879.8906 C708.5156,878.1094 709.7656,876.7969 711.5,876.7969 C712.0781,876.7969 712.6875,876.9531 713.1563,877.2031 C713.6406,877.4844 713.8125,877.7031 713.9063,878.1094 C713.9688,878.5156 714,878.6406 714.1406,878.7656 C714.2813,878.9063 714.5156,879.0156 714.7344,879.0156 C715,879.0156 715.2656,878.875 715.4375,878.6563 C715.5469,878.5 715.5781,878.3125 715.5781,877.8906 L715.5781,876.4688 C715.5781,876.0313 715.5625,875.9063 715.4688,875.75 C715.3125,875.4844 715.0313,875.3438 714.7344,875.3438 C714.4375,875.3438 714.2344,875.4375 714.0156,875.75 L713.8438,875.6719 Z " fill="#000000"/><text fill="#000000" font-family="sans-serif" font-size="14" lengthAdjust="spacing" textLength="82" x="730.5" y="884.8467">HardEnemy</text><line style="stroke:#181818;stroke-width:0.5;" x1="675" x2="837" y1="896" y2="896"/><line style="stroke:#181818;stroke-width:0.5;" x1="675" x2="837" y1="904" y2="904"/><text fill="#000000" font-family="sans-serif" font-size="14" lengthAdjust="spacing" textLength="84" x="680" y="920.9951">void move()</text><text fill="#000000" font-family="sans-serif" font-size="14" lengthAdjust="spacing" textLength="152" x="680" y="937.292">void handleCollision()</text></g><!--class BossEnemy--><g id="elem_BossEnemy"><rect codeLine="114" fill="#F1F1F1" height="80.5938" id="BossEnemy" rx="2.5" ry="2.5" style="stroke:#181818;stroke-width:0.5;" width="164" x="873" y="864"/><ellipse cx="910.5" cy="880" fill="#ADD1B2" rx="11" ry="11" style="stroke:#181818;stroke-width:1.0;"/><path d="M912.8438,875.6719 C911.9063,875.2344 911.3125,875.0938 910.4375,875.0938 C907.8125,875.0938 905.8125,877.1719 905.8125,879.8906 L905.8125,881.0156 C905.8125,883.5938 907.9219,885.4844 910.8125,885.4844 C912.0313,885.4844 913.1875,885.1875 913.9375,884.6406 C914.5156,884.2344 914.8438,883.7813 914.8438,883.3906 C914.8438,882.9375 914.4531,882.5469 913.9844,882.5469 C913.7656,882.5469 913.5625,882.625 913.375,882.8125 C912.9219,883.2969 912.9219,883.2969 912.7344,883.3906 C912.3125,883.6563 911.625,883.7813 910.8594,883.7813 C908.8125,883.7813 907.5156,882.6875 907.5156,880.9844 L907.5156,879.8906 C907.5156,878.1094 908.7656,876.7969 910.5,876.7969 C911.0781,876.7969 911.6875,876.9531 912.1563,877.2031 C912.6406,877.4844 912.8125,877.7031 912.9063,878.1094 C912.9688,878.5156 913,878.6406 913.1406,878.7656 C913.2813,878.9063 913.5156,879.0156 913.7344,879.0156 C914,879.0156 914.2656,878.875 914.4375,878.6563 C914.5469,878.5 914.5781,878.3125 914.5781,877.8906 L914.5781,876.4688 C914.5781,876.0313 914.5625,875.9063 914.4688,875.75 C914.3125,875.4844 914.0313,875.3438 913.7344,875.3438 C913.4375,875.3438 913.2344,875.4375 913.0156,875.75 L912.8438,875.6719 Z " fill="#000000"/><text fill="#000000" font-family="sans-serif" font-size="14" lengthAdjust="spacing" textLength="82" x="929.5" y="884.8467">BossEnemy</text><line style="stroke:#181818;stroke-width:0.5;" x1="874" x2="1036" y1="896" y2="896"/><line style="stroke:#181818;stroke-width:0.5;" x1="874" x2="1036" y1="904" y2="904"/><text fill="#000000" font-family="sans-serif" font-size="14" lengthAdjust="spacing" textLength="84" x="879" y="920.9951">void move()</text><text fill="#000000" font-family="sans-serif" font-size="14" lengthAdjust="spacing" textLength="152" x="879" y="937.292">void handleCollision()</text></g><!--class Gift--><g id="elem_Gift"><rect codeLine="120" fill="#F1F1F1" height="96.8906" id="Gift" rx="2.5" ry="2.5" style="stroke:#181818;stroke-width:0.5;" width="143" x="1380.5" y="683"/><ellipse cx="1433.75" cy="699" fill="#ADD1B2" rx="11" ry="11" style="stroke:#181818;stroke-width:1.0;"/><path d="M1436.0938,694.6719 C1435.1563,694.2344 1434.5625,694.0938 1433.6875,694.0938 C1431.0625,694.0938 1429.0625,696.1719 1429.0625,698.8906 L1429.0625,700.0156 C1429.0625,702.5938 1431.1719,704.4844 1434.0625,704.4844 C1435.2813,704.4844 1436.4375,704.1875 1437.1875,703.6406 C1437.7656,703.2344 1438.0938,702.7813 1438.0938,702.3906 C1438.0938,701.9375 1437.7031,701.5469 1437.2344,701.5469 C1437.0156,701.5469 1436.8125,701.625 1436.625,701.8125 C1436.1719,702.2969 1436.1719,702.2969 1435.9844,702.3906 C1435.5625,702.6563 1434.875,702.7813 1434.1094,702.7813 C1432.0625,702.7813 1430.7656,701.6875 1430.7656,699.9844 L1430.7656,698.8906 C1430.7656,697.1094 1432.0156,695.7969 1433.75,695.7969 C1434.3281,695.7969 1434.9375,695.9531 1435.4063,696.2031 C1435.8906,696.4844 1436.0625,696.7031 1436.1563,697.1094 C1436.2188,697.5156 1436.25,697.6406 1436.3906,697.7656 C1436.5313,697.9063 1436.7656,698.0156 1436.9844,698.0156 C1437.25,698.0156 1437.5156,697.875 1437.6875,697.6563 C1437.7969,697.5 1437.8281,697.3125 1437.8281,696.8906 L1437.8281,695.4688 C1437.8281,695.0313 1437.8125,694.9063 1437.7188,694.75 C1437.5625,694.4844 1437.2813,694.3438 1436.9844,694.3438 C1436.6875,694.3438 1436.4844,694.4375 1436.2656,694.75 L1436.0938,694.6719 Z " fill="#000000"/><text fill="#000000" font-family="sans-serif" font-size="14" lengthAdjust="spacing" textLength="28" x="1454.25" y="703.8467">Gift</text><line style="stroke:#181818;stroke-width:0.5;" x1="1381.5" x2="1522.5" y1="715" y2="715"/><text fill="#000000" font-family="sans-serif" font-size="14" lengthAdjust="spacing" textLength="104" x="1386.5" y="731.9951">bool activated</text><text fill="#000000" font-family="sans-serif" font-size="14" lengthAdjust="spacing" textLength="127" x="1386.5" y="748.292">void setActivated</text><text fill="#000000" font-family="sans-serif" font-size="14" lengthAdjust="spacing" textLength="131" x="1386.5" y="764.5889">bool getActivated</text><line style="stroke:#181818;stroke-width:0.5;" x1="1381.5" x2="1522.5" y1="771.8906" y2="771.8906"/></g><!--class coin--><g id="elem_coin"><rect codeLine="127" fill="#F1F1F1" height="64.2969" id="coin" rx="2.5" ry="2.5" style="stroke:#181818;stroke-width:0.5;" width="164" x="1072" y="872.5"/><ellipse cx="1134.75" cy="888.5" fill="#ADD1B2" rx="11" ry="11" style="stroke:#181818;stroke-width:1.0;"/><path d="M1137.0938,884.1719 C1136.1563,883.7344 1135.5625,883.5938 1134.6875,883.5938 C1132.0625,883.5938 1130.0625,885.6719 1130.0625,888.3906 L1130.0625,889.5156 C1130.0625,892.0938 1132.1719,893.9844 1135.0625,893.9844 C1136.2813,893.9844 1137.4375,893.6875 1138.1875,893.1406 C1138.7656,892.7344 1139.0938,892.2813 1139.0938,891.8906 C1139.0938,891.4375 1138.7031,891.0469 1138.2344,891.0469 C1138.0156,891.0469 1137.8125,891.125 1137.625,891.3125 C1137.1719,891.7969 1137.1719,891.7969 1136.9844,891.8906 C1136.5625,892.1563 1135.875,892.2813 1135.1094,892.2813 C1133.0625,892.2813 1131.7656,891.1875 1131.7656,889.4844 L1131.7656,888.3906 C1131.7656,886.6094 1133.0156,885.2969 1134.75,885.2969 C1135.3281,885.2969 1135.9375,885.4531 1136.4063,885.7031 C1136.8906,885.9844 1137.0625,886.2031 1137.1563,886.6094 C1137.2188,887.0156 1137.25,887.1406 1137.3906,887.2656 C1137.5313,887.4063 1137.7656,887.5156 1137.9844,887.5156 C1138.25,887.5156 1138.5156,887.375 1138.6875,887.1563 C1138.7969,887 1138.8281,886.8125 1138.8281,886.3906 L1138.8281,884.9688 C1138.8281,884.5313 1138.8125,884.4063 1138.7188,884.25 C1138.5625,883.9844 1138.2813,883.8438 1137.9844,883.8438 C1137.6875,883.8438 1137.4844,883.9375 1137.2656,884.25 L1137.0938,884.1719 Z " fill="#000000"/><text fill="#000000" font-family="sans-serif" font-size="14" lengthAdjust="spacing" textLength="30" x="1155.25" y="893.3467">coin</text><line style="stroke:#181818;stroke-width:0.5;" x1="1073" x2="1235" y1="904.5" y2="904.5"/><line style="stroke:#181818;stroke-width:0.5;" x1="1073" x2="1235" y1="912.5" y2="912.5"/><text fill="#000000" font-family="sans-serif" font-size="14" lengthAdjust="spacing" textLength="152" x="1078" y="929.4951">void handleCollision()</text></g><!--class heart--><g id="elem_heart"><rect codeLine="132" fill="#F1F1F1" height="64.2969" id="heart" rx="2.5" ry="2.5" style="stroke:#181818;stroke-width:0.5;" width="164" x="1271" y="872.5"/><ellipse cx="1329.25" cy="888.5" fill="#ADD1B2" rx="11" ry="11" style="stroke:#181818;stroke-width:1.0;"/><path d="M1331.5938,884.1719 C1330.6563,883.7344 1330.0625,883.5938 1329.1875,883.5938 C1326.5625,883.5938 1324.5625,885.6719 1324.5625,888.3906 L1324.5625,889.5156 C1324.5625,892.0938 1326.6719,893.9844 1329.5625,893.9844 C1330.7813,893.9844 1331.9375,893.6875 1332.6875,893.1406 C1333.2656,892.7344 1333.5938,892.2813 1333.5938,891.8906 C1333.5938,891.4375 1333.2031,891.0469 1332.7344,891.0469 C1332.5156,891.0469 1332.3125,891.125 1332.125,891.3125 C1331.6719,891.7969 1331.6719,891.7969 1331.4844,891.8906 C1331.0625,892.1563 1330.375,892.2813 1329.6094,892.2813 C1327.5625,892.2813 1326.2656,891.1875 1326.2656,889.4844 L1326.2656,888.3906 C1326.2656,886.6094 1327.5156,885.2969 1329.25,885.2969 C1329.8281,885.2969 1330.4375,885.4531 1330.9063,885.7031 C1331.3906,885.9844 1331.5625,886.2031 1331.6563,886.6094 C1331.7188,887.0156 1331.75,887.1406 1331.8906,887.2656 C1332.0313,887.4063 1332.2656,887.5156 1332.4844,887.5156 C1332.75,887.5156 1333.0156,887.375 1333.1875,887.1563 C1333.2969,887 1333.3281,886.8125 1333.3281,886.3906 L1333.3281,884.9688 C1333.3281,884.5313 1333.3125,884.4063 1333.2188,884.25 C1333.0625,883.9844 1332.7813,883.8438 1332.4844,883.8438 C1332.1875,883.8438 1331.9844,883.9375 1331.7656,884.25 L1331.5938,884.1719 Z " fill="#000000"/><text fill="#000000" font-family="sans-serif" font-size="14" lengthAdjust="spacing" textLength="39" x="1349.75" y="893.3467">heart</text><line style="stroke:#181818;stroke-width:0.5;" x1="1272" x2="1434" y1="904.5" y2="904.5"/><line style="stroke:#181818;stroke-width:0.5;" x1="1272" x2="1434" y1="912.5" y2="912.5"/><text fill="#000000" font-family="sans-serif" font-size="14" lengthAdjust="spacing" textLength="152" x="1277" y="929.4951">void handleCollision()</text></g><!--class WeaponBox--><g id="elem_WeaponBox"><rect codeLine="137" fill="#F1F1F1" height="64.2969" id="WeaponBox" rx="2.5" ry="2.5" style="stroke:#181818;stroke-width:0.5;" width="164" x="1470" y="872.5"/><ellipse cx="1505.7" cy="888.5" fill="#ADD1B2" rx="11" ry="11" style="stroke:#181818;stroke-width:1.0;"/><path d="M1508.0438,884.1719 C1507.1063,883.7344 1506.5125,883.5938 1505.6375,883.5938 C1503.0125,883.5938 1501.0125,885.6719 1501.0125,888.3906 L1501.0125,889.5156 C1501.0125,892.0938 1503.1219,893.9844 1506.0125,893.9844 C1507.2313,893.9844 1508.3875,893.6875 1509.1375,893.1406 C1509.7156,892.7344 1510.0438,892.2813 1510.0438,891.8906 C1510.0438,891.4375 1509.6531,891.0469 1509.1844,891.0469 C1508.9656,891.0469 1508.7625,891.125 1508.575,891.3125 C1508.1219,891.7969 1508.1219,891.7969 1507.9344,891.8906 C1507.5125,892.1563 1506.825,892.2813 1506.0594,892.2813 C1504.0125,892.2813 1502.7156,891.1875 1502.7156,889.4844 L1502.7156,888.3906 C1502.7156,886.6094 1503.9656,885.2969 1505.7,885.2969 C1506.2781,885.2969 1506.8875,885.4531 1507.3563,885.7031 C1507.8406,885.9844 1508.0125,886.2031 1508.1063,886.6094 C1508.1688,887.0156 1508.2,887.1406 1508.3406,887.2656 C1508.4813,887.4063 1508.7156,887.5156 1508.9344,887.5156 C1509.2,887.5156 1509.4656,887.375 1509.6375,887.1563 C1509.7469,887 1509.7781,886.8125 1509.7781,886.3906 L1509.7781,884.9688 C1509.7781,884.5313 1509.7625,884.4063 1509.6688,884.25 C1509.5125,883.9844 1509.2313,883.8438 1508.9344,883.8438 C1508.6375,883.8438 1508.4344,883.9375 1508.2156,884.25 L1508.0438,884.1719 Z " fill="#000000"/><text fill="#000000" font-family="sans-serif" font-size="14" lengthAdjust="spacing" textLength="86" x="1524.3" y="893.3467">WeaponBox</text><line style="stroke:#181818;stroke-width:0.5;" x1="1471" x2="1633" y1="904.5" y2="904.5"/><line style="stroke:#181818;stroke-width:0.5;" x1="1471" x2="1633" y1="912.5" y2="912.5"/><text fill="#000000" font-family="sans-serif" font-size="14" lengthAdjust="spacing" textLength="152" x="1476" y="929.4951">void handleCollision()</text></g><!--class Weapon--><g id="elem_Weapon"><rect codeLine="142" fill="#F1F1F1" height="64.2969" id="Weapon" rx="2.5" ry="2.5" style="stroke:#181818;stroke-width:0.5;" width="164" x="1669" y="872.5"/><ellipse cx="1717.25" cy="888.5" fill="#ADD1B2" rx="11" ry="11" style="stroke:#181818;stroke-width:1.0;"/><path d="M1719.5938,884.1719 C1718.6563,883.7344 1718.0625,883.5938 1717.1875,883.5938 C1714.5625,883.5938 1712.5625,885.6719 1712.5625,888.3906 L1712.5625,889.5156 C1712.5625,892.0938 1714.6719,893.9844 1717.5625,893.9844 C1718.7813,893.9844 1719.9375,893.6875 1720.6875,893.1406 C1721.2656,892.7344 1721.5938,892.2813 1721.5938,891.8906 C1721.5938,891.4375 1721.2031,891.0469 1720.7344,891.0469 C1720.5156,891.0469 1720.3125,891.125 1720.125,891.3125 C1719.6719,891.7969 1719.6719,891.7969 1719.4844,891.8906 C1719.0625,892.1563 1718.375,892.2813 1717.6094,892.2813 C1715.5625,892.2813 1714.2656,891.1875 1714.2656,889.4844 L1714.2656,888.3906 C1714.2656,886.6094 1715.5156,885.2969 1717.25,885.2969 C1717.8281,885.2969 1718.4375,885.4531 1718.9063,885.7031 C1719.3906,885.9844 1719.5625,886.2031 1719.6563,886.6094 C1719.7188,887.0156 1719.75,887.1406 1719.8906,887.2656 C1720.0313,887.4063 1720.2656,887.5156 1720.4844,887.5156 C1720.75,887.5156 1721.0156,887.375 1721.1875,887.1563 C1721.2969,887 1721.3281,886.8125 1721.3281,886.3906 L1721.3281,884.9688 C1721.3281,884.5313 1721.3125,884.4063 1721.2188,884.25 C1721.0625,883.9844 1720.7813,883.8438 1720.4844,883.8438 C1720.1875,883.8438 1719.9844,883.9375 1719.7656,884.25 L1719.5938,884.1719 Z " fill="#000000"/><text fill="#000000" font-family="sans-serif" font-size="14" lengthAdjust="spacing" textLength="59" x="1737.75" y="893.3467">Weapon</text><line style="stroke:#181818;stroke-width:0.5;" x1="1670" x2="1832" y1="904.5" y2="904.5"/><line style="stroke:#181818;stroke-width:0.5;" x1="1670" x2="1832" y1="912.5" y2="912.5"/><text fill="#000000" font-family="sans-serif" font-size="14" lengthAdjust="spacing" textLength="152" x="1675" y="929.4951">void handleCollision()</text></g><!--class Shield--><g id="elem_Shield"><rect codeLine="147" fill="#F1F1F1" height="64.2969" id="Shield" rx="2.5" ry="2.5" style="stroke:#181818;stroke-width:0.5;" width="164" x="1868" y="872.5"/><ellipse cx="1923.75" cy="888.5" fill="#ADD1B2" rx="11" ry="11" style="stroke:#181818;stroke-width:1.0;"/><path d="M1926.0938,884.1719 C1925.1563,883.7344 1924.5625,883.5938 1923.6875,883.5938 C1921.0625,883.5938 1919.0625,885.6719 1919.0625,888.3906 L1919.0625,889.5156 C1919.0625,892.0938 1921.1719,893.9844 1924.0625,893.9844 C1925.2813,893.9844 1926.4375,893.6875 1927.1875,893.1406 C1927.7656,892.7344 1928.0938,892.2813 1928.0938,891.8906 C1928.0938,891.4375 1927.7031,891.0469 1927.2344,891.0469 C1927.0156,891.0469 1926.8125,891.125 1926.625,891.3125 C1926.1719,891.7969 1926.1719,891.7969 1925.9844,891.8906 C1925.5625,892.1563 1924.875,892.2813 1924.1094,892.2813 C1922.0625,892.2813 1920.7656,891.1875 1920.7656,889.4844 L1920.7656,888.3906 C1920.7656,886.6094 1922.0156,885.2969 1923.75,885.2969 C1924.3281,885.2969 1924.9375,885.4531 1925.4063,885.7031 C1925.8906,885.9844 1926.0625,886.2031 1926.1563,886.6094 C1926.2188,887.0156 1926.25,887.1406 1926.3906,887.2656 C1926.5313,887.4063 1926.7656,887.5156 1926.9844,887.5156 C1927.25,887.5156 1927.5156,887.375 1927.6875,887.1563 C1927.7969,887 1927.8281,886.8125 1927.8281,886.3906 L1927.8281,884.9688 C1927.8281,884.5313 1927.8125,884.4063 1927.7188,884.25 C1927.5625,883.9844 1927.2813,883.8438 1926.9844,883.8438 C1926.6875,883.8438 1926.4844,883.9375 1926.2656,884.25 L1926.0938,884.1719 Z " fill="#000000"/><text fill="#000000" font-family="sans-serif" font-size="14" lengthAdjust="spacing" textLength="44" x="1944.25" y="893.3467">Shield</text><line style="stroke:#181818;stroke-width:0.5;" x1="1869" x2="2031" y1="904.5" y2="904.5"/><line style="stroke:#181818;stroke-width:0.5;" x1="1869" x2="2031" y1="912.5" y2="912.5"/><text fill="#000000" font-family="sans-serif" font-size="14" lengthAdjust="spacing" textLength="152" x="1874" y="929.4951">void handleCollision()</text></g><!--class Wall--><g id="elem_Wall"><rect codeLine="152" fill="#F1F1F1" height="64.2969" id="Wall" rx="2.5" ry="2.5" style="stroke:#181818;stroke-width:0.5;" width="164" x="1559" y="699.5"/><ellipse cx="1621.75" cy="715.5" fill="#ADD1B2" rx="11" ry="11" style="stroke:#181818;stroke-width:1.0;"/><path d="M1624.0938,711.1719 C1623.1563,710.7344 1622.5625,710.5938 1621.6875,710.5938 C1619.0625,710.5938 1617.0625,712.6719 1617.0625,715.3906 L1617.0625,716.5156 C1617.0625,719.0938 1619.1719,720.9844 1622.0625,720.9844 C1623.2813,720.9844 1624.4375,720.6875 1625.1875,720.1406 C1625.7656,719.7344 1626.0938,719.2813 1626.0938,718.8906 C1626.0938,718.4375 1625.7031,718.0469 1625.2344,718.0469 C1625.0156,718.0469 1624.8125,718.125 1624.625,718.3125 C1624.1719,718.7969 1624.1719,718.7969 1623.9844,718.8906 C1623.5625,719.1563 1622.875,719.2813 1622.1094,719.2813 C1620.0625,719.2813 1618.7656,718.1875 1618.7656,716.4844 L1618.7656,715.3906 C1618.7656,713.6094 1620.0156,712.2969 1621.75,712.2969 C1622.3281,712.2969 1622.9375,712.4531 1623.4063,712.7031 C1623.8906,712.9844 1624.0625,713.2031 1624.1563,713.6094 C1624.2188,714.0156 1624.25,714.1406 1624.3906,714.2656 C1624.5313,714.4063 1624.7656,714.5156 1624.9844,714.5156 C1625.25,714.5156 1625.5156,714.375 1625.6875,714.1563 C1625.7969,714 1625.8281,713.8125 1625.8281,713.3906 L1625.8281,711.9688 C1625.8281,711.5313 1625.8125,711.4063 1625.7188,711.25 C1625.5625,710.9844 1625.2813,710.8438 1624.9844,710.8438 C1624.6875,710.8438 1624.4844,710.9375 1624.2656,711.25 L1624.0938,711.1719 Z " fill="#000000"/><text fill="#000000" font-family="sans-serif" font-size="14" lengthAdjust="spacing" textLength="30" x="1642.25" y="720.3467">Wall</text><line style="stroke:#181818;stroke-width:0.5;" x1="1560" x2="1722" y1="731.5" y2="731.5"/><line style="stroke:#181818;stroke-width:0.5;" x1="1560" x2="1722" y1="739.5" y2="739.5"/><text fill="#000000" font-family="sans-serif" font-size="14" lengthAdjust="spacing" textLength="152" x="1565" y="756.4951">void handleCollision()</text></g><!--class Recources--><g id="elem_Recources"><rect codeLine="157" fill="#F1F1F1" height="48" id="Recources" rx="2.5" ry="2.5" style="stroke:#181818;stroke-width:0.5;" width="106" x="1838" y="47.5"/><ellipse cx="1853" cy="63.5" fill="#ADD1B2" rx="11" ry="11" style="stroke:#181818;stroke-width:1.0;"/><path d="M1855.3438,59.1719 C1854.4063,58.7344 1853.8125,58.5938 1852.9375,58.5938 C1850.3125,58.5938 1848.3125,60.6719 1848.3125,63.3906 L1848.3125,64.5156 C1848.3125,67.0938 1850.4219,68.9844 1853.3125,68.9844 C1854.5313,68.9844 1855.6875,68.6875 1856.4375,68.1406 C1857.0156,67.7344 1857.3438,67.2813 1857.3438,66.8906 C1857.3438,66.4375 1856.9531,66.0469 1856.4844,66.0469 C1856.2656,66.0469 1856.0625,66.125 1855.875,66.3125 C1855.4219,66.7969 1855.4219,66.7969 1855.2344,66.8906 C1854.8125,67.1563 1854.125,67.2813 1853.3594,67.2813 C1851.3125,67.2813 1850.0156,66.1875 1850.0156,64.4844 L1850.0156,63.3906 C1850.0156,61.6094 1851.2656,60.2969 1853,60.2969 C1853.5781,60.2969 1854.1875,60.4531 1854.6563,60.7031 C1855.1406,60.9844 1855.3125,61.2031 1855.4063,61.6094 C1855.4688,62.0156 1855.5,62.1406 1855.6406,62.2656 C1855.7813,62.4063 1856.0156,62.5156 1856.2344,62.5156 C1856.5,62.5156 1856.7656,62.375 1856.9375,62.1563 C1857.0469,62 1857.0781,61.8125 1857.0781,61.3906 L1857.0781,59.9688 C1857.0781,59.5313 1857.0625,59.4063 1856.9688,59.25 C1856.8125,58.9844 1856.5313,58.8438 1856.2344,58.8438 C1855.9375,58.8438 1855.7344,58.9375 1855.5156,59.25 L1855.3438,59.1719 Z " fill="#000000"/><text fill="#000000" font-family="sans-serif" font-size="14" lengthAdjust="spacing" textLength="74" x="1867" y="68.3467">Recources</text><line style="stroke:#181818;stroke-width:0.5;" x1="1839" x2="1943" y1="79.5" y2="79.5"/><line style="stroke:#181818;stroke-width:0.5;" x1="1839" x2="1943" y1="87.5" y2="87.5"/></g><!--class Animation--><g id="elem_Animation"><rect codeLine="161" fill="#F1F1F1" height="48" id="Animation" rx="2.5" ry="2.5" style="stroke:#181818;stroke-width:0.5;" width="106" x="1979" y="47.5"/><ellipse cx="1994" cy="63.5" fill="#ADD1B2" rx="11" ry="11" style="stroke:#181818;stroke-width:1.0;"/><path d="M1996.3438,59.1719 C1995.4063,58.7344 1994.8125,58.5938 1993.9375,58.5938 C1991.3125,58.5938 1989.3125,60.6719 1989.3125,63.3906 L1989.3125,64.5156 C1989.3125,67.0938 1991.4219,68.9844 1994.3125,68.9844 C1995.5313,68.9844 1996.6875,68.6875 1997.4375,68.1406 C1998.0156,67.7344 1998.3438,67.2813 1998.3438,66.8906 C1998.3438,66.4375 1997.9531,66.0469 1997.4844,66.0469 C1997.2656,66.0469 1997.0625,66.125 1996.875,66.3125 C1996.4219,66.7969 1996.4219,66.7969 1996.2344,66.8906 C1995.8125,67.1563 1995.125,67.2813 1994.3594,67.2813 C1992.3125,67.2813 1991.0156,66.1875 1991.0156,64.4844 L1991.0156,63.3906 C1991.0156,61.6094 1992.2656,60.2969 1994,60.2969 C1994.5781,60.2969 1995.1875,60.4531 1995.6563,60.7031 C1996.1406,60.9844 1996.3125,61.2031 1996.4063,61.6094 C1996.4688,62.0156 1996.5,62.1406 1996.6406,62.2656 C1996.7813,62.4063 1997.0156,62.5156 1997.2344,62.5156 C1997.5,62.5156 1997.7656,62.375 1997.9375,62.1563 C1998.0469,62 1998.0781,61.8125 1998.0781,61.3906 L1998.0781,59.9688 C1998.0781,59.5313 1998.0625,59.4063 1997.9688,59.25 C1997.8125,58.9844 1997.5313,58.8438 1997.2344,58.8438 C1996.9375,58.8438 1996.7344,58.9375 1996.5156,59.25 L1996.3438,59.1719 Z " fill="#000000"/><text fill="#000000" font-family="sans-serif" font-size="14" lengthAdjust="spacing" textLength="74" x="2008" y="68.3467">Animation</text><line style="stroke:#181818;stroke-width:0.5;" x1="1980" x2="2084" y1="79.5" y2="79.5"/><line style="stroke:#181818;stroke-width:0.5;" x1="1980" x2="2084" y1="87.5" y2="87.5"/></g><!--reverse link Menu to MainMenu--><g id="link_Menu_MainMenu"><path codeLine="167" d="M1510.41,282.389 C1590.72,304.315 1687.36,330.703 1768.92,352.971 " fill="none" id="Menu-backto-MainMenu" style="stroke:#181818;stroke-width:1.0;"/><polygon fill="none" points="1508.35,289.082,1490.9,277.062,1512.04,275.577,1508.35,289.082" style="stroke:#181818;stroke-width:1.0;"/></g><!--reverse link Menu to StartMenu--><g id="link_Menu_StartMenu"><path codeLine="168" d="M1346,297.495 C1346,315.765 1346,335.589 1346,352.921 " fill="none" id="Menu-backto-StartMenu" style="stroke:#181818;stroke-width:1.0;"/><polygon fill="none" points="1339,297.374,1346,277.374,1353,297.374,1339,297.374" style="stroke:#181818;stroke-width:1.0;"/></g><!--reverse link ToolBar to SinglePlayerTB--><g id="link_ToolBar_SinglePlayerTB"><path codeLine="169" d="M1646.77,138.143 C1633.12,164.321 1618.28,192.77 1608.19,212.115 " fill="none" id="ToolBar-backto-SinglePlayerTB" style="stroke:#181818;stroke-width:1.0;"/><polygon fill="none" points="1640.73,134.581,1656.19,120.085,1653.15,141.055,1640.73,134.581" style="stroke:#181818;stroke-width:1.0;"/></g><!--reverse link ToolBar to MultiPlayerTB--><g id="link_ToolBar_MultiPlayerTB"><path codeLine="170" d="M1715.23,138.143 C1728.88,164.321 1743.72,192.77 1753.81,212.115 " fill="none" id="ToolBar-backto-MultiPlayerTB" style="stroke:#181818;stroke-width:1.0;"/><polygon fill="none" points="1708.85,141.055,1705.81,120.085,1721.27,134.581,1708.85,141.055" style="stroke:#181818;stroke-width:1.0;"/></g><!--reverse link GameObject to StaticObject--><g id="link_GameObject_StaticObject"><path codeLine="171" d="M1102.67,466.347 C1188.08,498.321 1267.59,522.641 1331.25,540.852 " fill="none" id="GameObject-backto-StaticObject" style="stroke:#181818;stroke-width:1.0;"/><polygon fill="none" points="1099.99,472.819,1083.77,459.184,1104.96,459.729,1099.99,472.819" style="stroke:#181818;stroke-width:1.0;"/></g><!--reverse link GameObject to MovingObject--><g id="link_GameObject_MovingObject"><path codeLine="172" d="M834.484,476.246 C805.223,493.036 774.888,510.443 748.109,525.81 " fill="none" id="GameObject-backto-MovingObject" style="stroke:#181818;stroke-width:1.0;"/><polygon fill="none" points="831.205,470.057,852.036,466.174,838.173,482.2,831.205,470.057" style="stroke:#181818;stroke-width:1.0;"/></g><!--reverse link MovingObject to Player--><g id="link_MovingObject_Player"><path codeLine="173" d="M559.423,614.095 C486.353,640.807 390.507,675.845 323.131,700.476 " fill="none" id="MovingObject-backto-Player" style="stroke:#181818;stroke-width:1.0;"/><polygon fill="none" points="557.243,607.439,578.43,607.147,562.05,620.588,557.243,607.439" style="stroke:#181818;stroke-width:1.0;"/></g><!--reverse link MovingObject to Enemy--><g id="link_MovingObject_Enemy"><path codeLine="174" d="M665,643.349 C665,659.618 665,676.464 665,690.958 " fill="none" id="MovingObject-backto-Enemy" style="stroke:#181818;stroke-width:1.0;"/><polygon fill="none" points="658,643.27,665,623.27,672,643.27,658,643.27" style="stroke:#181818;stroke-width:1.0;"/></g><!--reverse link Character to char1--><g id="link_Character_char1"><path codeLine="175" d="M91.3799,985.7603 C79.8892,1001.4929 68.7164,1016.7902 60.008,1028.7133 " fill="none" id="Character-backto-char1" style="stroke:#181818;stroke-width:1.0;"/><polygon fill="none" points="85.9305,981.3531,103.3795,969.331,97.2361,989.6104,85.9305,981.3531" style="stroke:#181818;stroke-width:1.0;"/></g><!--reverse link Character to char2--><g id="link_Character_char2"><path codeLine="176" d="M150,989.7238 C150,1004.0453 150,1017.7942 150,1028.7133 " fill="none" id="Character-backto-char2" style="stroke:#181818;stroke-width:1.0;"/><polygon fill="none" points="143,989.3309,150,969.331,157,989.3308,143,989.3309" style="stroke:#181818;stroke-width:1.0;"/></g><!--reverse link Character to char3--><g id="link_Character_char3"><path codeLine="177" d="M208.62,985.7603 C220.111,1001.4929 231.284,1016.7902 239.992,1028.7133 " fill="none" id="Character-backto-char3" style="stroke:#181818;stroke-width:1.0;"/><polygon fill="none" points="202.764,989.6104,196.62,969.331,214.07,981.3531,202.764,989.6104" style="stroke:#181818;stroke-width:1.0;"/></g><!--reverse link StaticObject to Wall--><g id="link_StaticObject_Wall"><path codeLine="178" d="M1515.76,627.788 C1544.74,651.557 1578.05,678.878 1603.03,699.364 " fill="none" id="StaticObject-backto-Wall" style="stroke:#181818;stroke-width:1.0;"/><polygon fill="none" points="1511.21,633.109,1500.18,615.014,1520.09,622.284,1511.21,633.109" style="stroke:#181818;stroke-width:1.0;"/></g><!--reverse link StaticObject to Gift--><g id="link_StaticObject_Gift"><path codeLine="179" d="M1452,635.227 C1452,650.97 1452,667.746 1452,682.765 " fill="none" id="StaticObject-backto-Gift" style="stroke:#181818;stroke-width:1.0;"/><polygon fill="none" points="1445,635.014,1452,615.014,1459,635.014,1445,635.014" style="stroke:#181818;stroke-width:1.0;"/></g><!--reverse link Gift to WeaponBox--><g id="link_Gift_WeaponBox"><path codeLine="180" d="M1490.15,797.738 C1505.11,823.321 1521.57,851.472 1533.75,872.294 " fill="none" id="Gift-backto-WeaponBox" style="stroke:#181818;stroke-width:1.0;"/><polygon fill="none" points="1483.91,800.931,1479.86,780.133,1495.99,793.864,1483.91,800.931" style="stroke:#181818;stroke-width:1.0;"/></g><!--reverse link Gift to Weapon--><g id="link_Gift_Weapon"><path codeLine="181" d="M1541.2,780.316 C1588.87,805.936 1640,833.544 1651,840 C1668.38,850.198 1687.11,861.893 1703.61,872.446 " fill="none" id="Gift-backto-Weapon" style="stroke:#181818;stroke-width:1.0;"/><polygon fill="none" points="1537.84,786.457,1523.54,770.827,1544.47,774.124,1537.84,786.457" style="stroke:#181818;stroke-width:1.0;"/></g><!--reverse link Gift to heart--><g id="link_Gift_heart"><path codeLine="182" d="M1414.23,797.738 C1399.42,823.321 1383.12,851.472 1371.07,872.294 " fill="none" id="Gift-backto-heart" style="stroke:#181818;stroke-width:1.0;"/><polygon fill="none" points="1408.34,793.934,1424.42,780.133,1420.46,800.949,1408.34,793.934" style="stroke:#181818;stroke-width:1.0;"/></g><!--reverse link Gift to coin--><g id="link_Gift_coin"><path codeLine="183" d="M1362.31,779.113 C1327.81,797.516 1288.27,819.204 1253,840 C1235.76,850.164 1217.21,861.852 1200.89,872.408 " fill="none" id="Gift-backto-coin" style="stroke:#181818;stroke-width:1.0;"/><polygon fill="none" points="1359.41,772.724,1380.36,769.532,1365.98,785.091,1359.41,772.724" style="stroke:#181818;stroke-width:1.0;"/></g><!--reverse link Gift to Shield--><g id="link_Gift_Shield"><path codeLine="184" d="M1542.65,779.568 C1677.15,823.577 1725.73,790.542 1850,840 C1870.45,848.137 1891.27,860.565 1908.58,872.276 " fill="none" id="Gift-backto-Shield" style="stroke:#181818;stroke-width:1.0;"/><polygon fill="none" points="1540.18,786.121,1523.55,772.995,1544.74,772.882,1540.18,786.121" style="stroke:#181818;stroke-width:1.0;"/></g><!--reverse link Enemy to easyEnemy--><g id="link_Enemy_easyEnemy"><path codeLine="185" d="M565.768,781.403 C530.99,799.167 491.911,819.841 457,840 C444.091,847.454 430.495,855.82 417.652,863.972 " fill="none" id="Enemy-backto-easyEnemy" style="stroke:#181818;stroke-width:1.0;"/><polygon fill="none" points="563.05,774.933,584.053,772.127,569.384,787.418,563.05,774.933" style="stroke:#181818;stroke-width:1.0;"/></g><!--reverse link Enemy to mediumEnemy--><g id="link_Enemy_mediumEnemy"><path codeLine="186" d="M629.199,789.186 C613.771,813.613 596.099,841.594 582.1,863.759 " fill="none" id="Enemy-backto-mediumEnemy" style="stroke:#181818;stroke-width:1.0;"/><polygon fill="none" points="623.353,785.332,639.951,772.161,635.19,792.808,623.353,785.332" style="stroke:#181818;stroke-width:1.0;"/></g><!--reverse link Enemy to HardEnemy--><g id="link_Enemy_HardEnemy"><path codeLine="187" d="M695.545,789.898 C708.454,814.156 723.17,841.809 734.851,863.759 " fill="none" id="Enemy-backto-HardEnemy" style="stroke:#181818;stroke-width:1.0;"/><polygon fill="none" points="689.322,793.105,686.106,772.161,701.681,786.528,689.322,793.105" style="stroke:#181818;stroke-width:1.0;"/></g><!--reverse link Enemy to BossEnemy--><g id="link_Enemy_BossEnemy"><path codeLine="188" d="M754.927,782.144 C786.743,800.034 822.655,820.597 855,840 C867.61,847.564 880.976,855.856 893.693,863.88 " fill="none" id="Enemy-backto-BossEnemy" style="stroke:#181818;stroke-width:1.0;"/><polygon fill="none" points="751.253,788.11,737.225,772.228,758.095,775.895,751.253,788.11" style="stroke:#181818;stroke-width:1.0;"/></g><!--link Controller to Board--><g id="link_Controller_Board"><path codeLine="190" d="M1143.33,136.22 C1119.79,156.311 1094.48,177.916 1073.49,195.826 " fill="none" id="Controller-Board" style="stroke:#181818;stroke-width:1.0;"/></g><!--link Controller to Menu--><g id="link_Controller_Menu"><path codeLine="191" d="M1268.22,136.454 C1283.91,156.433 1300.76,177.888 1314.75,195.704 " fill="none" id="Controller-Menu" style="stroke:#181818;stroke-width:1.0;"/></g><!--link Player to Character--><g id="link_Player_Character"><path codeLine="192" d="M219.894,772.161 C209.183,792.288 195.912,817.227 183.82,839.947 " fill="none" id="Player-Character" style="stroke:#181818;stroke-width:1.0;"/></g><!--link Board to GameObject--><g id="link_Board_GameObject"><path codeLine="193" d="M1011.34,277.374 C1004.313,295.282 995.843,316.854 987.97,336.906 " fill="none" id="Board-GameObject" style="stroke:#181818;stroke-width:1.0;"/></g><!--SRC=[hLRTQzim47_tNo7obC0AM_iMsa4THWEZj2mPUnoAVOcrofQHP2-Xw_y-VTW-ENP2LlQI-7vtkj_vlkI4KwN8GXHQ2iv1HgyH2SJfp8YrO2cHLO52HekKmrSuR0ILQG_dAJoAIW622dJScBr5KU887U2uuhw7gaof1hJtvciXU4nzS3MJkg8yD5y2vJgRpiWT-JXkyGDeAOfp5Wl12jKOjBIFK5H3pYI3v6K5718DwLEfsId7ALCbfmVhvSZnYXKx3iz62N8TEmeahRXcuwgLfb9ZK0CE0ogTpkUr2Kt8M_Uij3Had_EVmaMgJ1ol4sKTJJwGIGQyjF-mPthorZeTVKCCaBBYVmHXZrZk91D2WI6bqek6d9HIR1a72opPBYCg4H8kZV21vl2q-MMKBaQrdSzNfMGQYF0eTkOQzhgI_Mvz5gfnU5HGt_OBCnbCdQwwfByR3QPCrERzWv1w9t9H0_eQ9UeoxPo73Q5PSihloN17F2rCzgb9fkmofdp6R5c8WLYXJL5O0kPvOyQHL0KNoGkaGUA-Dz3K6inQmzr0qPBwBdUClKnqyZ0FxT4l1UG7U_9K9izdehwhSHhjAtuolhhjP87hO-0c182gGnT2o1sTYRmvcqFAglozfvTcCxxtR2oKUk_P1xRrBUPgQbg5rMPhXjM_3x2sy8XXBisYHVupZ1cO9NMHfT_kiTZ_W_L5fgkC0KylyqevlyZm6oIYaWcei9_k2vPJktGy64LsbvBRFrTNk6uHmdkWkHWRk7-hz7JzMmKNPESGzyYnihUyGi6hco4UAdodTOl5WtxMHi3hCV0c2YFpk4lq47RzQNyQgwubZh40y1s6icjD59lgk_Vm28vz08Rp7C0ug0684nZXHnPn2lj1rCTSXNrwhOWhsXbR24lr5m00]--></g></svg>